spectral-xbold.ufo
<glyph name="exclam" format="1">
  <advance width="281"/>
  <unicode hex="0021"/>
  <outline>
    <contour>
      <point x="120" y="230" type="line"/>
      <point x="160" y="230" type="line"/>
      <point x="234" y="660" type="line"/>
      <point x="47" y="660" type="line"/>
    </contour>
    <contour>
      <point x="140" y="-5" type="curve" smooth="yes"/>
      <point x="185" y="-5"/>
      <point x="223" y="33"/>
      <point x="223" y="78" type="curve" smooth="yes"/>
      <point x="223" y="123"/>
      <point x="185" y="161"/>
      <point x="140" y="161" type="curve" smooth="yes"/>
      <point x="95" y="161"/>
      <point x="57" y="123"/>
      <point x="57" y="78" type="curve" smooth="yes"/>
      <point x="57" y="33"/>
      <point x="95" y="-5"/>
    </contour>
  </outline>
</glyph>
<glyph name="numbersign" format="1">
  <advance width="600"/>
  <unicode hex="0023"/>
  <outline>
    <contour>
      <point x="88" y="0" type="line"/>
      <point x="142" y="0" type="line"/>
      <point x="334" y="660" type="line"/>
      <point x="280" y="660" type="line"/>
    </contour>
    <contour>
      <point x="268" y="0" type="line"/>
      <point x="322" y="0" type="line"/>
      <point x="514" y="660" type="line"/>
      <point x="460" y="660" type="line"/>
    </contour>
    <contour>
      <point x="109" y="401" type="line"/>
      <point x="549" y="401" type="line"/>
      <point x="549" y="452" type="line"/>
      <point x="109" y="452" type="line"/>
    </contour>
    <contour>
      <point x="51" y="201" type="line"/>
      <point x="491" y="201" type="line"/>
      <point x="491" y="252" type="line"/>
      <point x="51" y="252" type="line"/>
    </contour>
  </outline>
</glyph>
<glyph name="dollar" format="2">
  <advance width="600"/>
  <unicode hex="0024"/>
  <outline>
    <contour>
      <point x="240" y="-80" type="line"/>
      <point x="281" y="-80" type="line"/>
      <point x="281" y="740" type="line"/>
      <point x="240" y="740" type="line"/>
    </contour>
    <contour>
      <point x="337" y="-80" type="line"/>
      <point x="378" y="-80" type="line"/>
      <point x="378" y="740" type="line"/>
      <point x="337" y="740" type="line"/>
    </contour>
    <contour>
      <point x="298" y="-10" type="curve" smooth="yes"/>
      <point x="433" y="-10"/>
      <point x="555" y="76"/>
      <point x="555" y="195" type="curve" smooth="yes"/>
      <point x="555" y="289"/>
      <point x="515" y="348"/>
      <point x="371" y="402" type="curve" smooth="yes"/>
      <point x="227" y="456"/>
      <point x="204" y="480"/>
      <point x="204" y="532" type="curve" smooth="yes"/>
      <point x="204" y="581"/>
      <point x="243" y="614"/>
      <point x="321" y="614" type="curve" smooth="yes"/>
      <point x="376" y="614"/>
      <point x="413" y="600"/>
      <point x="442" y="573" type="curve"/>
      <point x="420" y="601" type="line"/>
      <point x="420" y="492" type="line"/>
      <point x="489" y="492" type="line" smooth="yes"/>
      <point x="515" y="492"/>
      <point x="527" y="505"/>
      <point x="527" y="533" type="curve" smooth="yes"/>
      <point x="527" y="603"/>
      <point x="451" y="670"/>
      <point x="316" y="670" type="curve" smooth="yes"/>
      <point x="178" y="670"/>
      <point x="60" y="580"/>
      <point x="60" y="465" type="curve" smooth="yes"/>
      <point x="60" y="366"/>
      <point x="101" y="311"/>
      <point x="245" y="255" type="curve" smooth="yes"/>
      <point x="389" y="199"/>
      <point x="415" y="171"/>
      <point x="415" y="122" type="curve" smooth="yes"/>
      <point x="415" y="79"/>
      <point x="379" y="44"/>
      <point x="300" y="44" type="curve"/>
      <point x="233" y="44"/>
      <point x="188" y="59"/>
      <point x="152" y="90" type="curve"/>
      <point x="178" y="59" type="line"/>
      <point x="178" y="178" type="line"/>
      <point x="106" y="178" type="line" smooth="yes"/>
      <point x="79" y="178"/>
      <point x="67" y="165"/>
      <point x="67" y="133" type="curve" smooth="yes"/>
      <point x="67" y="54"/>
      <point x="146" y="-10"/>
    </contour>
  </outline>
</glyph>
<glyph name="ampersand" format="1">
  <advance width="811"/>
  <unicode hex="0026"/>
  <outline>
    <contour>
      <point x="517" y="0" type="line"/>
      <point x="787" y="0" type="line"/>
      <point x="787" y="16" type="line"/>
      <point x="704" y="52" type="line"/>
      <point x="416" y="346" type="line" smooth="yes"/>
      <point x="331" y="433"/>
      <point x="271" y="485"/>
      <point x="271" y="550" type="curve" smooth="yes"/>
      <point x="271.0" y="588.0"/>
      <point x="282.457627119" y="625.0"/>
      <point x="323" y="625" type="curve" smooth="yes"/>
      <point x="366.369565217" y="625.0"/>
      <point x="380" y="584"/>
      <point x="380" y="545" type="curve" smooth="yes"/>
      <point x="380" y="487"/>
      <point x="361.195715484" y="430.161177458"/>
      <point x="327" y="402" type="curve"/>
      <point x="348" y="378" type="line"/>
      <point x="509.126432835" y="418.031411884"/>
      <point x="548" y="472"/>
      <point x="548" y="529" type="curve" smooth="yes"/>
      <point x="548" y="612"/>
      <point x="462.19047619" y="670.0"/>
      <point x="336" y="670" type="curve" smooth="yes"/>
      <point x="213.532467532" y="670.0"/>
      <point x="106.0" y="613.0"/>
      <point x="106" y="494" type="curve" smooth="yes"/>
      <point x="106.0" y="393.0"/>
      <point x="184" y="337"/>
      <point x="262" y="258" type="curve" smooth="yes"/>
    </contour>
    <contour>
      <point x="272" y="-10" type="curve" smooth="yes"/>
      <point x="471" y="-10"/>
      <point x="592" y="142"/>
      <point x="712" y="368" type="curve"/>
      <point x="682" y="343" type="line"/>
      <point x="791" y="390" type="line"/>
      <point x="791" y="406" type="line"/>
      <point x="538" y="406" type="line"/>
      <point x="538" y="390" type="line"/>
      <point x="636" y="351" type="line"/>
      <point x="559" y="159"/>
      <point x="450" y="65"/>
      <point x="337" y="65" type="curve" smooth="yes"/>
      <point x="250" y="65"/>
      <point x="211.0" y="116.633802817"/>
      <point x="211" y="206" type="curve" smooth="yes"/>
      <point x="211.0" y="253.327586207"/>
      <point x="226.375926176" y="298.329698485"/>
      <point x="254" y="328" type="curve"/>
      <point x="226" y="353" type="line"/>
      <point x="111" y="321"/>
      <point x="48" y="248"/>
      <point x="48" y="154" type="curve" smooth="yes"/>
      <point x="48.0" y="48.0"/>
      <point x="138" y="-10"/>
    </contour>
  </outline>
</glyph>
<glyph name="quotesingle" format="1">
  <advance width="250"/>
  <unicode hex="0027"/>
  <outline>
    <contour>
      <point x="111" y="490" type="line"/>
      <point x="139" y="490" type="line"/>
      <point x="180" y="740" type="line"/>
      <point x="70" y="740" type="line"/>
    </contour>
  </outline>
</glyph>
<glyph name="parenleft" format="1">
  <advance width="270"/>
  <unicode hex="0028"/>
  <outline>
    <contour>
      <point x="224" y="-150" type="curve"/>
      <point x="250" y="-150" type="line"/>
      <point x="250" y="-147" type="line"/>
      <point x="168.995406" y="-15.3675347503"/>
      <point x="122.0" y="112.0"/>
      <point x="122" y="295" type="curve" smooth="yes"/>
      <point x="122.0" y="478.0"/>
      <point x="168.973660213" y="607.357856341"/>
      <point x="250" y="737" type="curve"/>
      <point x="250" y="740" type="line"/>
      <point x="224" y="740" type="line"/>
      <point x="97" y="606"/>
      <point x="45.0" y="460.0"/>
      <point x="45" y="295" type="curve" smooth="yes"/>
      <point x="45.0" y="130.0"/>
      <point x="97" y="-16"/>
    </contour>
  </outline>
</glyph>
<glyph name="parenright" format="1">
  <advance width="270"/>
  <unicode hex="0029"/>
  <outline>
    <contour>
      <point x="20" y="-150" type="line"/>
      <point x="46" y="-150" type="line"/>
      <point x="173" y="-16"/>
      <point x="225" y="130"/>
      <point x="225" y="295" type="curve" smooth="yes"/>
      <point x="225" y="460"/>
      <point x="173" y="606"/>
      <point x="46" y="740" type="curve"/>
      <point x="20" y="740" type="line"/>
      <point x="20" y="737" type="line"/>
      <point x="101" y="607"/>
      <point x="148" y="478"/>
      <point x="148" y="295" type="curve" smooth="yes"/>
      <point x="148" y="112"/>
      <point x="101" y="-15"/>
      <point x="20" y="-147" type="curve"/>
    </contour>
  </outline>
</glyph>
<glyph name="asterisk" format="2">
  <advance width="430"/>
  <unicode hex="002A"/>
  <outline>
    <contour>
      <point x="50" y="587" type="curve"/>
      <point x="193" y="573" type="line"/>
      <point x="82" y="476" type="line"/>
      <point x="99" y="448"/>
      <point x="124" y="431"/>
      <point x="156" y="425" type="curve"/>
      <point x="215" y="553" type="line"/>
      <point x="274" y="425" type="line"/>
      <point x="306" y="431"/>
      <point x="331" y="448"/>
      <point x="348" y="476" type="curve"/>
      <point x="237" y="573" type="line"/>
      <point x="380" y="587" type="line"/>
      <point x="382" y="619"/>
      <point x="373" y="649"/>
      <point x="351" y="673" type="curve"/>
      <point x="228" y="601" type="line"/>
      <point x="260" y="740" type="line"/>
      <point x="230" y="753"/>
      <point x="200" y="753"/>
      <point x="170" y="740" type="curve"/>
      <point x="202" y="601" type="line"/>
      <point x="79" y="673" type="line"/>
      <point x="57" y="649"/>
      <point x="48" y="619"/>
    </contour>
  </outline>
</glyph>
<glyph name="plus" format="1">
  <advance width="600"/>
  <unicode hex="002B"/>
  <outline>
    <contour>
      <point x="90" y="243" type="line"/>
      <point x="510" y="243" type="line"/>
      <point x="510" y="301" type="line"/>
      <point x="90" y="301" type="line"/>
    </contour>
    <contour>
      <point x="269" y="62" type="line"/>
      <point x="331" y="62" type="line"/>
      <point x="331" y="482" type="line"/>
      <point x="269" y="482" type="line"/>
    </contour>
  </outline>
</glyph>
<glyph name="comma" format="2">
  <advance width="280"/>
  <unicode hex="002C"/>
  <outline>
    <contour>
      <point x="16" y="-196" type="line"/>
      <point x="45" y="-196" type="line"/>
      <point x="218" y="116" type="line"/>
      <point x="218" y="144" type="line"/>
      <point x="68" y="144" type="line"/>
    </contour>
  </outline>
</glyph>
<glyph name="hyphen" format="1">
  <advance width="365"/>
  <unicode hex="002D"/>
  <outline>
    <contour>
      <point x="45" y="222" type="line"/>
      <point x="320" y="222" type="line"/>
      <point x="320" y="292" type="line"/>
      <point x="45" y="292" type="line"/>
    </contour>
  </outline>
</glyph>
<glyph name="period" format="1">
  <advance width="280"/>
  <unicode hex="002E"/>
  <outline>
    <contour>
      <point x="140" y="-5" type="curve" smooth="yes"/>
      <point x="185" y="-5"/>
      <point x="223" y="33"/>
      <point x="223" y="78" type="curve" smooth="yes"/>
      <point x="223" y="123"/>
      <point x="185" y="161"/>
      <point x="140" y="161" type="curve" smooth="yes"/>
      <point x="95" y="161"/>
      <point x="57" y="123"/>
      <point x="57" y="78" type="curve" smooth="yes"/>
      <point x="57" y="33"/>
      <point x="95" y="-5"/>
    </contour>
  </outline>
</glyph>
<glyph name="zero" format="1">
  <advance width="600"/>
  <unicode hex="0030"/>
  <outline>
    <contour>
      <point x="300" y="-10" type="curve" smooth="yes"/>
      <point x="458" y="-10"/>
      <point x="569.0" y="135.0"/>
      <point x="569" y="330" type="curve" smooth="yes"/>
      <point x="569.0" y="540.0"/>
      <point x="469" y="670"/>
      <point x="300" y="670" type="curve" smooth="yes"/>
      <point x="142" y="670"/>
      <point x="32.0" y="525.0"/>
      <point x="32" y="330" type="curve" smooth="yes"/>
      <point x="32.0" y="120.0"/>
      <point x="132" y="-10"/>
    </contour>
    <contour>
      <point x="314" y="40" type="curve" smooth="yes"/>
      <point x="246" y="40"/>
      <point x="229" y="201"/>
      <point x="229" y="363" type="curve" smooth="yes"/>
      <point x="229" y="525"/>
      <point x="245" y="620"/>
      <point x="289" y="620" type="curve" smooth="yes"/>
      <point x="356" y="620"/>
      <point x="372" y="460"/>
      <point x="372" y="299" type="curve" smooth="yes"/>
      <point x="372" y="147"/>
      <point x="356" y="40"/>
    </contour>
  </outline>
</glyph>
<glyph name="one" format="1">
  <advance width="600"/>
  <unicode hex="0031"/>
  <outline>
    <contour>
      <point x="144" y="0" type="line"/>
      <point x="517" y="0" type="line"/>
      <point x="517" y="16" type="line"/>
      <point x="428" y="48" type="line"/>
      <point x="428" y="660" type="line"/>
      <point x="338" y="660" type="line"/>
      <point x="83" y="510" type="line"/>
      <point x="83" y="466" type="line"/>
      <point x="243" y="533" type="line"/>
      <point x="243" y="48" type="line"/>
      <point x="144" y="16" type="line"/>
    </contour>
  </outline>
</glyph>
<glyph name="two" format="2">
  <advance width="600"/>
  <unicode hex="0032"/>
  <outline>
    <contour>
      <point x="52" y="0" type="line"/>
      <point x="552" y="0" type="line"/>
      <point x="562" y="233" type="line"/>
      <point x="546" y="233" type="line"/>
      <point x="483" y="132" type="line"/>
      <point x="174" y="132" type="line"/>
      <point x="120" y="70" type="line"/>
      <point x="484" y="326"/>
      <point x="533" y="386"/>
      <point x="533" y="493" type="curve" smooth="yes"/>
      <point x="533" y="593"/>
      <point x="445" y="670"/>
      <point x="312" y="670" type="curve" smooth="yes"/>
      <point x="152" y="670"/>
      <point x="41" y="564"/>
      <point x="41" y="483" type="curve" smooth="yes"/>
      <point x="41" y="446"/>
      <point x="54" y="441"/>
      <point x="81" y="441" type="curve" smooth="yes"/>
      <point x="172" y="441" type="line"/>
      <point x="172" y="606" type="line"/>
      <point x="150" y="567" type="line"/>
      <point x="182" y="594"/>
      <point x="213" y="605"/>
      <point x="254" y="605" type="curve" smooth="yes"/>
      <point x="314" y="605"/>
      <point x="336" y="574"/>
      <point x="336" y="516" type="curve" smooth="yes"/>
      <point x="336" y="341"/>
      <point x="309" y="311"/>
      <point x="52" y="45" type="curve"/>
    </contour>
  </outline>
</glyph>
<glyph name="three" format="2">
  <advance width="600"/>
  <unicode hex="0033"/>
  <outline>
    <contour>
      <point x="282" y="-10" type="curve" smooth="yes"/>
      <point x="456" y="-10"/>
      <point x="560" y="86"/>
      <point x="560" y="187" type="curve" smooth="yes"/>
      <point x="560" y="294"/>
      <point x="477" y="365"/>
      <point x="242" y="365" type="curve"/>
      <point x="242" y="355" type="line"/>
      <point x="439" y="357"/>
      <point x="525" y="433"/>
      <point x="525" y="514" type="curve" smooth="yes"/>
      <point x="525" y="599"/>
      <point x="455" y="670"/>
      <point x="303" y="670" type="curve" smooth="yes"/>
      <point x="172" y="670"/>
      <point x="51" y="597"/>
      <point x="51" y="513" type="curve" smooth="yes"/>
      <point x="51" y="480"/>
      <point x="60" y="471"/>
      <point x="91" y="471" type="curve" smooth="yes"/>
      <point x="182" y="471" type="line"/>
      <point x="182" y="620" type="line"/>
      <point x="151" y="576" type="line"/>
      <point x="181" y="606"/>
      <point x="221" y="613"/>
      <point x="254" y="613" type="curve" smooth="yes"/>
      <point x="300" y="613"/>
      <point x="328" y="586"/>
      <point x="328" y="512" type="curve" smooth="yes"/>
      <point x="328" y="417"/>
      <point x="283" y="368"/>
      <point x="227" y="368" type="curve" smooth="yes"/>
      <point x="162" y="368" type="line"/>
      <point x="162" y="318" type="line"/>
      <point x="211" y="318" type="line" smooth="yes"/>
      <point x="319" y="318"/>
      <point x="362" y="269"/>
      <point x="362" y="172" type="curve" smooth="yes"/>
      <point x="362" y="96"/>
      <point x="321" y="47"/>
      <point x="252" y="47" type="curve" smooth="yes"/>
      <point x="198" y="47"/>
      <point x="170" y="56"/>
      <point x="137" y="84" type="curve"/>
      <point x="171" y="36" type="line"/>
      <point x="171" y="172" type="line"/>
      <point x="80" y="172" type="line" smooth="yes"/>
      <point x="49" y="172"/>
      <point x="40" y="163"/>
      <point x="40" y="130" type="curve" smooth="yes"/>
      <point x="40" y="57"/>
      <point x="140" y="-10"/>
    </contour>
  </outline>
</glyph>
<glyph name="four" format="1">
  <advance width="600"/>
  <unicode hex="0034"/>
  <outline>
    <contour>
      <point x="186" y="0" type="line"/>
      <point x="559" y="0" type="line"/>
      <point x="559" y="16" type="line"/>
      <point x="470" y="48" type="line"/>
      <point x="470" y="660" type="line"/>
      <point x="380" y="660" type="line"/>
      <point x="20" y="199" type="line"/>
      <point x="20" y="163" type="line"/>
      <point x="589" y="163" type="line"/>
      <point x="589" y="250" type="line"/>
      <point x="93" y="250" type="line"/>
      <point x="103" y="227" type="line"/>
      <point x="338" y="536" type="line"/>
      <point x="285" y="536" type="line"/>
      <point x="285" y="48" type="line"/>
      <point x="186" y="16" type="line"/>
    </contour>
  </outline>
</glyph>
<glyph name="five" format="2">
  <advance width="600"/>
  <unicode hex="0035"/>
  <outline>
    <contour>
      <point x="175" y="44" type="curve"/>
      <point x="233" y="7" type="line"/>
      <point x="143" y="155" type="line"/>
      <point x="85" y="114" type="line" smooth="yes"/>
      <point x="71" y="104"/>
      <point x="65" y="93"/>
      <point x="65" y="80" type="curve" smooth="yes"/>
      <point x="65" y="40"/>
      <point x="131" y="-10"/>
      <point x="252" y="-10" type="curve" smooth="yes"/>
      <point x="411" y="-10"/>
      <point x="528" y="95"/>
      <point x="528" y="218" type="curve" smooth="yes"/>
      <point x="528" y="330"/>
      <point x="450" y="418"/>
      <point x="307" y="418" type="curve" smooth="yes"/>
      <point x="248" y="418"/>
      <point x="176" y="399"/>
      <point x="120" y="367" type="curve"/>
      <point x="150" y="328" type="line"/>
      <point x="163" y="579" type="line"/>
      <point x="153" y="543" type="line"/>
      <point x="483" y="543" type="line"/>
      <point x="483" y="660" type="line"/>
      <point x="108" y="660" type="line"/>
      <point x="91" y="311" type="line"/>
      <point x="127" y="321"/>
      <point x="155" y="328"/>
      <point x="194" y="328" type="curve" smooth="yes"/>
      <point x="295" y="328"/>
      <point x="355" y="284"/>
      <point x="355" y="175" type="curve" smooth="yes"/>
      <point x="355" y="76"/>
      <point x="316" y="34"/>
      <point x="239" y="34" type="curve" smooth="yes"/>
      <point x="219" y="34"/>
      <point x="199" y="36"/>
    </contour>
  </outline>
</glyph>
<glyph name="six" format="1">
  <advance width="600"/>
  <unicode hex="0036"/>
  <outline>
    <contour>
      <point x="301" y="-10" type="curve" smooth="yes"/>
      <point x="476" y="-10"/>
      <point x="567" y="90"/>
      <point x="567" y="211" type="curve" smooth="yes"/>
      <point x="567" y="315"/>
      <point x="502" y="398"/>
      <point x="387" y="398" type="curve" smooth="yes"/>
      <point x="285" y="398"/>
      <point x="216" y="346"/>
      <point x="193" y="248" type="curve"/>
      <point x="203" y="216" type="line"/>
      <point x="217.991490714" y="277.964828283"/>
      <point x="250.505154639" y="319.0"/>
      <point x="299" y="319" type="curve" smooth="yes"/>
      <point x="353.72" y="319.0"/>
      <point x="375.0" y="253.471428571"/>
      <point x="375" y="180" type="curve" smooth="yes"/>
      <point x="375.0" y="123.597122302"/>
      <point x="361.0" y="40.0"/>
      <point x="307" y="40" type="curve" smooth="yes"/>
      <point x="248.0" y="40.0"/>
      <point x="228.0" y="126.248704663"/>
      <point x="228" y="243" type="curve" smooth="yes"/>
      <point x="228.0" y="432.894179894"/>
      <point x="308.592216741" y="575.876768795"/>
      <point x="491" y="631" type="curve"/>
      <point x="491" y="670" type="line"/>
      <point x="207.16029187" y="625.02539836"/>
      <point x="33.0" y="474.662004662"/>
      <point x="33" y="251" type="curve" smooth="yes"/>
      <point x="33.0" y="86.7051792829"/>
      <point x="140.0" y="-10.0"/>
    </contour>
  </outline>
</glyph>
<glyph name="seven" format="1">
  <advance width="600"/>
  <unicode hex="0037"/>
  <outline>
    <contour>
      <point x="126" y="0" type="curve"/>
      <point x="285" y="0" type="line"/>
      <point x="328" y="204"/>
      <point x="432" y="423"/>
      <point x="530" y="610" type="curve"/>
      <point x="530" y="660" type="line"/>
      <point x="60" y="660" type="line"/>
      <point x="60" y="500" type="line"/>
      <point x="446" y="500" type="line"/>
      <point x="495" y="626" type="line"/>
      <point x="348" y="412"/>
      <point x="199.314022527" y="172.739888693"/>
    </contour>
  </outline>
</glyph>
<glyph name="eight" format="1">
  <advance width="600"/>
  <unicode hex="0038"/>
  <outline>
    <contour>
      <point x="292" y="-10" type="curve" smooth="yes"/>
      <point x="460" y="-10"/>
      <point x="560" y="85"/>
      <point x="560" y="192" type="curve" smooth="yes"/>
      <point x="560" y="275"/>
      <point x="510" y="334"/>
      <point x="366" y="404" type="curve" smooth="yes"/>
      <point x="240.497627872" y="464.759084919"/>
      <point x="229" y="500"/>
      <point x="229" y="544" type="curve" smooth="yes"/>
      <point x="229" y="593"/>
      <point x="261.0" y="624.0"/>
      <point x="312" y="624" type="curve" smooth="yes"/>
      <point x="360" y="624"/>
      <point x="399" y="591"/>
      <point x="399" y="519" type="curve" smooth="yes"/>
      <point x="399.0" y="466.0"/>
      <point x="375" y="420"/>
      <point x="343" y="399" type="curve"/>
      <point x="375" y="369" type="line"/>
      <point x="460" y="403"/>
      <point x="529" y="452"/>
      <point x="529" y="515" type="curve" smooth="yes"/>
      <point x="529" y="605"/>
      <point x="431" y="670"/>
      <point x="313" y="670" type="curve" smooth="yes"/>
      <point x="176" y="670"/>
      <point x="65" y="586"/>
      <point x="65" y="482" type="curve" smooth="yes"/>
      <point x="65" y="395"/>
      <point x="97" y="336"/>
      <point x="222" y="272" type="curve" smooth="yes"/>
      <point x="366" y="199"/>
      <point x="385" y="181"/>
      <point x="385" y="124" type="curve" smooth="yes"/>
      <point x="385" y="74"/>
      <point x="350" y="36"/>
      <point x="286" y="36" type="curve" smooth="yes"/>
      <point x="225.0" y="36.0"/>
      <point x="177.0" y="85.8099173554"/>
      <point x="177" y="159" type="curve" smooth="yes"/>
      <point x="177.0" y="220.975609756"/>
      <point x="192.096924369" y="265.048462185"/>
      <point x="222" y="280" type="curve"/>
      <point x="218" y="326" type="line"/>
      <point x="72" y="279"/>
      <point x="40" y="208"/>
      <point x="40" y="150" type="curve" smooth="yes"/>
      <point x="40" y="52"/>
      <point x="148" y="-10"/>
    </contour>
  </outline>
</glyph>
<glyph name="nine" format="1">
  <advance width="600"/>
  <unicode hex="0039"/>
  <outline>
    <contour>
      <point x="109" y="-10" type="line"/>
      <point x="393" y="35"/>
      <point x="567" y="185"/>
      <point x="567" y="409" type="curve" smooth="yes"/>
      <point x="567" y="573"/>
      <point x="460" y="670"/>
      <point x="299" y="670" type="curve" smooth="yes"/>
      <point x="124" y="670"/>
      <point x="33" y="570"/>
      <point x="33" y="449" type="curve" smooth="yes"/>
      <point x="33" y="345"/>
      <point x="98" y="262"/>
      <point x="213" y="262" type="curve" smooth="yes"/>
      <point x="315" y="262"/>
      <point x="384" y="314"/>
      <point x="407" y="412" type="curve"/>
      <point x="397" y="444" type="line"/>
      <point x="382" y="382"/>
      <point x="349" y="341"/>
      <point x="301" y="341" type="curve" smooth="yes"/>
      <point x="246" y="341"/>
      <point x="225" y="407"/>
      <point x="225" y="480" type="curve" smooth="yes"/>
      <point x="225" y="536"/>
      <point x="239" y="620"/>
      <point x="293" y="620" type="curve" smooth="yes"/>
      <point x="352" y="620"/>
      <point x="372" y="534"/>
      <point x="372" y="417" type="curve" smooth="yes"/>
      <point x="372" y="227"/>
      <point x="291" y="84"/>
      <point x="109" y="29" type="curve"/>
    </contour>
  </outline>
</glyph>
<glyph name="less" format="1">
  <advance width="600"/>
  <unicode hex="003C"/>
  <outline>
    <contour>
      <point x="510" y="62" type="line"/>
      <point x="510" y="127" type="line"/>
      <point x="120" y="299" type="line"/>
      <point x="120" y="245" type="line"/>
      <point x="510" y="417" type="line"/>
      <point x="510" y="482" type="line"/>
      <point x="90" y="297" type="line"/>
      <point x="90" y="247" type="line"/>
    </contour>
  </outline>
</glyph>
<glyph name="equal" format="1">
  <advance width="600"/>
  <unicode hex="003D"/>
  <outline>
    <contour>
      <point x="90" y="345" type="line"/>
      <point x="510" y="345" type="line"/>
      <point x="510" y="403" type="line"/>
      <point x="90" y="403" type="line"/>
    </contour>
    <contour>
      <point x="90" y="141" type="line"/>
      <point x="510" y="141" type="line"/>
      <point x="510" y="199" type="line"/>
      <point x="90" y="199" type="line"/>
    </contour>
  </outline>
</glyph>
<glyph name="greater" format="1">
  <advance width="600"/>
  <unicode hex="003E"/>
  <outline>
    <contour>
      <point x="90" y="62" type="line"/>
      <point x="510" y="247" type="line"/>
      <point x="510" y="297" type="line"/>
      <point x="90" y="482" type="line"/>
      <point x="90" y="417" type="line"/>
      <point x="480" y="245" type="line"/>
      <point x="480" y="299" type="line"/>
      <point x="90" y="127" type="line"/>
    </contour>
  </outline>
</glyph>
<glyph name="question" format="2">
  <advance width="479"/>
  <unicode hex="003F"/>
  <outline>
    <contour>
      <point x="192" y="230" type="line"/>
      <point x="231" y="230" type="line"/>
      <point x="252" y="325" type="line"/>
      <point x="215" y="302" type="line"/>
      <point x="364.999617002" y="303.999994893"/>
      <point x="457" y="386"/>
      <point x="457" y="493" type="curve" smooth="yes"/>
      <point x="457" y="596"/>
      <point x="383" y="670"/>
      <point x="247" y="670" type="curve" smooth="yes"/>
      <point x="120" y="670"/>
      <point x="22" y="587"/>
      <point x="22" y="509" type="curve" smooth="yes"/>
      <point x="22" y="485"/>
      <point x="30" y="476"/>
      <point x="52" y="476" type="curve" smooth="yes"/>
      <point x="158" y="476" type="line"/>
      <point x="158" y="639" type="line"/>
      <point x="106" y="562" type="line"/>
      <point x="132" y="601"/>
      <point x="172" y="620"/>
      <point x="222" y="620" type="curve" smooth="yes"/>
      <point x="288" y="620"/>
      <point x="317" y="581"/>
      <point x="317" y="526" type="curve" smooth="yes"/>
      <point x="317" y="453"/>
      <point x="267.990248102" y="403.999564647"/>
      <point x="156" y="399" type="curve"/>
    </contour>
    <contour>
      <point x="209" y="-5" type="curve" smooth="yes"/>
      <point x="254" y="-5"/>
      <point x="292" y="33"/>
      <point x="292" y="78" type="curve" smooth="yes"/>
      <point x="292" y="123"/>
      <point x="254" y="161"/>
      <point x="209" y="161" type="curve" smooth="yes"/>
      <point x="164" y="161"/>
      <point x="126" y="123"/>
      <point x="126" y="78" type="curve" smooth="yes"/>
      <point x="126" y="33"/>
      <point x="164" y="-5"/>
    </contour>
  </outline>
</glyph>
<glyph name="at" format="1">
  <advance width="804"/>
  <unicode hex="0040"/>
  <outline>
    <contour>
      <point x="366" y="-118" type="curve" smooth="yes"/>
      <point x="473" y="-118"/>
      <point x="543" y="-94"/>
      <point x="613" y="-50" type="curve"/>
      <point x="601" y="-27" type="line"/>
      <point x="545" y="-63"/>
      <point x="480" y="-82"/>
      <point x="393" y="-82" type="curve" smooth="yes"/>
      <point x="240" y="-82"/>
      <point x="134" y="17"/>
      <point x="134" y="186" type="curve" smooth="yes"/>
      <point x="134" y="376"/>
      <point x="251" y="529"/>
      <point x="432" y="529" type="curve" smooth="yes"/>
      <point x="594" y="529"/>
      <point x="699" y="420"/>
      <point x="699" y="281" type="curve" smooth="yes"/>
      <point x="699" y="181"/>
      <point x="648" y="79"/>
      <point x="587" y="79" type="curve" smooth="yes"/>
      <point x="564" y="79"/>
      <point x="557" y="93"/>
      <point x="564" y="133" type="curve" smooth="yes"/>
      <point x="615" y="420" type="line"/>
      <point x="601" y="420" type="line"/>
      <point x="523" y="398" type="line"/>
      <point x="553" y="400" type="line"/>
      <point x="536" y="419"/>
      <point x="509" y="429"/>
      <point x="473" y="429" type="curve" smooth="yes"/>
      <point x="351" y="429"/>
      <point x="203" y="305"/>
      <point x="203" y="127" type="curve" smooth="yes"/>
      <point x="203" y="60"/>
      <point x="237" y="21"/>
      <point x="284" y="21" type="curve" smooth="yes"/>
      <point x="341" y="21"/>
      <point x="375" y="46"/>
      <point x="434" y="124" type="curve"/>
      <point x="439" y="165" type="line"/>
      <point x="415" y="134"/>
      <point x="397" y="113"/>
      <point x="374" y="113" type="curve" smooth="yes"/>
      <point x="355" y="113"/>
      <point x="347" y="133"/>
      <point x="347" y="181" type="curve" smooth="yes"/>
      <point x="347" y="290"/>
      <point x="386" y="386"/>
      <point x="439" y="386" type="curve" smooth="yes"/>
      <point x="455" y="386"/>
      <point x="468" y="381"/>
      <point x="477" y="371" type="curve"/>
      <point x="470" y="381" type="line"/>
      <point x="432" y="157" type="line" smooth="yes"/>
      <point x="416" y="66"/>
      <point x="450" y="21"/>
      <point x="517" y="21" type="curve" smooth="yes"/>
      <point x="664" y="21"/>
      <point x="754" y="156"/>
      <point x="754" y="284" type="curve" smooth="yes"/>
      <point x="754" y="445"/>
      <point x="638" y="562"/>
      <point x="454" y="562" type="curve" smooth="yes"/>
      <point x="230" y="562"/>
      <point x="50" y="382"/>
      <point x="50" y="169" type="curve" smooth="yes"/>
      <point x="50" y="-4"/>
      <point x="178" y="-118"/>
    </contour>
  </outline>
</glyph>
<glyph name="A" format="1">
  <advance width="790"/>
  <unicode hex="0041"/>
  <outline>
    <contour>
      <point x="10" y="0" type="line"/>
      <point x="227" y="0" type="line"/>
      <point x="227" y="16" type="line"/>
      <point x="125" y="62" type="line"/>
      <point x="134" y="28" type="line"/>
      <point x="348" y="539" type="line"/>
      <point x="303" y="539" type="line"/>
      <point x="517" y="28" type="line"/>
      <point x="529" y="63" type="line"/>
      <point x="420" y="16" type="line"/>
      <point x="420" y="0" type="line"/>
      <point x="780" y="0" type="line"/>
      <point x="780" y="16" type="line"/>
      <point x="686" y="64" type="line"/>
      <point x="721" y="28" type="line"/>
      <point x="449" y="665" type="line"/>
      <point x="334" y="665" type="line"/>
      <point x="59" y="28" type="line"/>
      <point x="88" y="62" type="line"/>
      <point x="10" y="16" type="line"/>
    </contour>
    <contour>
      <point x="178" y="207" type="line"/>
      <point x="568" y="207" type="line"/>
      <point x="568" y="262" type="line"/>
      <point x="178" y="262" type="line"/>
    </contour>
    <contour>
      <point x="650.0" y="0.0" type="move" name="right"/>
    </contour>
    <contour>
      <point x="339" y="0" type="move" name="bottom"/>
    </contour>
    <contour>
      <point x="392.0" y="710.0" type="move" name="top"/>
    </contour>
  </outline>
</glyph>
<glyph name="B" format="1">
  <advance width="737"/>
  <unicode hex="0042"/>
  <outline>
    <contour>
      <point x="30" y="0" type="line"/>
      <point x="309" y="0" type="line"/>
      <point x="309" y="660" type="line"/>
      <point x="30" y="660" type="line"/>
      <point x="30" y="644" type="line"/>
      <point x="119" y="602" type="line"/>
      <point x="119" y="58" type="line"/>
      <point x="30" y="16" type="line"/>
    </contour>
    <contour>
      <point x="418" y="0" type="line" smooth="yes"/>
      <point x="590" y="0"/>
      <point x="717" y="82"/>
      <point x="717" y="192" type="curve" smooth="yes"/>
      <point x="717" y="298"/>
      <point x="596" y="363"/>
      <point x="407" y="363" type="curve"/>
      <point x="407" y="348" type="line"/>
      <point x="564" y="348"/>
      <point x="656" y="426"/>
      <point x="656" y="512" type="curve" smooth="yes"/>
      <point x="656" y="611"/>
      <point x="543" y="660"/>
      <point x="393" y="660" type="curve" smooth="yes"/>
      <point x="227" y="660" type="line"/>
      <point x="227" y="605" type="line"/>
      <point x="327" y="605" type="line" smooth="yes"/>
      <point x="420" y="605"/>
      <point x="466" y="561"/>
      <point x="466" y="480" type="curve" smooth="yes"/>
      <point x="466" y="409"/>
      <point x="416" y="363"/>
      <point x="332" y="363" type="curve" smooth="yes"/>
      <point x="227" y="363" type="line"/>
      <point x="227" y="318" type="line"/>
      <point x="360" y="318" type="line" smooth="yes"/>
      <point x="460" y="318"/>
      <point x="516" y="275"/>
      <point x="516" y="189" type="curve" smooth="yes"/>
      <point x="516" y="112"/>
      <point x="459" y="55"/>
      <point x="367" y="55" type="curve" smooth="yes"/>
      <point x="227" y="55" type="line"/>
      <point x="227" y="0" type="line"/>
    </contour>
  </outline>
</glyph>
<glyph name="C" format="1">
  <advance width="701"/>
  <unicode hex="0043"/>
  <outline>
    <contour>
      <point x="398" y="-10" type="curve" smooth="yes"/>
      <point x="486" y="-10"/>
      <point x="578" y="10"/>
      <point x="629" y="44" type="curve"/>
      <point x="646" y="219" type="line"/>
      <point x="628" y="219" type="line"/>
      <point x="505" y="51" type="line"/>
      <point x="541" y="82" type="line"/>
      <point x="500" y="54"/>
      <point x="462" y="45"/>
      <point x="420" y="45" type="curve" smooth="yes"/>
      <point x="312" y="45"/>
      <point x="234" y="150"/>
      <point x="234" y="316" type="curve" smooth="yes"/>
      <point x="234" y="503"/>
      <point x="317" y="620"/>
      <point x="424" y="620" type="curve" smooth="yes"/>
      <point x="470" y="620"/>
      <point x="492" y="612"/>
      <point x="524" y="591" type="curve"/>
      <point x="495" y="615" type="line"/>
      <point x="621" y="428" type="line"/>
      <point x="639" y="428" type="line"/>
      <point x="624" y="622" type="line"/>
      <point x="566" y="650"/>
      <point x="523" y="670"/>
      <point x="415" y="670" type="curve" smooth="yes"/>
      <point x="222" y="670"/>
      <point x="35" y="524"/>
      <point x="35" y="319" type="curve" smooth="yes"/>
      <point x="35" y="133"/>
      <point x="185" y="-10"/>
    </contour>
    <contour>
      <point x="393" y="710" type="move" name="top"/>
    </contour>
    <contour>
      <point x="396" y="0" type="move" name="bottom"/>
    </contour>
  </outline>
</glyph>
<glyph name="D" format="1">
  <advance width="820"/>
  <unicode hex="0044"/>
  <outline>
    <contour>
      <point x="30" y="0" type="line"/>
      <point x="309" y="0" type="line"/>
      <point x="309" y="660" type="line"/>
      <point x="30" y="660" type="line"/>
      <point x="30" y="644" type="line"/>
      <point x="119" y="602" type="line"/>
      <point x="119" y="58" type="line"/>
      <point x="30" y="16" type="line"/>
    </contour>
    <contour>
      <point x="395" y="0" type="line" smooth="yes"/>
      <point x="624" y="0"/>
      <point x="790" y="152"/>
      <point x="790" y="360" type="curve" smooth="yes"/>
      <point x="790" y="532"/>
      <point x="649" y="660"/>
      <point x="402" y="660" type="curve" smooth="yes"/>
      <point x="256" y="660" type="line"/>
      <point x="256" y="605" type="line"/>
      <point x="349" y="605" type="line" smooth="yes"/>
      <point x="514" y="605"/>
      <point x="594" y="498"/>
      <point x="594" y="329" type="curve" smooth="yes"/>
      <point x="594" y="162"/>
      <point x="514" y="55"/>
      <point x="364" y="55" type="curve" smooth="yes"/>
      <point x="284" y="55" type="line"/>
      <point x="284" y="0" type="line"/>
    </contour>
    <contour>
      <point x="393" y="710" type="move" name="top"/>
    </contour>
    <contour>
      <point x="413" y="0" type="move" name="bottom"/>
    </contour>
  </outline>
</glyph>
<glyph name="E" format="1">
  <advance width="700.0"/>
  <unicode hex="0045"/>
  <outline>
    <contour>
      <point x="30" y="0" type="line"/>
      <point x="309" y="0" type="line"/>
      <point x="309" y="660" type="line"/>
      <point x="30" y="660" type="line"/>
      <point x="30" y="644" type="line"/>
      <point x="119" y="602" type="line"/>
      <point x="119" y="58" type="line"/>
      <point x="30" y="16" type="line"/>
    </contour>
    <contour>
      <point x="596" y="486" type="line"/>
      <point x="612" y="486" type="line"/>
      <point x="612" y="660" type="line"/>
      <point x="207" y="660" type="line"/>
      <point x="207" y="605" type="line"/>
      <point x="514" y="605" type="line"/>
    </contour>
    <contour>
      <point x="513" y="227" type="line"/>
      <point x="529" y="227" type="line"/>
      <point x="529" y="456" type="line"/>
      <point x="513" y="456" type="line"/>
      <point x="453" y="368" type="line"/>
      <point x="215" y="368" type="line"/>
      <point x="215" y="313" type="line"/>
      <point x="453" y="313" type="line"/>
    </contour>
    <contour>
      <point x="640" y="0" type="line"/>
      <point x="640" y="219" type="line"/>
      <point x="624" y="219" type="line"/>
      <point x="535" y="55" type="line"/>
      <point x="235" y="55" type="line"/>
      <point x="235" y="0" type="line"/>
    </contour>
    <contour>
      <point x="366.0" y="710.0" type="move" name="top"/>
    </contour>
    <contour>
      <point x="569" y="0" type="move" name="right"/>
    </contour>
    <contour>
      <point x="366.0" y="0.0" type="move" name="bottom"/>
    </contour>
  </outline>
</glyph>
<glyph name="G" format="1">
  <advance width="749"/>
  <unicode hex="0047"/>
  <outline>
    <contour>
      <point x="390" y="-10" type="curve" smooth="yes"/>
      <point x="476" y="-10"/>
      <point x="592" y="23"/>
      <point x="653" y="74" type="curve"/>
      <point x="653" y="239" type="line"/>
      <point x="732" y="291" type="line"/>
      <point x="732" y="307" type="line"/>
      <point x="374" y="307" type="line"/>
      <point x="374" y="291" type="line"/>
      <point x="463" y="239" type="line"/>
      <point x="463" y="22" type="line"/>
      <point x="575" y="77" type="line"/>
      <point x="530" y="53"/>
      <point x="461" y="43"/>
      <point x="419" y="43" type="curve" smooth="yes"/>
      <point x="317" y="43"/>
      <point x="236.0" y="149.675889328"/>
      <point x="236" y="316" type="curve" smooth="yes"/>
      <point x="236.0" y="503.328671329"/>
      <point x="329" y="622"/>
      <point x="436" y="622" type="curve" smooth="yes"/>
      <point x="482" y="622"/>
      <point x="514" y="614"/>
      <point x="546" y="593" type="curve"/>
      <point x="517" y="617" type="line"/>
      <point x="642" y="439" type="line"/>
      <point x="661" y="439" type="line"/>
      <point x="646" y="622" type="line"/>
      <point x="588" y="650"/>
      <point x="535" y="670"/>
      <point x="427" y="670" type="curve" smooth="yes"/>
      <point x="224" y="670"/>
      <point x="37" y="524"/>
      <point x="37" y="319" type="curve" smooth="yes"/>
      <point x="37" y="133"/>
      <point x="198" y="-10"/>
    </contour>
    <contour>
      <point x="405" y="0" type="move" name="bottom"/>
    </contour>
    <contour>
      <point x="406" y="710" type="move" name="top"/>
    </contour>
  </outline>
</glyph>
<glyph name="H" format="2">
  <advance width="852"/>
  <unicode hex="0048"/>
  <anchor x="426" y="710" name="top"/>
  <anchor x="426" y="0" name="bottom"/>
  <outline>
    <contour>
      <point x="30" y="0" type="line"/>
      <point x="386" y="0" type="line"/>
      <point x="386" y="16" type="line"/>
      <point x="309" y="58" type="line"/>
      <point x="309" y="602" type="line"/>
      <point x="386" y="644" type="line"/>
      <point x="386" y="660" type="line"/>
      <point x="30" y="660" type="line"/>
      <point x="30" y="644" type="line"/>
      <point x="119" y="602" type="line"/>
      <point x="119" y="58" type="line"/>
      <point x="30" y="16" type="line"/>
    </contour>
    <contour>
      <point x="215" y="312" type="line"/>
      <point x="645" y="312" type="line"/>
      <point x="645" y="367" type="line"/>
      <point x="215" y="367" type="line"/>
    </contour>
    <contour>
      <point x="466" y="0" type="line"/>
      <point x="822" y="0" type="line"/>
      <point x="822" y="16" type="line"/>
      <point x="735" y="58" type="line"/>
      <point x="735" y="602" type="line"/>
      <point x="822" y="644" type="line"/>
      <point x="822" y="660" type="line"/>
      <point x="466" y="660" type="line"/>
      <point x="466" y="644" type="line"/>
      <point x="545" y="602" type="line"/>
      <point x="545" y="58" type="line"/>
      <point x="466" y="16" type="line"/>
    </contour>
  </outline>
</glyph>
<glyph name="I" format="1">
  <advance width="428"/>
  <unicode hex="0049"/>
  <outline>
    <contour>
      <point x="30" y="0" type="line"/>
      <point x="398" y="0" type="line"/>
      <point x="398" y="16" type="line"/>
      <point x="309" y="58" type="line"/>
      <point x="309" y="602" type="line"/>
      <point x="398" y="644" type="line"/>
      <point x="398" y="660" type="line"/>
      <point x="30" y="660" type="line"/>
      <point x="30" y="644" type="line"/>
      <point x="119" y="602" type="line"/>
      <point x="119" y="58" type="line"/>
      <point x="30" y="16" type="line"/>
    </contour>
    <contour>
      <point x="214" y="710.0" type="move" name="top"/>
    </contour>
    <contour>
      <point x="214" y="0" type="move" name="bottom"/>
    </contour>
    <contour>
      <point x="241" y="0" type="move" name="right"/>
    </contour>
  </outline>
</glyph>
<glyph name="J" format="2">
  <advance width="459"/>
  <unicode hex="004A"/>
  <anchor x="245.0" y="710.0" name="top"/>
  <outline>
    <contour>
      <point x="66" y="-173" type="curve" smooth="yes"/>
      <point x="105" y="-173"/>
      <point x="153" y="-145"/>
      <point x="229" y="-45" type="curve" smooth="yes"/>
      <point x="305" y="55"/>
      <point x="340" y="152"/>
      <point x="340" y="249" type="curve" smooth="yes"/>
      <point x="340" y="602" type="line"/>
      <point x="429" y="644" type="line"/>
      <point x="429" y="660" type="line"/>
      <point x="61" y="660" type="line"/>
      <point x="61" y="644" type="line"/>
      <point x="150" y="602" type="line"/>
      <point x="150" y="49" type="line" smooth="yes"/>
      <point x="150" y="-37"/>
      <point x="137" y="-64"/>
      <point x="90" y="-110" type="curve"/>
      <point x="164" y="-80" type="line"/>
      <point x="30" y="-52" type="line"/>
      <point x="14" y="-117" type="line" smooth="yes"/>
      <point x="12" y="-124"/>
      <point x="11" y="-129"/>
      <point x="11" y="-133" type="curve" smooth="yes"/>
      <point x="11" y="-157"/>
      <point x="32" y="-173"/>
    </contour>
  </outline>
</glyph>
<glyph name="L" format="2">
  <advance width="660"/>
  <unicode hex="004C"/>
  <anchor x="214" y="710" name="top"/>
  <anchor x="520" y="660" name="right"/>
  <anchor x="540" y="355" name="mid"/>
  <anchor x="362" y="0" name="bottom"/>
  <outline>
    <contour>
      <point x="30" y="0" type="line"/>
      <point x="620" y="0" type="line"/>
      <point x="620" y="259" type="line"/>
      <point x="604" y="259" type="line"/>
      <point x="514" y="55" type="line"/>
      <point x="309" y="55" type="line"/>
      <point x="309" y="602" type="line"/>
      <point x="408" y="644" type="line"/>
      <point x="408" y="660" type="line"/>
      <point x="30" y="660" type="line"/>
      <point x="30" y="644" type="line"/>
      <point x="119" y="602" type="line"/>
      <point x="119" y="58" type="line"/>
      <point x="30" y="16" type="line"/>
    </contour>
  </outline>
</glyph>
<glyph name="M" format="1">
  <advance width="1019"/>
  <unicode hex="004D"/>
  <outline>
    <contour>
      <point x="30" y="0" type="line"/>
      <point x="281" y="0" type="line"/>
      <point x="281" y="16" type="line"/>
      <point x="190" y="57" type="line"/>
      <point x="206" y="642" type="line"/>
      <point x="141" y="642" type="line"/>
      <point x="119" y="58" type="line"/>
      <point x="30" y="16" type="line"/>
    </contour>
    <contour>
      <point x="429" y="-5" type="line"/>
      <point x="493" y="-5" type="line"/>
      <point x="746" y="595" type="line"/>
      <point x="825" y="595" type="line"/>
      <point x="981" y="644" type="line"/>
      <point x="981" y="660" type="line"/>
      <point x="700" y="660" type="line"/>
      <point x="502" y="189" type="line"/>
      <point x="543" y="189" type="line"/>
      <point x="339" y="660" type="line"/>
      <point x="51" y="660" type="line"/>
      <point x="51" y="644" type="line"/>
      <point x="157" y="595" type="line"/>
      <point x="171" y="595" type="line"/>
    </contour>
    <contour>
      <point x="639" y="0" type="line"/>
      <point x="989" y="0" type="line"/>
      <point x="989" y="16" type="line"/>
      <point x="909" y="58" type="line"/>
      <point x="891" y="642" type="line"/>
      <point x="711" y="642" type="line"/>
      <point x="723" y="57" type="line"/>
      <point x="639" y="16" type="line"/>
    </contour>
    <contour>
      <point x="461.0" y="0.0" type="move" name="bottom"/>
    </contour>
  </outline>
</glyph>
<glyph name="N" format="1">
  <advance width="827"/>
  <unicode hex="004E"/>
  <outline>
    <contour>
      <point x="30" y="0" type="line"/>
      <point x="312" y="0" type="line"/>
      <point x="312" y="16" type="line"/>
      <point x="189" y="58" type="line"/>
      <point x="189" y="493" type="line"/>
      <point x="150" y="493" type="line"/>
      <point x="631" y="-5" type="line"/>
      <point x="710" y="-5" type="line"/>
      <point x="710" y="602" type="line"/>
      <point x="797" y="644" type="line"/>
      <point x="797" y="660" type="line"/>
      <point x="517" y="660" type="line"/>
      <point x="517" y="644" type="line"/>
      <point x="640" y="602" type="line"/>
      <point x="640" y="187" type="line"/>
      <point x="698" y="187" type="line"/>
      <point x="247" y="660" type="line"/>
      <point x="30" y="660" type="line"/>
      <point x="30" y="644" type="line"/>
      <point x="119" y="602" type="line"/>
      <point x="119" y="58" type="line"/>
      <point x="30" y="16" type="line"/>
    </contour>
    <contour>
      <point x="414" y="0.0" type="move" name="bottom"/>
    </contour>
    <contour>
      <point x="415" y="710" type="move" name="top"/>
    </contour>
  </outline>
</glyph>
<glyph name="O" format="1">
  <advance width="777"/>
  <unicode hex="004F"/>
  <outline>
    <contour>
      <point x="388" y="-10" type="curve" smooth="yes"/>
      <point x="591" y="-10"/>
      <point x="742" y="134"/>
      <point x="742" y="330" type="curve" smooth="yes"/>
      <point x="742" y="526"/>
      <point x="591" y="670"/>
      <point x="388" y="670" type="curve" smooth="yes"/>
      <point x="186" y="670"/>
      <point x="35" y="526"/>
      <point x="35" y="330" type="curve" smooth="yes"/>
      <point x="35" y="134"/>
      <point x="186" y="-10"/>
    </contour>
    <contour>
      <point x="401" y="43" type="curve" smooth="yes"/>
      <point x="309" y="43"/>
      <point x="235" y="169"/>
      <point x="235" y="361" type="curve" smooth="yes"/>
      <point x="235" y="518"/>
      <point x="296" y="618"/>
      <point x="377" y="618" type="curve" smooth="yes"/>
      <point x="470" y="618"/>
      <point x="542" y="493"/>
      <point x="542" y="301" type="curve" smooth="yes"/>
      <point x="542" y="144"/>
      <point x="485" y="43"/>
    </contour>
    <contour>
      <point x="389" y="710" type="move" name="top"/>
    </contour>
    <contour>
      <point x="423" y="0" type="move" name="right"/>
    </contour>
    <contour>
      <point x="389" y="0" type="move" name="bottom"/>
    </contour>
  </outline>
</glyph>
<glyph name="P" format="1">
  <advance width="713"/>
  <unicode hex="0050"/>
  <outline>
    <contour>
      <point x="30" y="0" type="line"/>
      <point x="419" y="0" type="line"/>
      <point x="419" y="16" type="line"/>
      <point x="309" y="58" type="line"/>
      <point x="309" y="605" type="line"/>
      <point x="327" y="605" type="line" smooth="yes"/>
      <point x="440" y="605"/>
      <point x="503" y="566"/>
      <point x="503" y="473" type="curve" smooth="yes"/>
      <point x="503" y="398"/>
      <point x="439" y="341"/>
      <point x="334" y="341" type="curve" smooth="yes"/>
      <point x="284" y="341" type="line"/>
      <point x="284" y="296" type="line"/>
      <point x="408" y="296" type="line" smooth="yes"/>
      <point x="571" y="296"/>
      <point x="693" y="368"/>
      <point x="693" y="483" type="curve" smooth="yes"/>
      <point x="693" y="607"/>
      <point x="589" y="660"/>
      <point x="432" y="660" type="curve" smooth="yes"/>
      <point x="30" y="660" type="line"/>
      <point x="30" y="644" type="line"/>
      <point x="119" y="602" type="line"/>
      <point x="119" y="58" type="line"/>
      <point x="30" y="16" type="line"/>
    </contour>
  </outline>
</glyph>
<glyph name="Q" format="1">
  <advance width="777"/>
  <unicode hex="0051"/>
  <outline>
    <contour>
      <point x="388" y="-10" type="curve" smooth="yes"/>
      <point x="591" y="-10"/>
      <point x="742" y="134"/>
      <point x="742" y="330" type="curve" smooth="yes"/>
      <point x="742" y="526"/>
      <point x="591" y="670"/>
      <point x="388" y="670" type="curve" smooth="yes"/>
      <point x="186" y="670"/>
      <point x="35" y="526"/>
      <point x="35" y="330" type="curve" smooth="yes"/>
      <point x="35" y="134"/>
      <point x="186" y="-10"/>
    </contour>
    <contour>
      <point x="401" y="43" type="curve" smooth="yes"/>
      <point x="309" y="43"/>
      <point x="235" y="169"/>
      <point x="235" y="361" type="curve" smooth="yes"/>
      <point x="235" y="518"/>
      <point x="296" y="618"/>
      <point x="377" y="618" type="curve" smooth="yes"/>
      <point x="470" y="618"/>
      <point x="542" y="493"/>
      <point x="542" y="301" type="curve" smooth="yes"/>
      <point x="542" y="144"/>
      <point x="485" y="43"/>
    </contour>
    <contour>
      <point x="689" y="-159" type="curve" smooth="yes"/>
      <point x="748.764705882" y="-159.0"/>
      <point x="786.594581507" y="-146.195719273"/>
      <point x="816" y="-132" type="curve"/>
      <point x="816" y="-104" type="line"/>
      <point x="801" y="-108"/>
      <point x="780" y="-114"/>
      <point x="748" y="-114" type="curve" smooth="yes"/>
      <point x="694" y="-114"/>
      <point x="623" y="-86"/>
      <point x="510" y="16" type="curve"/>
      <point x="293" y="16" type="line"/>
      <point x="460.505307086" y="-116.60836811"/>
      <point x="579.217821782" y="-159.0"/>
    </contour>
  </outline>
</glyph>
<glyph name="R" format="1">
  <advance width="770"/>
  <unicode hex="0052"/>
  <outline>
    <contour>
      <point x="30" y="0" type="line"/>
      <point x="384" y="0" type="line"/>
      <point x="384" y="16" type="line"/>
      <point x="309" y="59" type="line"/>
      <point x="309" y="660" type="line"/>
      <point x="30" y="660" type="line"/>
      <point x="30" y="644" type="line"/>
      <point x="119" y="602" type="line"/>
      <point x="119" y="58" type="line"/>
      <point x="30" y="16" type="line"/>
    </contour>
    <contour>
      <point x="653" y="497" type="curve" smooth="yes"/>
      <point x="653" y="598"/>
      <point x="567" y="660"/>
      <point x="427" y="660" type="curve" smooth="yes"/>
      <point x="256" y="660" type="line"/>
      <point x="256" y="605" type="line"/>
      <point x="333" y="605" type="line" smooth="yes"/>
      <point x="423.0" y="605"/>
      <point x="466.0" y="560.465517241"/>
      <point x="466" y="479" type="curve" smooth="yes"/>
      <point x="466.0" y="402.983471074"/>
      <point x="419.0" y="353"/>
      <point x="339" y="353" type="curve" smooth="yes"/>
      <point x="264" y="353" type="line"/>
      <point x="264" y="308" type="line"/>
      <point x="398" y="308" type="line"/>
      <point x="414" y="319" type="line"/>
      <point x="551" y="342"/>
      <point x="653" y="394"/>
    </contour>
    <contour>
      <point x="516" y="0" type="line"/>
      <point x="780" y="0" type="line"/>
      <point x="780" y="16" type="line"/>
      <point x="704" y="59" type="line"/>
      <point x="512" y="361" type="line"/>
      <point x="321" y="336" type="line"/>
    </contour>
    <contour>
      <point x="357" y="710" type="move" name="top"/>
    </contour>
    <contour>
      <point x="428" y="0" type="move" name="bottom"/>
    </contour>
  </outline>
</glyph>
<glyph name="S" format="1">
  <advance width="599"/>
  <unicode hex="0053"/>
  <outline>
    <contour>
      <point x="276" y="-10" type="curve" smooth="yes"/>
      <point x="425" y="-10"/>
      <point x="555" y="71"/>
      <point x="555" y="203" type="curve" smooth="yes"/>
      <point x="555.0" y="295.82"/>
      <point x="499.630538887" y="354.160503598"/>
      <point x="378" y="407" type="curve" smooth="yes"/>
      <point x="275.418728105" y="452.256443483"/>
      <point x="244.0" y="479.580645161"/>
      <point x="244" y="527" type="curve" smooth="yes"/>
      <point x="244.0" y="581.870588235"/>
      <point x="282.0" y="615.0"/>
      <point x="334" y="615" type="curve" smooth="yes"/>
      <point x="381" y="615"/>
      <point x="414" y="596"/>
      <point x="451" y="564" type="curve"/>
      <point x="410" y="611" type="line"/>
      <point x="516" y="462" type="line"/>
      <point x="534" y="462" type="line"/>
      <point x="524" y="622" type="line"/>
      <point x="471.380827072" y="652.207302977"/>
      <point x="398" y="670"/>
      <point x="326" y="670" type="curve" smooth="yes"/>
      <point x="195" y="670"/>
      <point x="60" y="576"/>
      <point x="60" y="455" type="curve" smooth="yes"/>
      <point x="60.0" y="372.752808989"/>
      <point x="112.219461688" y="310.909905202"/>
      <point x="207" y="272" type="curve" smooth="yes"/>
      <point x="348.478428666" y="212.799806445"/>
      <point x="375.0" y="191.943262411"/>
      <point x="375" y="136" type="curve" smooth="yes"/>
      <point x="375.0" y="71.9101123596"/>
      <point x="323.0" y="44.0"/>
      <point x="255" y="44" type="curve" smooth="yes"/>
      <point x="207" y="44"/>
      <point x="159" y="66"/>
      <point x="132" y="93" type="curve"/>
      <point x="158" y="62" type="line"/>
      <point x="58" y="217" type="line"/>
      <point x="39" y="217" type="line"/>
      <point x="49" y="44" type="line"/>
      <point x="113" y="11"/>
      <point x="184" y="-10"/>
    </contour>
    <contour>
      <point x="318" y="710" type="move" name="top"/>
    </contour>
    <contour>
      <point x="297" y="0" type="move" name="bottom"/>
    </contour>
  </outline>
</glyph>
<glyph name="T" format="1">
  <advance width="718"/>
  <unicode hex="0054"/>
  <outline>
    <contour>
      <point x="154" y="0" type="line"/>
      <point x="564" y="0" type="line"/>
      <point x="564" y="16" type="line"/>
      <point x="454" y="58" type="line"/>
      <point x="454" y="605" type="line"/>
      <point x="584" y="605" type="line"/>
      <point x="672" y="429" type="line"/>
      <point x="688" y="429" type="line"/>
      <point x="688" y="660" type="line"/>
      <point x="30" y="660" type="line"/>
      <point x="30" y="429" type="line"/>
      <point x="46" y="429" type="line"/>
      <point x="134" y="605" type="line"/>
      <point x="264" y="605" type="line"/>
      <point x="264" y="58" type="line"/>
      <point x="154" y="16" type="line"/>
    </contour>
    <contour>
      <point x="359" y="710.0" type="move" name="top"/>
    </contour>
    <contour>
      <point x="359" y="0.0" type="move" name="bottom"/>
    </contour>
  </outline>
</glyph>
<glyph name="U" format="1">
  <advance width="856"/>
  <unicode hex="0055"/>
  <outline>
    <contour>
      <point x="435" y="-10" type="curve" smooth="yes"/>
      <point x="617.75" y="-10.0"/>
      <point x="736" y="66"/>
      <point x="736" y="302" type="curve" smooth="yes"/>
      <point x="736" y="603" type="line"/>
      <point x="826" y="644" type="line"/>
      <point x="826" y="660" type="line"/>
      <point x="576" y="660" type="line"/>
      <point x="576" y="644" type="line"/>
      <point x="666" y="604" type="line"/>
      <point x="666" y="255" type="line" smooth="yes"/>
      <point x="666" y="124"/>
      <point x="586" y="76"/>
      <point x="498" y="76" type="curve" smooth="yes"/>
      <point x="395" y="76"/>
      <point x="310" y="127"/>
      <point x="310" y="290" type="curve" smooth="yes"/>
      <point x="310" y="602" type="line"/>
      <point x="400" y="644" type="line"/>
      <point x="400" y="660" type="line"/>
      <point x="30" y="660" type="line"/>
      <point x="30" y="644" type="line"/>
      <point x="120" y="602" type="line"/>
      <point x="120" y="302" type="line" smooth="yes"/>
      <point x="120" y="66"/>
      <point x="244.772727273" y="-10.0"/>
    </contour>
    <contour>
      <point x="483.0" y="710.0" type="move" name="top"/>
    </contour>
    <contour>
      <point x="468" y="0" type="move" name="bottom"/>
    </contour>
    <contour>
      <point x="479" y="0" type="move" name="right"/>
    </contour>
  </outline>
</glyph>
<glyph name="V" format="1">
  <advance width="780"/>
  <unicode hex="0056"/>
  <outline>
    <contour>
      <point x="356" y="-5" type="line"/>
      <point x="429" y="-5" type="line"/>
      <point x="720" y="632" type="line"/>
      <point x="680" y="594" type="line"/>
      <point x="769" y="644" type="line"/>
      <point x="769" y="660" type="line"/>
      <point x="552" y="660" type="line"/>
      <point x="552" y="644" type="line"/>
      <point x="654" y="594" type="line"/>
      <point x="645" y="632" type="line"/>
      <point x="435" y="168" type="line"/>
      <point x="486" y="229" type="line"/>
      <point x="431" y="229" type="line"/>
      <point x="482" y="168" type="line"/>
      <point x="272" y="632" type="line"/>
      <point x="260" y="594" type="line"/>
      <point x="361" y="644" type="line"/>
      <point x="361" y="660" type="line"/>
      <point x="9" y="660" type="line"/>
      <point x="9" y="644" type="line"/>
      <point x="118" y="581" type="line"/>
      <point x="68" y="632" type="line"/>
    </contour>
  </outline>
</glyph>
<glyph name="W" format="1">
  <advance width="1081"/>
  <unicode hex="0057"/>
  <outline>
    <contour>
      <point x="285" y="-5" type="line"/>
      <point x="358" y="-5" type="line"/>
      <point x="575" y="477" type="line"/>
      <point x="518" y="410" type="line"/>
      <point x="576" y="410" type="line"/>
      <point x="523" y="477" type="line"/>
      <point x="729" y="-5" type="line"/>
      <point x="802" y="-5" type="line"/>
      <point x="1011" y="632" type="line"/>
      <point x="973" y="594" type="line"/>
      <point x="1071" y="644" type="line"/>
      <point x="1071" y="660" type="line"/>
      <point x="843" y="660" type="line"/>
      <point x="843" y="644" type="line"/>
      <point x="953" y="594" type="line"/>
      <point x="936" y="632" type="line"/>
      <point x="790" y="162" type="line"/>
      <point x="843" y="252" type="line"/>
      <point x="789" y="252" type="line"/>
      <point x="848" y="162" type="line"/>
      <point x="642" y="665" type="line"/>
      <point x="569" y="665" type="line"/>
      <point x="359" y="164" type="line"/>
      <point x="424" y="252" type="line"/>
      <point x="364" y="252" type="line"/>
      <point x="416" y="164" type="line"/>
      <point x="272" y="632" type="line"/>
      <point x="245" y="589" type="line"/>
      <point x="364" y="644" type="line"/>
      <point x="364" y="660" type="line"/>
      <point x="10" y="660" type="line"/>
      <point x="10" y="644" type="line"/>
      <point x="119" y="583" type="line"/>
      <point x="78" y="632" type="line"/>
    </contour>
    <contour>
      <point x="606.0" y="710.0" type="move" name="top"/>
    </contour>
  </outline>
</glyph>
<glyph name="X" format="1">
  <advance width="806"/>
  <unicode hex="0058"/>
  <outline>
    <contour>
      <point x="399" y="0" type="line"/>
      <point x="786" y="0" type="line"/>
      <point x="786" y="16" type="line"/>
      <point x="673" y="81" type="line"/>
      <point x="739" y="21" type="line"/>
      <point x="334" y="598" type="line"/>
      <point x="334" y="603" type="line"/>
      <point x="412" y="644" type="line"/>
      <point x="412" y="660" type="line"/>
      <point x="30" y="660" type="line"/>
      <point x="30" y="644" type="line"/>
      <point x="143" y="579" type="line"/>
      <point x="80" y="632" type="line"/>
      <point x="471" y="59" type="line"/>
      <point x="471" y="55" type="line"/>
      <point x="399" y="16" type="line"/>
    </contour>
    <contour>
      <point x="20" y="0" type="line"/>
      <point x="270" y="0" type="line"/>
      <point x="270" y="16" type="line"/>
      <point x="190" y="57" type="line"/>
      <point x="193" y="61" type="line"/>
      <point x="402" y="313" type="line"/>
      <point x="351" y="352" type="line"/>
      <point x="87" y="38" type="line"/>
      <point x="129" y="70" type="line"/>
      <point x="20" y="16" type="line"/>
    </contour>
    <contour>
      <point x="765" y="660" type="line"/>
      <point x="514" y="660" type="line"/>
      <point x="514" y="644" type="line"/>
      <point x="594" y="602" type="line"/>
      <point x="594" y="598" type="line"/>
      <point x="412" y="372" type="line"/>
      <point x="453" y="327" type="line"/>
      <point x="713" y="630" type="line"/>
      <point x="638" y="581" type="line"/>
      <point x="765" y="644" type="line"/>
    </contour>
  </outline>
</glyph>
<glyph name="Z" format="1">
  <advance width="736"/>
  <unicode hex="005A"/>
  <outline>
    <contour>
      <point x="80" y="0" type="line"/>
      <point x="656" y="0" type="line"/>
      <point x="656" y="229" type="line"/>
      <point x="640" y="229" type="line"/>
      <point x="551" y="55" type="line"/>
      <point x="275" y="55" type="line"/>
      <point x="275" y="9" type="line"/>
      <point x="645" y="623" type="line"/>
      <point x="645" y="660" type="line"/>
      <point x="92" y="660" type="line"/>
      <point x="92" y="441" type="line"/>
      <point x="108" y="441" type="line"/>
      <point x="190" y="605" type="line"/>
      <point x="442" y="605" type="line"/>
      <point x="442" y="639" type="line"/>
      <point x="80" y="37" type="line"/>
    </contour>
    <contour>
      <point x="369" y="710" type="move" name="top"/>
    </contour>
    <contour>
      <point x="369" y="0" type="move" name="bottom"/>
    </contour>
  </outline>
</glyph>
<glyph name="bracketleft" format="1">
  <advance width="270.0"/>
  <unicode hex="005B"/>
  <outline>
    <contour>
      <point x="55" y="-150" type="line"/>
      <point x="129" y="-150" type="line"/>
      <point x="129" y="740" type="line"/>
      <point x="55" y="740" type="line"/>
    </contour>
    <contour>
      <point x="57" y="740" type="line"/>
      <point x="57" y="712" type="line"/>
      <point x="245" y="712" type="line"/>
      <point x="245" y="740" type="line"/>
    </contour>
    <contour>
      <point x="57" y="-150" type="line"/>
      <point x="245" y="-150" type="line"/>
      <point x="245" y="-122" type="line"/>
      <point x="57" y="-122" type="line"/>
    </contour>
  </outline>
</glyph>
<glyph name="backslash" format="1">
  <advance width="250"/>
  <unicode hex="005C"/>
  <outline>
    <contour>
      <point x="200" y="-120" type="line"/>
      <point x="250" y="-120" type="line"/>
      <point x="50" y="750" type="line"/>
      <point x="0" y="750" type="line"/>
    </contour>
  </outline>
</glyph>
<glyph name="bracketright" format="1">
  <advance width="270.0"/>
  <unicode hex="005D"/>
  <outline>
    <contour>
      <point x="141" y="-150" type="line"/>
      <point x="215" y="-150" type="line"/>
      <point x="215" y="740" type="line"/>
      <point x="141" y="740" type="line"/>
    </contour>
    <contour>
      <point x="25" y="740" type="line"/>
      <point x="25" y="712" type="line"/>
      <point x="213" y="712" type="line"/>
      <point x="213" y="740" type="line"/>
    </contour>
    <contour>
      <point x="25" y="-150" type="line"/>
      <point x="213" y="-150" type="line"/>
      <point x="213" y="-122" type="line"/>
      <point x="25" y="-122" type="line"/>
    </contour>
  </outline>
</glyph>
<glyph name="asciicircum" format="1">
  <advance width="600"/>
  <unicode hex="005E"/>
  <outline>
    <contour>
      <point x="90" y="250" type="line"/>
      <point x="155" y="250" type="line"/>
      <point x="327" y="640" type="line"/>
      <point x="273" y="640" type="line"/>
      <point x="445" y="250" type="line"/>
      <point x="510" y="250" type="line"/>
      <point x="325" y="670" type="line"/>
      <point x="275" y="670" type="line"/>
    </contour>
  </outline>
</glyph>
<glyph name="a" format="2">
  <advance width="531"/>
  <unicode hex="0061"/>
  <anchor x="258" y="510" name="top"/>
  <anchor x="459" y="0" name="right"/>
  <anchor x="248" y="0" name="bottom"/>
  <outline>
    <contour>
      <point x="148" y="-9" type="curve" smooth="yes"/>
      <point x="199" y="-9"/>
      <point x="243" y="15"/>
      <point x="282" y="64" type="curve"/>
      <point x="302" y="64" type="line"/>
      <point x="302" y="97" type="line"/>
      <point x="286" y="90"/>
      <point x="271" y="84"/>
      <point x="253" y="84" type="curve" smooth="yes"/>
      <point x="216" y="84"/>
      <point x="192" y="105"/>
      <point x="192" y="147" type="curve" smooth="yes"/>
      <point x="192" y="200"/>
      <point x="220" y="223"/>
      <point x="314" y="240" type="curve"/>
      <point x="314" y="287" type="line"/>
      <point x="180" y="252" type="line" smooth="yes"/>
      <point x="51" y="218"/>
      <point x="25" y="187"/>
      <point x="25" y="110" type="curve" smooth="yes"/>
      <point x="25" y="42"/>
      <point x="72" y="-9"/>
    </contour>
    <contour>
      <point x="417" y="-10" type="curve" smooth="yes"/>
      <point x="479" y="-10"/>
      <point x="516" y="16"/>
      <point x="531" y="38" type="curve"/>
      <point x="531" y="59" type="line"/>
      <point x="527" y="63" type="line"/>
      <point x="505" y="63" type="line" smooth="yes"/>
      <point x="486" y="63"/>
      <point x="472" y="69"/>
      <point x="462" y="78" type="curve"/>
      <point x="462" y="330" type="line" smooth="yes"/>
      <point x="462" y="424"/>
      <point x="374" y="470"/>
      <point x="258" y="470" type="curve" smooth="yes"/>
      <point x="149" y="470"/>
      <point x="38" y="400"/>
      <point x="38" y="335" type="curve" smooth="yes"/>
      <point x="38" y="309"/>
      <point x="44" y="297"/>
      <point x="69" y="297" type="curve" smooth="yes"/>
      <point x="158" y="297" type="line"/>
      <point x="158" y="428" type="line"/>
      <point x="122" y="381" type="line"/>
      <point x="150" y="406"/>
      <point x="175" y="414"/>
      <point x="206" y="414" type="curve" smooth="yes"/>
      <point x="255" y="414"/>
      <point x="282" y="388"/>
      <point x="282" y="333" type="curve" smooth="yes"/>
      <point x="282" y="69" type="line"/>
      <point x="284" y="69" type="line"/>
      <point x="306" y="17"/>
      <point x="347" y="-10"/>
    </contour>
  </outline>
</glyph>
<glyph name="b" format="1">
  <advance width="596"/>
  <unicode hex="0062"/>
  <outline>
    <contour>
      <point x="81" y="0" type="line"/>
      <point x="97" y="0" type="line"/>
      <point x="261" y="58" type="line"/>
      <point x="261" y="750" type="line"/>
      <point x="245" y="750" type="line"/>
      <point x="15" y="695" type="line"/>
      <point x="15" y="679" type="line"/>
      <point x="81" y="636" type="line"/>
    </contour>
    <contour>
      <point x="335" y="-10" type="curve" smooth="yes"/>
      <point x="459" y="-10"/>
      <point x="571" y="90"/>
      <point x="571" y="247" type="curve" smooth="yes"/>
      <point x="571" y="385"/>
      <point x="489" y="470"/>
      <point x="407" y="470" type="curve" smooth="yes"/>
      <point x="356" y="470"/>
      <point x="314" y="453"/>
      <point x="267" y="412" type="curve"/>
      <point x="249" y="412" type="line"/>
      <point x="249" y="359" type="line"/>
      <point x="274" y="372"/>
      <point x="284" y="379"/>
      <point x="307" y="379" type="curve" smooth="yes"/>
      <point x="346" y="379"/>
      <point x="391" y="328"/>
      <point x="391" y="220" type="curve" smooth="yes"/>
      <point x="391" y="74"/>
      <point x="344" y="45"/>
      <point x="306" y="45" type="curve" smooth="yes"/>
      <point x="283" y="45"/>
      <point x="263" y="59"/>
      <point x="259" y="77" type="curve"/>
      <point x="189" y="37" type="line"/>
      <point x="233" y="-1"/>
      <point x="279" y="-10"/>
    </contour>
  </outline>
</glyph>
<glyph name="c" format="2">
  <advance width="488"/>
  <unicode hex="0063"/>
  <anchor x="274.0" y="510.0" name="top"/>
  <anchor x="273.0" y="0.0" name="bottom"/>
  <outline>
    <contour>
      <point x="251" y="-10" type="curve" smooth="yes"/>
      <point x="350" y="-10"/>
      <point x="425" y="47"/>
      <point x="458" y="124" type="curve"/>
      <point x="458" y="145" type="line"/>
      <point x="455" y="145" type="line"/>
      <point x="413" y="124"/>
      <point x="370" y="119"/>
      <point x="331" y="119" type="curve" smooth="yes"/>
      <point x="243" y="119"/>
      <point x="199" y="181"/>
      <point x="199" y="275" type="curve" smooth="yes"/>
      <point x="199" y="361"/>
      <point x="225" y="426"/>
      <point x="279" y="426" type="curve" smooth="yes"/>
      <point x="285" y="426"/>
      <point x="290" y="426"/>
      <point x="295" y="425" type="curve"/>
      <point x="265" y="448" type="line"/>
      <point x="396" y="310" type="line"/>
      <point x="445" y="349" type="line" smooth="yes"/>
      <point x="453" y="355"/>
      <point x="458" y="363"/>
      <point x="458" y="374" type="curve" smooth="yes"/>
      <point x="458" y="398"/>
      <point x="417" y="470"/>
      <point x="300" y="470" type="curve" smooth="yes"/>
      <point x="145" y="470"/>
      <point x="30.0" y="368.05189317647194"/>
      <point x="30" y="209" type="curve" smooth="yes"/>
      <point x="30" y="77"/>
      <point x="122" y="-10"/>
    </contour>
  </outline>
</glyph>
<glyph name="d" format="1">
  <advance width="599"/>
  <unicode hex="0064"/>
  <outline>
    <contour>
      <point x="189" y="-10" type="curve" smooth="yes"/>
      <point x="240" y="-10"/>
      <point x="282" y="8"/>
      <point x="330" y="49" type="curve"/>
      <point x="347" y="49" type="line"/>
      <point x="347" y="101" type="line"/>
      <point x="322" y="88"/>
      <point x="312" y="81"/>
      <point x="289" y="81" type="curve" smooth="yes"/>
      <point x="250" y="81"/>
      <point x="205" y="129"/>
      <point x="205" y="231" type="curve" smooth="yes"/>
      <point x="205" y="385"/>
      <point x="244" y="415"/>
      <point x="289" y="415" type="curve" smooth="yes"/>
      <point x="312" y="415"/>
      <point x="333" y="401"/>
      <point x="337" y="383" type="curve"/>
      <point x="407" y="423" type="line"/>
      <point x="363" y="460"/>
      <point x="312" y="470"/>
      <point x="256" y="470" type="curve" smooth="yes"/>
      <point x="114" y="470"/>
      <point x="25" y="361"/>
      <point x="25" y="195" type="curve" smooth="yes"/>
      <point x="25" y="70"/>
      <point x="107" y="-10"/>
    </contour>
    <contour>
      <point x="345" y="0" type="line"/>
      <point x="584" y="0" type="line"/>
      <point x="584" y="16" type="line"/>
      <point x="515" y="45" type="line"/>
      <point x="515" y="750" type="line"/>
      <point x="499" y="750" type="line"/>
      <point x="264" y="695" type="line"/>
      <point x="264" y="681" type="line"/>
      <point x="335" y="636" type="line"/>
      <point x="335" y="60" type="line"/>
    </contour>
    <contour>
      <point x="635.0" y="740.0" type="move" name="right"/>
    </contour>
    <contour>
      <point x="303.0" y="0.0" type="move" name="bottom"/>
    </contour>
  </outline>
</glyph>
<glyph name="e" format="1">
  <advance width="503"/>
  <unicode hex="0065"/>
  <outline>
    <contour>
      <point x="261" y="-10" type="curve" smooth="yes"/>
      <point x="362" y="-10"/>
      <point x="439" y="46"/>
      <point x="473" y="124" type="curve"/>
      <point x="473" y="145" type="line"/>
      <point x="470" y="145" type="line"/>
      <point x="428" y="124"/>
      <point x="385" y="119"/>
      <point x="346" y="119" type="curve" smooth="yes"/>
      <point x="248" y="119"/>
      <point x="202" y="171"/>
      <point x="202" y="247" type="curve" smooth="yes"/>
      <point x="202" y="359"/>
      <point x="227.0" y="425.0"/>
      <point x="271" y="425" type="curve" smooth="yes"/>
      <point x="310.0" y="425.0"/>
      <point x="332.50606781" y="395.738270977"/>
      <point x="339" y="294" type="curve"/>
      <point x="395" y="306" type="line"/>
      <point x="138" y="306" type="line"/>
      <point x="138" y="262" type="line"/>
      <point x="469" y="262" type="line"/>
      <point x="472" y="267" type="line"/>
      <point x="470" y="395"/>
      <point x="409" y="470"/>
      <point x="299" y="470" type="curve" smooth="yes"/>
      <point x="147" y="470"/>
      <point x="30" y="362"/>
      <point x="30" y="209" type="curve" smooth="yes"/>
      <point x="30" y="77"/>
      <point x="118" y="-10"/>
    </contour>
    <contour>
      <point x="270.0" y="510.0" type="move" name="top"/>
    </contour>
    <contour>
      <point x="399.0" y="0.0" type="move" name="right"/>
    </contour>
    <contour>
      <point x="279.0" y="0.0" type="move" name="bottom"/>
    </contour>
  </outline>
</glyph>
<glyph name="f" format="1">
  <advance width="389"/>
  <unicode hex="0066"/>
  <outline>
    <contour>
      <point x="25" y="0" type="line"/>
      <point x="356" y="0" type="line"/>
      <point x="356" y="16" type="line"/>
      <point x="274" y="48" type="line"/>
      <point x="274" y="510" type="line" smooth="yes"/>
      <point x="274" y="629.391891892"/>
      <point x="282" y="665"/>
      <point x="331" y="665" type="curve" smooth="yes"/>
      <point x="352" y="665"/>
      <point x="367" y="657"/>
      <point x="391" y="644" type="curve" smooth="yes"/>
      <point x="404" y="637" type="line"/>
      <point x="414" y="637" type="line"/>
      <point x="445" y="695" type="line" smooth="yes"/>
      <point x="449" y="703"/>
      <point x="451" y="709"/>
      <point x="451" y="715" type="curve" smooth="yes"/>
      <point x="451" y="725"/>
      <point x="448" y="729"/>
      <point x="431" y="739" type="curve" smooth="yes"/>
      <point x="420" y="745"/>
      <point x="403" y="750"/>
      <point x="385" y="750" type="curve" smooth="yes"/>
      <point x="275" y="750"/>
      <point x="94" y="594"/>
      <point x="94" y="485" type="curve" smooth="yes"/>
      <point x="94" y="48" type="line"/>
      <point x="25" y="16" type="line"/>
    </contour>
    <contour>
      <point x="20" y="416" type="line"/>
      <point x="384" y="416" type="line"/>
      <point x="384" y="460" type="line"/>
      <point x="20" y="460" type="line"/>
    </contour>
  </outline>
</glyph>
<glyph name="g" format="2">
  <advance width="538"/>
  <unicode hex="0067"/>
  <anchor x="255.0" y="510.0" name="top"/>
  <outline>
    <contour>
      <point x="239" y="164" type="curve" smooth="yes"/>
      <point x="346" y="164"/>
      <point x="429" y="230"/>
      <point x="429" y="317" type="curve" smooth="yes"/>
      <point x="429" y="358"/>
      <point x="403" y="396"/>
      <point x="370" y="415" type="curve"/>
      <point x="346" y="445" type="line"/>
      <point x="321" y="459"/>
      <point x="281" y="469"/>
      <point x="239" y="469" type="curve" smooth="yes"/>
      <point x="131" y="469"/>
      <point x="48" y="403"/>
      <point x="48" y="317" type="curve" smooth="yes"/>
      <point x="48" y="230"/>
      <point x="131" y="164"/>
    </contour>
    <contour>
      <point x="243" y="208" type="curve" smooth="yes"/>
      <point x="211" y="208"/>
      <point x="192" y="242"/>
      <point x="192" y="320" type="curve" smooth="yes"/>
      <point x="192" y="398"/>
      <point x="212" y="426"/>
      <point x="239" y="426" type="curve" smooth="yes"/>
      <point x="268" y="426"/>
      <point x="287" y="390"/>
      <point x="287" y="314" type="curve" smooth="yes"/>
      <point x="287" y="245"/>
      <point x="273" y="208"/>
    </contour>
    <contour>
      <point x="500" y="394" type="line"/>
      <point x="500" y="459" type="line"/>
      <point x="316" y="444" type="line"/>
      <point x="316" y="385" type="line"/>
      <point x="365" y="386" type="line"/>
      <point x="389" y="404" type="line"/>
    </contour>
    <contour>
      <point x="239" y="-240" type="curve" smooth="yes"/>
      <point x="407" y="-240"/>
      <point x="498" y="-142"/>
      <point x="498" y="-47" type="curve" smooth="yes"/>
      <point x="498" y="46"/>
      <point x="447" y="95"/>
      <point x="338" y="95" type="curve" smooth="yes"/>
      <point x="238" y="95" type="line" smooth="yes"/>
      <point x="173" y="95"/>
      <point x="145" y="105"/>
      <point x="145" y="129" type="curve" smooth="yes"/>
      <point x="145" y="155"/>
      <point x="164" y="181"/>
      <point x="205" y="193" type="curve"/>
      <point x="205" y="208" type="line"/>
      <point x="133" y="208" type="line"/>
      <point x="133" y="192" type="line"/>
      <point x="56" y="140" type="line"/>
      <point x="49" y="120"/>
      <point x="44" y="97"/>
      <point x="44" y="74" type="curve" smooth="yes"/>
      <point x="44" y="-10"/>
      <point x="104" y="-55"/>
      <point x="206" y="-55" type="curve" smooth="yes"/>
      <point x="278" y="-55" type="line" smooth="yes"/>
      <point x="336" y="-55"/>
      <point x="357" y="-70"/>
      <point x="357" y="-114" type="curve" smooth="yes"/>
      <point x="357" y="-163"/>
      <point x="317" y="-199"/>
      <point x="247" y="-199" type="curve" smooth="yes"/>
      <point x="182" y="-199"/>
      <point x="139" y="-158"/>
      <point x="139" y="-96" type="curve" smooth="yes"/>
      <point x="139" y="-70"/>
      <point x="151" y="-55"/>
      <point x="179" y="-50" type="curve"/>
      <point x="179" y="-30" type="line"/>
      <point x="116" y="-30" type="line"/>
      <point x="116" y="-44" type="line"/>
      <point x="56" y="-80" type="line"/>
      <point x="49" y="-95"/>
      <point x="46" y="-108"/>
      <point x="46" y="-123" type="curve" smooth="yes"/>
      <point x="46" y="-194"/>
      <point x="108" y="-240"/>
    </contour>
  </outline>
</glyph>
<glyph name="i" format="1">
  <advance width="346"/>
  <unicode hex="0069"/>
  <outline>
    <contour>
      <point x="20" y="0" type="line" smooth="yes"/>
      <point x="326" y="0" type="line" smooth="yes"/>
      <point x="326" y="16" type="line"/>
      <point x="269" y="48" type="line"/>
      <point x="269" y="470" type="line"/>
      <point x="253" y="470" type="line"/>
      <point x="23" y="415" type="line"/>
      <point x="23" y="399" type="line"/>
      <point x="89" y="356" type="line"/>
      <point x="89" y="48" type="line"/>
      <point x="20" y="16" type="line"/>
    </contour>
    <contour>
      <point x="177" y="554" type="curve" smooth="yes"/>
      <point x="224" y="554"/>
      <point x="258" y="588"/>
      <point x="258" y="635" type="curve" smooth="yes"/>
      <point x="258" y="682"/>
      <point x="224" y="716"/>
      <point x="177" y="716" type="curve" smooth="yes"/>
      <point x="130" y="716"/>
      <point x="96" y="682"/>
      <point x="96" y="635" type="curve" smooth="yes"/>
      <point x="96" y="588"/>
      <point x="130" y="554"/>
    </contour>
    <contour>
      <point x="179" y="510.0" type="move" name="top"/>
    </contour>
    <contour>
      <point x="179" y="0.0" type="move" name="bottom"/>
    </contour>
    <contour>
      <point x="210" y="0" type="move" name="right"/>
    </contour>
  </outline>
</glyph>
<glyph name="j" format="1">
  <advance width="341"/>
  <unicode hex="006A"/>
  <outline>
    <contour>
      <point x="23" y="-230" type="line"/>
      <point x="216" y="-148"/>
      <point x="266" y="-94"/>
      <point x="266" y="39" type="curve"/>
      <point x="266" y="470" type="line"/>
      <point x="250" y="470" type="line"/>
      <point x="20" y="415" type="line"/>
      <point x="20" y="399" type="line"/>
      <point x="86" y="356" type="line"/>
      <point x="86" y="-86" type="line" smooth="yes"/>
      <point x="86" y="-147"/>
      <point x="81" y="-166"/>
      <point x="23" y="-210" type="curve"/>
    </contour>
    <contour>
      <point x="174" y="554" type="curve" smooth="yes"/>
      <point x="221" y="554"/>
      <point x="255" y="588"/>
      <point x="255" y="635" type="curve" smooth="yes"/>
      <point x="255" y="682"/>
      <point x="221" y="716"/>
      <point x="174" y="716" type="curve" smooth="yes"/>
      <point x="127" y="716"/>
      <point x="93" y="682"/>
      <point x="93" y="635" type="curve" smooth="yes"/>
      <point x="93" y="588"/>
      <point x="127" y="554"/>
    </contour>
    <contour>
      <point x="176" y="510" type="move" name="top"/>
    </contour>
  </outline>
</glyph>
<glyph name="k" format="1">
  <advance width="632"/>
  <unicode hex="006B"/>
  <outline>
    <contour>
      <point x="20" y="0" type="line"/>
      <point x="329" y="0" type="line"/>
      <point x="329" y="16" type="line"/>
      <point x="269" y="48" type="line"/>
      <point x="269" y="750" type="line"/>
      <point x="253" y="750" type="line"/>
      <point x="23" y="695" type="line"/>
      <point x="23" y="679" type="line"/>
      <point x="89" y="636" type="line"/>
      <point x="89" y="48" type="line"/>
      <point x="20" y="16" type="line"/>
    </contour>
    <contour>
      <point x="406" y="0" type="line"/>
      <point x="642" y="0" type="line"/>
      <point x="642" y="16" type="line"/>
      <point x="578" y="50" type="line"/>
      <point x="379" y="357" type="line"/>
      <point x="379" y="292" type="line"/>
      <point x="524" y="409" type="line"/>
      <point x="588" y="444" type="line"/>
      <point x="588" y="460" type="line"/>
      <point x="363" y="460" type="line"/>
      <point x="363" y="444" type="line"/>
      <point x="412" y="408" type="line"/>
      <point x="412" y="402" type="line"/>
      <point x="263" y="260" type="line"/>
      <point x="263" y="245" type="line"/>
      <point x="380" y="52" type="line"/>
    </contour>
    <contour>
      <point x="369" y="0" type="move" name="bottom"/>
    </contour>
  </outline>
</glyph>
<glyph name="l" format="1">
  <advance width="346"/>
  <unicode hex="006C"/>
  <outline>
    <contour>
      <point x="20" y="0" type="line"/>
      <point x="326" y="0" type="line"/>
      <point x="326" y="16" type="line"/>
      <point x="269" y="48" type="line"/>
      <point x="269" y="750" type="line"/>
      <point x="253" y="750" type="line"/>
      <point x="23" y="695" type="line"/>
      <point x="23" y="679" type="line"/>
      <point x="89" y="636" type="line"/>
      <point x="89" y="48" type="line"/>
      <point x="20" y="16" type="line"/>
    </contour>
    <contour>
      <point x="179" y="765" type="move" name="top"/>
    </contour>
    <contour>
      <point x="389" y="740" type="move" name="right"/>
    </contour>
    <contour>
      <point x="397" y="300" type="move" name="mid"/>
    </contour>
    <contour>
      <point x="179" y="0.0" type="move" name="bottom"/>
    </contour>
  </outline>
</glyph>
<glyph name="m" format="1">
  <advance width="928"/>
  <unicode hex="006D"/>
  <outline>
    <contour>
      <point x="20" y="0" type="line"/>
      <point x="306" y="0" type="line"/>
      <point x="306" y="16" type="line"/>
      <point x="269" y="48" type="line"/>
      <point x="269" y="390" type="line"/>
      <point x="259" y="470" type="line"/>
      <point x="243" y="470" type="line"/>
      <point x="23" y="405" type="line"/>
      <point x="23" y="389" type="line"/>
      <point x="89" y="356" type="line"/>
      <point x="89" y="48" type="line"/>
      <point x="20" y="16" type="line"/>
    </contour>
    <contour>
      <point x="341" y="0" type="line"/>
      <point x="596" y="0" type="line"/>
      <point x="596" y="16" type="line"/>
      <point x="558" y="48" type="line"/>
      <point x="558" y="343" type="line" smooth="yes"/>
      <point x="558" y="427"/>
      <point x="502" y="470"/>
      <point x="419" y="470" type="curve" smooth="yes"/>
      <point x="354" y="470"/>
      <point x="317" y="440"/>
      <point x="273" y="396" type="curve"/>
      <point x="261" y="396" type="line"/>
      <point x="261" y="339" type="line"/>
      <point x="277" y="354"/>
      <point x="302" y="366"/>
      <point x="324" y="366" type="curve" smooth="yes"/>
      <point x="357" y="366"/>
      <point x="378" y="345"/>
      <point x="378" y="306" type="curve" smooth="yes"/>
      <point x="378" y="48" type="line"/>
      <point x="341" y="16" type="line"/>
    </contour>
    <contour>
      <point x="631" y="0" type="line"/>
      <point x="918" y="0" type="line"/>
      <point x="918" y="16" type="line"/>
      <point x="849" y="48" type="line"/>
      <point x="849" y="343" type="line" smooth="yes"/>
      <point x="849" y="427"/>
      <point x="793" y="470"/>
      <point x="710" y="470" type="curve" smooth="yes"/>
      <point x="641" y="470"/>
      <point x="604" y="436"/>
      <point x="556" y="388" type="curve"/>
      <point x="550" y="388" type="line"/>
      <point x="550" y="336" type="line"/>
      <point x="567" y="354"/>
      <point x="593" y="366"/>
      <point x="615" y="366" type="curve" smooth="yes"/>
      <point x="648" y="366"/>
      <point x="669" y="345"/>
      <point x="669" y="306" type="curve" smooth="yes"/>
      <point x="669" y="48" type="line"/>
      <point x="631" y="16" type="line"/>
    </contour>
    <contour>
      <point x="468" y="0" type="move" name="bottom"/>
    </contour>
  </outline>
</glyph>
<glyph name="n" format="1">
  <advance width="641"/>
  <unicode hex="006E"/>
  <outline>
    <contour>
      <point x="20" y="0" type="line"/>
      <point x="306" y="0" type="line"/>
      <point x="306" y="16" type="line"/>
      <point x="269" y="48" type="line"/>
      <point x="269" y="390" type="line"/>
      <point x="259" y="470" type="line"/>
      <point x="243" y="470" type="line"/>
      <point x="23" y="405" type="line"/>
      <point x="23" y="389" type="line"/>
      <point x="89" y="356" type="line"/>
      <point x="89" y="48" type="line"/>
      <point x="20" y="16" type="line"/>
    </contour>
    <contour>
      <point x="345" y="0" type="line"/>
      <point x="631" y="0" type="line"/>
      <point x="631" y="16" type="line"/>
      <point x="562" y="48" type="line"/>
      <point x="562" y="343" type="line" smooth="yes"/>
      <point x="562" y="427"/>
      <point x="504" y="470"/>
      <point x="421" y="470" type="curve" smooth="yes"/>
      <point x="356" y="470"/>
      <point x="318" y="440"/>
      <point x="273" y="396" type="curve"/>
      <point x="261" y="396" type="line"/>
      <point x="261" y="339" type="line"/>
      <point x="277" y="354"/>
      <point x="304" y="366"/>
      <point x="326" y="366" type="curve" smooth="yes"/>
      <point x="359" y="366"/>
      <point x="382" y="345"/>
      <point x="382" y="306" type="curve" smooth="yes"/>
      <point x="382" y="48" type="line"/>
      <point x="345" y="16" type="line"/>
    </contour>
    <contour>
      <point x="326.0" y="510.0" type="move" name="top"/>
    </contour>
    <contour>
      <point x="326.0" y="0.0" type="move" name="bottom"/>
    </contour>
  </outline>
</glyph>
<glyph name="p" format="1">
  <advance width="604"/>
  <unicode hex="0070"/>
  <outline>
    <contour>
      <point x="20" y="-230" type="line"/>
      <point x="351" y="-230" type="line"/>
      <point x="351" y="-214" type="line"/>
      <point x="269" y="-182" type="line"/>
      <point x="269" y="391" type="line"/>
      <point x="259" y="470" type="line"/>
      <point x="243" y="470" type="line"/>
      <point x="23" y="405" type="line"/>
      <point x="23" y="389" type="line"/>
      <point x="89" y="346" type="line"/>
      <point x="89" y="-182" type="line"/>
      <point x="20" y="-214" type="line"/>
    </contour>
    <contour>
      <point x="343" y="-10" type="curve" smooth="yes"/>
      <point x="467" y="-10"/>
      <point x="579" y="90"/>
      <point x="579" y="247" type="curve" smooth="yes"/>
      <point x="579" y="385"/>
      <point x="497" y="470"/>
      <point x="415" y="470" type="curve" smooth="yes"/>
      <point x="363" y="470"/>
      <point x="320" y="452"/>
      <point x="271" y="409" type="curve"/>
      <point x="257" y="409" type="line"/>
      <point x="257" y="359" type="line"/>
      <point x="282" y="372"/>
      <point x="292" y="379"/>
      <point x="315" y="379" type="curve" smooth="yes"/>
      <point x="354" y="379"/>
      <point x="399" y="328"/>
      <point x="399" y="220" type="curve" smooth="yes"/>
      <point x="399" y="74"/>
      <point x="352" y="45"/>
      <point x="314" y="45" type="curve" smooth="yes"/>
      <point x="291" y="45"/>
      <point x="271" y="59"/>
      <point x="267" y="77" type="curve"/>
      <point x="197" y="37" type="line"/>
      <point x="241" y="-1"/>
      <point x="287" y="-10"/>
    </contour>
  </outline>
</glyph>
<glyph name="q" format="1">
  <advance width="594"/>
  <unicode hex="0071"/>
  <outline>
    <contour>
      <point x="253" y="-230" type="line"/>
      <point x="584" y="-230" type="line"/>
      <point x="584" y="-214" type="line"/>
      <point x="515" y="-182" type="line"/>
      <point x="515" y="470" type="line"/>
      <point x="499" y="470" type="line"/>
      <point x="352" y="432" type="line"/>
      <point x="408" y="432" type="line"/>
      <point x="368.334364592" y="459.765944786"/>
      <point x="328.0" y="470.0"/>
      <point x="271" y="470" type="curve" smooth="yes"/>
      <point x="120" y="470"/>
      <point x="25" y="361"/>
      <point x="25" y="195" type="curve" smooth="yes"/>
      <point x="25" y="70"/>
      <point x="107" y="-10"/>
      <point x="189" y="-10" type="curve" smooth="yes"/>
      <point x="234" y="-10"/>
      <point x="275" y="4"/>
      <point x="328" y="47" type="curve"/>
      <point x="362" y="47" type="line"/>
      <point x="362" y="109" type="line"/>
      <point x="318" y="86"/>
      <point x="308" y="81"/>
      <point x="289" y="81" type="curve" smooth="yes"/>
      <point x="250" y="81"/>
      <point x="205" y="129"/>
      <point x="205" y="230" type="curve" smooth="yes"/>
      <point x="205" y="384"/>
      <point x="242.0" y="415.0"/>
      <point x="289" y="415" type="curve" smooth="yes"/>
      <point x="305" y="415"/>
      <point x="320" y="410"/>
      <point x="328" y="402" type="curve" smooth="yes"/>
      <point x="334" y="396"/>
      <point x="335" y="389"/>
      <point x="335" y="373" type="curve"/>
      <point x="335" y="-182" type="line"/>
      <point x="253" y="-214" type="line"/>
    </contour>
  </outline>
</glyph>
<glyph name="r" format="2">
  <advance width="443"/>
  <unicode hex="0072"/>
  <anchor x="264" y="510" name="top"/>
  <anchor x="179.0" y="0.0" name="bottom"/>
  <outline>
    <contour>
      <point x="20" y="0" type="line"/>
      <point x="356" y="0" type="line"/>
      <point x="356" y="16" type="line"/>
      <point x="269" y="48" type="line"/>
      <point x="269" y="369" type="line"/>
      <point x="259" y="470" type="line"/>
      <point x="243" y="470" type="line"/>
      <point x="23" y="405" type="line"/>
      <point x="23" y="389" type="line"/>
      <point x="89" y="346" type="line"/>
      <point x="89" y="48" type="line"/>
      <point x="20" y="16" type="line"/>
    </contour>
    <contour>
      <point x="374" y="371" type="curve"/>
      <point x="334" y="371" type="line"/>
      <point x="430" y="340" type="line"/>
      <point x="453" y="405" type="line" smooth="yes"/>
      <point x="455" y="411"/>
      <point x="457" y="419"/>
      <point x="457" y="424" type="curve" smooth="yes"/>
      <point x="457" y="451"/>
      <point x="437" y="470"/>
      <point x="394" y="470" type="curve" smooth="yes"/>
      <point x="351" y="470"/>
      <point x="319" y="449"/>
      <point x="273" y="377" type="curve"/>
      <point x="261" y="377" type="line"/>
      <point x="261" y="312" type="line"/>
      <point x="287" y="347"/>
      <point x="325" y="366"/>
    </contour>
  </outline>
</glyph>
<glyph name="s" format="1">
  <advance width="441"/>
  <unicode hex="0073"/>
  <outline>
    <contour>
      <point x="207" y="-10" type="curve" smooth="yes"/>
      <point x="310" y="-10"/>
      <point x="396" y="53"/>
      <point x="396" y="151" type="curve" smooth="yes"/>
      <point x="396" y="245"/>
      <point x="332" y="271"/>
      <point x="276" y="291" type="curve" smooth="yes"/>
      <point x="183" y="325"/>
      <point x="171" y="340"/>
      <point x="171" y="369" type="curve" smooth="yes"/>
      <point x="171.0" y="402.191489362"/>
      <point x="195" y="421"/>
      <point x="232" y="421" type="curve" smooth="yes"/>
      <point x="274" y="421"/>
      <point x="295" y="401"/>
      <point x="324" y="360" type="curve" smooth="yes"/>
      <point x="354" y="317" type="line"/>
      <point x="370" y="317" type="line"/>
      <point x="370" y="442" type="line"/>
      <point x="329" y="464"/>
      <point x="282" y="470"/>
      <point x="240" y="470" type="curve" smooth="yes"/>
      <point x="123" y="470"/>
      <point x="49" y="395"/>
      <point x="49" y="300" type="curve" smooth="yes"/>
      <point x="49" y="243"/>
      <point x="81" y="199"/>
      <point x="161" y="168" type="curve" smooth="yes"/>
      <point x="257" y="131"/>
      <point x="275" y="119"/>
      <point x="275" y="87" type="curve" smooth="yes"/>
      <point x="275.0" y="56.7857142857"/>
      <point x="250" y="40"/>
      <point x="202" y="40" type="curve" smooth="yes"/>
      <point x="160" y="40"/>
      <point x="123" y="60"/>
      <point x="98" y="95" type="curve" smooth="yes"/>
      <point x="61" y="146" type="line"/>
      <point x="45" y="146" type="line"/>
      <point x="45" y="28" type="line"/>
      <point x="92" y="5"/>
      <point x="139" y="-10"/>
    </contour>
    <contour>
      <point x="222" y="510" type="move" name="top"/>
    </contour>
    <contour>
      <point x="221" y="0" type="move" name="bottom"/>
    </contour>
  </outline>
</glyph>
<glyph name="u" format="1">
  <advance width="609"/>
  <unicode hex="0075"/>
  <outline>
    <contour>
      <point x="213" y="-10" type="curve" smooth="yes"/>
      <point x="277" y="-10"/>
      <point x="314" y="20"/>
      <point x="358" y="64" type="curve"/>
      <point x="370" y="64" type="line"/>
      <point x="370" y="121" type="line"/>
      <point x="354" y="106"/>
      <point x="329" y="94"/>
      <point x="308" y="94" type="curve" smooth="yes"/>
      <point x="277" y="94"/>
      <point x="255" y="115"/>
      <point x="255" y="154" type="curve" smooth="yes"/>
      <point x="255" y="460" type="line"/>
      <point x="6" y="460" type="line"/>
      <point x="6" y="444" type="line"/>
      <point x="75" y="412" type="line"/>
      <point x="75" y="117" type="line" smooth="yes"/>
      <point x="75" y="33"/>
      <point x="132" y="-10"/>
    </contour>
    <contour>
      <point x="362" y="0" type="line"/>
      <point x="599" y="0" type="line"/>
      <point x="599" y="16" type="line"/>
      <point x="542" y="48" type="line"/>
      <point x="542" y="460" type="line"/>
      <point x="308" y="460" type="line"/>
      <point x="308" y="444" type="line"/>
      <point x="362" y="412" type="line"/>
    </contour>
    <contour>
      <point x="465.0" y="0.0" type="move" name="right"/>
    </contour>
    <contour>
      <point x="309.0" y="510.0" type="move" name="top"/>
    </contour>
    <contour>
      <point x="309.0" y="0.0" type="move" name="bottom"/>
    </contour>
  </outline>
</glyph>
<glyph name="v" format="1">
  <advance width="473"/>
  <unicode hex="0076"/>
  <outline>
    <contour>
      <point x="209" y="0" type="line"/>
      <point x="246" y="0" type="line"/>
      <point x="311" y="138" type="line"/>
      <point x="311" y="228" type="line"/>
      <point x="295" y="228" type="line"/>
      <point x="207" y="414" type="line"/>
      <point x="207" y="416" type="line"/>
      <point x="267" y="444" type="line"/>
      <point x="267" y="460" type="line"/>
      <point x="-44" y="460" type="line"/>
      <point x="-44" y="444" type="line"/>
      <point x="15" y="419" type="line"/>
    </contour>
    <contour>
      <point x="258" y="0" type="line"/>
      <point x="449" y="411" type="line"/>
      <point x="517" y="444" type="line"/>
      <point x="517" y="460" type="line"/>
      <point x="320" y="460" type="line"/>
      <point x="320" y="444" type="line"/>
      <point x="378" y="414" type="line"/>
      <point x="378" y="412" type="line"/>
      <point x="226" y="54" type="line"/>
      <point x="226" y="0" type="line"/>
    </contour>
  </outline>
</glyph>
<glyph name="w" format="1">
  <advance width="711"/>
  <unicode hex="0077"/>
  <outline>
    <contour>
      <point x="184" y="0" type="line"/>
      <point x="221" y="0" type="line"/>
      <point x="299" y="172" type="line"/>
      <point x="299" y="226" type="line"/>
      <point x="277" y="226" type="line"/>
      <point x="207" y="414" type="line"/>
      <point x="207" y="416" type="line"/>
      <point x="267" y="444" type="line"/>
      <point x="267" y="460" type="line"/>
      <point x="-44" y="460" type="line"/>
      <point x="-44" y="444" type="line"/>
      <point x="15" y="419" type="line"/>
    </contour>
    <contour>
      <point x="381" y="460" type="line"/>
      <point x="206" y="46" type="line"/>
      <point x="206" y="0" type="line"/>
      <point x="233" y="0" type="line"/>
      <point x="369" y="283" type="line"/>
      <point x="325" y="283" type="line"/>
      <point x="457" y="0" type="line"/>
      <point x="494" y="0" type="line"/>
      <point x="559" y="172" type="line"/>
      <point x="430" y="460" type="line"/>
    </contour>
    <contour>
      <point x="506" y="0" type="line"/>
      <point x="687" y="411" type="line"/>
      <point x="755" y="444" type="line"/>
      <point x="755" y="460" type="line"/>
      <point x="558" y="460" type="line"/>
      <point x="558" y="444" type="line"/>
      <point x="616" y="415" type="line"/>
      <point x="616" y="412" type="line"/>
      <point x="540" y="226" type="line"/>
      <point x="473" y="226" type="line"/>
      <point x="473" y="0" type="line"/>
    </contour>
    <contour>
      <point x="406.0" y="510.0" type="move" name="top"/>
    </contour>
  </outline>
</glyph>
<glyph name="x" format="1">
  <advance width="584"/>
  <unicode hex="0078"/>
  <outline>
    <contour>
      <point x="261" y="0" type="line"/>
      <point x="574" y="0" type="line"/>
      <point x="574" y="16" type="line"/>
      <point x="533" y="41" type="line"/>
      <point x="275" y="414" type="line"/>
      <point x="275" y="420" type="line"/>
      <point x="323" y="444" type="line"/>
      <point x="323" y="460" type="line"/>
      <point x="10" y="460" type="line"/>
      <point x="10" y="444" type="line"/>
      <point x="54" y="419" type="line"/>
      <point x="312" y="46" type="line"/>
      <point x="312" y="40" type="line"/>
      <point x="261" y="16" type="line"/>
    </contour>
    <contour>
      <point x="12" y="0" type="line"/>
      <point x="205" y="0" type="line"/>
      <point x="205" y="16" type="line"/>
      <point x="153" y="46" type="line"/>
      <point x="153" y="52" type="line"/>
      <point x="295" y="229" type="line"/>
      <point x="250" y="252" type="line"/>
      <point x="63" y="45" type="line"/>
      <point x="12" y="16" type="line"/>
    </contour>
    <contour>
      <point x="557" y="460" type="line"/>
      <point x="370" y="460" type="line"/>
      <point x="370" y="444" type="line"/>
      <point x="417" y="414" type="line"/>
      <point x="417" y="408" type="line"/>
      <point x="284" y="248" type="line"/>
      <point x="331" y="225" type="line"/>
      <point x="504" y="415" type="line"/>
      <point x="557" y="444" type="line"/>
    </contour>
  </outline>
</glyph>
<glyph name="y" format="2">
  <advance width="473"/>
  <unicode hex="0079"/>
  <anchor x="291.0" y="510.0" name="top"/>
  <anchor x="349" y="-10" name="bottom"/>
  <outline>
    <contour>
      <point x="-45" y="460" type="line"/>
      <point x="-45" y="444" type="line"/>
      <point x="14" y="419" type="line"/>
      <point x="246" y="-55" type="line"/>
      <point x="327" y="172" type="line"/>
      <point x="327" y="222" type="line"/>
      <point x="302" y="222" type="line"/>
      <point x="206" y="414" type="line"/>
      <point x="206" y="416" type="line"/>
      <point x="256" y="444" type="line"/>
      <point x="256" y="460" type="line"/>
    </contour>
    <contour>
      <point x="141" y="-145" type="curve"/>
      <point x="191" y="-125" type="line"/>
      <point x="50" y="-125" type="line"/>
      <point x="50" y="-203" type="line" smooth="yes"/>
      <point x="50" y="-231"/>
      <point x="63" y="-241"/>
      <point x="92" y="-241" type="curve" smooth="yes"/>
      <point x="160" y="-241"/>
      <point x="190" y="-220"/>
      <point x="247" y="-82" type="curve" smooth="yes"/>
      <point x="449" y="411" type="line"/>
      <point x="517" y="444" type="line"/>
      <point x="517" y="460" type="line"/>
      <point x="330" y="460" type="line"/>
      <point x="330" y="444" type="line"/>
      <point x="378" y="414" type="line"/>
      <point x="378" y="412" type="line"/>
      <point x="284" y="146" type="line"/>
      <point x="203" y="-60" type="line" smooth="yes"/>
      <point x="185" y="-106"/>
      <point x="169" y="-130"/>
    </contour>
  </outline>
</glyph>
<glyph name="z" format="1">
  <advance width="515"/>
  <unicode hex="007A"/>
  <outline>
    <contour>
      <point x="41" y="0" type="line"/>
      <point x="475" y="0" type="line"/>
      <point x="475" y="171" type="line"/>
      <point x="454" y="171" type="line"/>
      <point x="385" y="8" type="line"/>
      <point x="449" y="49" type="line"/>
      <point x="235" y="49" type="line"/>
      <point x="235" y="7" type="line"/>
      <point x="467" y="439" type="line"/>
      <point x="467" y="460" type="line"/>
      <point x="133" y="460" type="line" smooth="yes"/>
      <point x="105" y="460"/>
      <point x="75" y="465"/>
      <point x="56" y="470" type="curve"/>
      <point x="51" y="470" type="line"/>
      <point x="40" y="296" type="line"/>
      <point x="61" y="296" type="line"/>
      <point x="141" y="450" type="line"/>
      <point x="76" y="411" type="line"/>
      <point x="273" y="411" type="line"/>
      <point x="273" y="453" type="line"/>
      <point x="41" y="21" type="line"/>
    </contour>
    <contour>
      <point x="267.0" y="510.0" type="move" name="top"/>
    </contour>
    <contour>
      <point x="267.0" y="0.0" type="move" name="bottom"/>
    </contour>
  </outline>
</glyph>
<glyph name="braceleft" format="1">
  <advance width="270.0"/>
  <unicode hex="007B"/>
  <outline>
    <contour>
      <point x="216" y="-150" type="curve" smooth="yes"/>
      <point x="245" y="-150" type="line"/>
      <point x="245" y="-122" type="line"/>
      <point x="218" y="-122" type="line" smooth="yes"/>
      <point x="160" y="-122"/>
      <point x="132" y="-87"/>
      <point x="132" y="-35" type="curve" smooth="yes"/>
      <point x="132" y="43"/>
      <point x="175" y="108"/>
      <point x="175" y="177" type="curve" smooth="yes"/>
      <point x="175" y="226"/>
      <point x="149" y="274"/>
      <point x="79" y="295" type="curve"/>
      <point x="149" y="317"/>
      <point x="175" y="364"/>
      <point x="175" y="413" type="curve" smooth="yes"/>
      <point x="175" y="482"/>
      <point x="132" y="547"/>
      <point x="132" y="625" type="curve" smooth="yes"/>
      <point x="132" y="677"/>
      <point x="160" y="712"/>
      <point x="218" y="712" type="curve" smooth="yes"/>
      <point x="245" y="712" type="line"/>
      <point x="245" y="740" type="line"/>
      <point x="216" y="740" type="line" smooth="yes"/>
      <point x="105" y="740"/>
      <point x="58" y="686"/>
      <point x="58" y="607" type="curve" smooth="yes"/>
      <point x="58" y="524"/>
      <point x="106" y="459"/>
      <point x="106" y="391" type="curve" smooth="yes"/>
      <point x="106" y="348"/>
      <point x="85" y="309"/>
      <point x="20" y="309" type="curve" smooth="yes"/>
      <point x="-5" y="309" type="line"/>
      <point x="-5" y="282" type="line"/>
      <point x="20" y="282" type="line" smooth="yes"/>
      <point x="85" y="282"/>
      <point x="106" y="243"/>
      <point x="106" y="199" type="curve" smooth="yes"/>
      <point x="106" y="131"/>
      <point x="58" y="66"/>
      <point x="58" y="-17" type="curve" smooth="yes"/>
      <point x="58" y="-96"/>
      <point x="105" y="-150"/>
    </contour>
  </outline>
</glyph>
<glyph name="bar" format="1">
  <advance width="250"/>
  <unicode hex="007C"/>
  <outline>
    <contour>
      <point x="100" y="-250" type="line"/>
      <point x="150" y="-250" type="line"/>
      <point x="150" y="750" type="line"/>
      <point x="100" y="750" type="line"/>
    </contour>
  </outline>
</glyph>
<glyph name="braceright" format="1">
  <advance width="270.0"/>
  <unicode hex="007D"/>
  <outline>
    <contour>
      <point x="54" y="-150" type="line" smooth="yes"/>
      <point x="165" y="-150"/>
      <point x="212" y="-96"/>
      <point x="212" y="-17" type="curve" smooth="yes"/>
      <point x="212" y="66"/>
      <point x="164" y="131"/>
      <point x="164" y="199" type="curve" smooth="yes"/>
      <point x="164" y="243"/>
      <point x="185" y="282"/>
      <point x="250" y="282" type="curve" smooth="yes"/>
      <point x="275" y="282" type="line"/>
      <point x="275" y="309" type="line"/>
      <point x="250" y="309" type="line" smooth="yes"/>
      <point x="185" y="309"/>
      <point x="164" y="348"/>
      <point x="164" y="391" type="curve" smooth="yes"/>
      <point x="164" y="459"/>
      <point x="212" y="524"/>
      <point x="212" y="607" type="curve" smooth="yes"/>
      <point x="212" y="686"/>
      <point x="165" y="740"/>
      <point x="54" y="740" type="curve" smooth="yes"/>
      <point x="25" y="740" type="line"/>
      <point x="25" y="712" type="line"/>
      <point x="52" y="712" type="line" smooth="yes"/>
      <point x="110" y="712"/>
      <point x="138" y="677"/>
      <point x="138" y="625" type="curve" smooth="yes"/>
      <point x="138" y="547"/>
      <point x="95" y="482"/>
      <point x="95" y="413" type="curve" smooth="yes"/>
      <point x="95" y="364"/>
      <point x="121" y="317"/>
      <point x="191" y="295" type="curve"/>
      <point x="121" y="274"/>
      <point x="95" y="226"/>
      <point x="95" y="177" type="curve" smooth="yes"/>
      <point x="95" y="108"/>
      <point x="138" y="43"/>
      <point x="138" y="-35" type="curve" smooth="yes"/>
      <point x="138" y="-87"/>
      <point x="110" y="-122"/>
      <point x="52" y="-122" type="curve" smooth="yes"/>
      <point x="25" y="-122" type="line"/>
      <point x="25" y="-150" type="line"/>
    </contour>
  </outline>
</glyph>
<glyph name="asciitilde" format="1">
  <advance width="600"/>
  <unicode hex="007E"/>
  <outline>
    <contour>
      <point x="90" y="201" type="curve"/>
      <point x="147" y="201" type="line"/>
      <point x="147" y="257"/>
      <point x="168" y="288"/>
      <point x="201" y="288" type="curve" smooth="yes"/>
      <point x="265" y="288"/>
      <point x="300" y="201"/>
      <point x="396" y="201" type="curve" smooth="yes"/>
      <point x="469" y="201"/>
      <point x="510" y="250"/>
      <point x="510" y="343" type="curve"/>
      <point x="453" y="343" type="line"/>
      <point x="453" y="284"/>
      <point x="437" y="256"/>
      <point x="399" y="256" type="curve" smooth="yes"/>
      <point x="333" y="256"/>
      <point x="300" y="343"/>
      <point x="204" y="343" type="curve" smooth="yes"/>
      <point x="135" y="343"/>
      <point x="90" y="291"/>
    </contour>
  </outline>
</glyph>
<glyph name="exclamdown" format="1">
  <advance width="281"/>
  <unicode hex="00A1"/>
  <outline>
    <contour>
      <point x="47" y="-195" type="line"/>
      <point x="234" y="-195" type="line"/>
      <point x="161" y="235" type="line"/>
      <point x="121" y="235" type="line"/>
    </contour>
    <contour>
      <point x="141" y="304" type="curve" smooth="yes"/>
      <point x="186" y="304"/>
      <point x="224" y="342"/>
      <point x="224" y="387" type="curve" smooth="yes"/>
      <point x="224" y="432"/>
      <point x="186" y="470"/>
      <point x="141" y="470" type="curve" smooth="yes"/>
      <point x="96" y="470"/>
      <point x="58" y="432"/>
      <point x="58" y="387" type="curve" smooth="yes"/>
      <point x="58" y="342"/>
      <point x="96" y="304"/>
    </contour>
  </outline>
</glyph>
<glyph name="cent" format="2">
  <advance width="600"/>
  <unicode hex="00A2"/>
  <outline>
    <contour>
      <point x="209" y="26" type="line"/>
      <point x="255" y="26" type="line"/>
      <point x="405" y="635" type="line"/>
      <point x="359" y="635" type="line"/>
    </contour>
    <contour>
      <point x="371" y="221" type="curve" smooth="yes"/>
      <point x="284" y="221"/>
      <point x="241" y="283"/>
      <point x="241" y="375" type="curve" smooth="yes"/>
      <point x="241" y="461"/>
      <point x="267" y="526"/>
      <point x="321" y="526" type="curve" smooth="yes"/>
      <point x="339" y="526"/>
      <point x="350" y="522"/>
      <point x="369" y="515" type="curve"/>
      <point x="336" y="544" type="line"/>
      <point x="434" y="407" type="line"/>
      <point x="487" y="449" type="line" smooth="yes"/>
      <point x="496" y="456"/>
      <point x="501" y="465"/>
      <point x="501" y="482" type="curve" smooth="yes"/>
      <point x="501" y="514"/>
      <point x="459" y="570"/>
      <point x="342" y="570" type="curve" smooth="yes"/>
      <point x="187" y="570"/>
      <point x="72" y="468"/>
      <point x="72" y="309" type="curve" smooth="yes"/>
      <point x="72" y="177"/>
      <point x="164" y="90"/>
      <point x="293" y="90" type="curve" smooth="yes"/>
      <point x="393" y="90"/>
      <point x="462" y="144"/>
      <point x="500" y="217" type="curve"/>
      <point x="500" y="260" type="line"/>
      <point x="497" y="260" type="line"/>
      <point x="457" y="233"/>
      <point x="408" y="221"/>
    </contour>
  </outline>
</glyph>
<glyph name="sterling" format="2">
  <advance width="600"/>
  <unicode hex="00A3"/>
  <outline>
    <contour>
      <point x="368" y="617" type="curve" smooth="yes"/>
      <point x="381" y="617"/>
      <point x="394" y="615"/>
      <point x="409" y="612" type="curve"/>
      <point x="322" y="640" type="line"/>
      <point x="469" y="508" type="line"/>
      <point x="519" y="569" type="line" smooth="yes"/>
      <point x="525" y="576"/>
      <point x="528" y="585"/>
      <point x="528" y="595" type="curve" smooth="yes"/>
      <point x="528" y="632"/>
      <point x="478" y="670"/>
      <point x="397" y="670" type="curve" smooth="yes"/>
      <point x="251" y="670"/>
      <point x="121" y="552"/>
      <point x="121" y="448" type="curve" smooth="yes"/>
      <point x="121" y="222" type="line" smooth="yes"/>
      <point x="121" y="171"/>
      <point x="116" y="154"/>
      <point x="90" y="117" type="curve" smooth="yes"/>
      <point x="39" y="44" type="line"/>
      <point x="39" y="0" type="line"/>
      <point x="480" y="0" type="line"/>
      <point x="521" y="229" type="line"/>
      <point x="499" y="229" type="line"/>
      <point x="414" y="132" type="line"/>
      <point x="133" y="132" type="line"/>
      <point x="129" y="90" type="line"/>
      <point x="232" y="191" type="line" smooth="yes"/>
      <point x="285" y="242"/>
      <point x="293" y="264"/>
      <point x="293" y="313" type="curve" smooth="yes"/>
      <point x="293" y="514" type="line" smooth="yes"/>
      <point x="293" y="575"/>
      <point x="321" y="617"/>
    </contour>
    <contour>
      <point x="55" y="312" type="line"/>
      <point x="438" y="312" type="line"/>
      <point x="438" y="356" type="line"/>
      <point x="55" y="356" type="line"/>
    </contour>
  </outline>
</glyph>
<glyph name="currency" format="1">
  <advance width="600"/>
  <unicode hex="00A4"/>
  <outline>
    <contour>
      <point x="88" y="102" type="line"/>
      <point x="132" y="59" type="line"/>
      <point x="209" y="136" type="line"/>
      <point x="233" y="119"/>
      <point x="265" y="108"/>
      <point x="300" y="108" type="curve" smooth="yes"/>
      <point x="334" y="108"/>
      <point x="365" y="118"/>
      <point x="391" y="136" type="curve"/>
      <point x="468" y="59" type="line"/>
      <point x="512" y="102" type="line"/>
      <point x="435" y="179" type="line"/>
      <point x="453" y="205"/>
      <point x="464" y="237"/>
      <point x="464" y="272" type="curve" smooth="yes"/>
      <point x="464" y="306"/>
      <point x="453" y="338"/>
      <point x="435" y="365" type="curve"/>
      <point x="512" y="442" type="line"/>
      <point x="468" y="485" type="line"/>
      <point x="391" y="408" type="line"/>
      <point x="367" y="425"/>
      <point x="335" y="436"/>
      <point x="300" y="436" type="curve" smooth="yes"/>
      <point x="266" y="436"/>
      <point x="235" y="426"/>
      <point x="209" y="408" type="curve"/>
      <point x="132" y="485" type="line"/>
      <point x="88" y="442" type="line"/>
      <point x="165" y="365" type="line"/>
      <point x="147" y="339"/>
      <point x="136" y="307"/>
      <point x="136" y="272" type="curve" smooth="yes"/>
      <point x="136" y="238"/>
      <point x="147" y="206"/>
      <point x="165" y="179" type="curve"/>
    </contour>
    <contour>
      <point x="300" y="162" type="curve" smooth="yes"/>
      <point x="241" y="162"/>
      <point x="196" y="207"/>
      <point x="196" y="272" type="curve" smooth="yes"/>
      <point x="196" y="337"/>
      <point x="241" y="382"/>
      <point x="300" y="382" type="curve" smooth="yes"/>
      <point x="359" y="382"/>
      <point x="404" y="337"/>
      <point x="404" y="272" type="curve" smooth="yes"/>
      <point x="404" y="207"/>
      <point x="359" y="162"/>
    </contour>
  </outline>
</glyph>
<glyph name="yen" format="1">
  <advance width="600"/>
  <unicode hex="00A5"/>
  <outline>
    <contour>
      <point x="125" y="0" type="line"/>
      <point x="488" y="0" type="line"/>
      <point x="488" y="16" type="line"/>
      <point x="399" y="58" type="line"/>
      <point x="399" y="444" type="line"/>
      <point x="368" y="354" type="line"/>
      <point x="546" y="632" type="line"/>
      <point x="476" y="595" type="line"/>
      <point x="600" y="644" type="line"/>
      <point x="600" y="660" type="line"/>
      <point x="382" y="660" type="line"/>
      <point x="382" y="644" type="line"/>
      <point x="449" y="615" type="line"/>
      <point x="449" y="611" type="line"/>
      <point x="340" y="418" type="line"/>
      <point x="385" y="438" type="line"/>
      <point x="269" y="613" type="line"/>
      <point x="269" y="617" type="line"/>
      <point x="334" y="644" type="line"/>
      <point x="334" y="660" type="line"/>
      <point x="1" y="660" type="line"/>
      <point x="1" y="644" type="line"/>
      <point x="101" y="595" type="line"/>
      <point x="51" y="632" type="line"/>
      <point x="245" y="356" type="line"/>
      <point x="214" y="444" type="line"/>
      <point x="214" y="58" type="line"/>
      <point x="125" y="16" type="line"/>
    </contour>
    <contour>
      <point x="80" y="386" type="line"/>
      <point x="530" y="386" type="line"/>
      <point x="530" y="430" type="line"/>
      <point x="80" y="430" type="line"/>
    </contour>
    <contour>
      <point x="80" y="237" type="line"/>
      <point x="530" y="237" type="line"/>
      <point x="530" y="281" type="line"/>
      <point x="80" y="281" type="line"/>
    </contour>
  </outline>
</glyph>
<glyph name="brokenbar" format="1">
  <advance width="250"/>
  <unicode hex="00A6"/>
  <outline>
    <contour>
      <point x="100" y="350" type="line"/>
      <point x="150" y="350" type="line"/>
      <point x="150" y="750" type="line"/>
      <point x="100" y="750" type="line"/>
    </contour>
    <contour>
      <point x="100" y="-250" type="line"/>
      <point x="150" y="-250" type="line"/>
      <point x="150" y="150" type="line"/>
      <point x="100" y="150" type="line"/>
    </contour>
  </outline>
</glyph>
<glyph name="section" format="2">
  <advance width="557"/>
  <unicode hex="00A7"/>
  <outline>
    <contour>
      <point x="159" y="-62" type="curve"/>
      <point x="243" y="-100" type="line"/>
      <point x="131" y="24" type="line"/>
      <point x="87" y="-17" type="line" smooth="yes"/>
      <point x="78" y="-25"/>
      <point x="71" y="-34"/>
      <point x="71" y="-43" type="curve" smooth="yes"/>
      <point x="71" y="-78"/>
      <point x="145" y="-122"/>
      <point x="241" y="-122" type="curve" smooth="yes"/>
      <point x="370" y="-122"/>
      <point x="468" y="-42"/>
      <point x="468" y="52" type="curve" smooth="yes"/>
      <point x="468" y="131"/>
      <point x="424" y="177"/>
      <point x="303" y="210" type="curve" smooth="yes"/>
      <point x="182" y="243"/>
      <point x="158" y="268"/>
      <point x="158" y="309" type="curve" smooth="yes"/>
      <point x="158" y="340"/>
      <point x="180" y="367"/>
      <point x="217" y="381" type="curve"/>
      <point x="217" y="414" type="line"/>
      <point x="110" y="401"/>
      <point x="30" y="337"/>
      <point x="30" y="240" type="curve" smooth="yes"/>
      <point x="30" y="167"/>
      <point x="77" y="114"/>
      <point x="195" y="81" type="curve" smooth="yes"/>
      <point x="313" y="48"/>
      <point x="333" y="24"/>
      <point x="333" y="-12" type="curve" smooth="yes"/>
      <point x="333" y="-55"/>
      <point x="295" y="-78"/>
      <point x="242" y="-78" type="curve" smooth="yes"/>
      <point x="212" y="-78"/>
      <point x="182" y="-71"/>
    </contour>
    <contour>
      <point x="316" y="670" type="curve" smooth="yes"/>
      <point x="187" y="670"/>
      <point x="100" y="595"/>
      <point x="100" y="492" type="curve" smooth="yes"/>
      <point x="100" y="416"/>
      <point x="142" y="368"/>
      <point x="256" y="337" type="curve" smooth="yes"/>
      <point x="370" y="306"/>
      <point x="399" y="282"/>
      <point x="399" y="239" type="curve" smooth="yes"/>
      <point x="399" y="210"/>
      <point x="381" y="189"/>
      <point x="349" y="178" type="curve"/>
      <point x="349" y="134" type="line"/>
      <point x="468" y="150"/>
      <point x="527" y="218"/>
      <point x="527" y="304" type="curve" smooth="yes"/>
      <point x="527" y="378"/>
      <point x="484" y="427"/>
      <point x="372" y="462" type="curve" smooth="yes"/>
      <point x="260" y="497"/>
      <point x="236" y="522"/>
      <point x="236" y="559" type="curve" smooth="yes"/>
      <point x="236" y="597"/>
      <point x="263" y="620"/>
      <point x="306" y="620" type="curve" smooth="yes"/>
      <point x="327" y="620"/>
      <point x="346" y="616"/>
      <point x="362" y="610" type="curve"/>
      <point x="304" y="643" type="line"/>
      <point x="416" y="524" type="line"/>
      <point x="464" y="574" type="line" smooth="yes"/>
      <point x="473" y="583"/>
      <point x="478" y="590"/>
      <point x="478" y="597" type="curve" smooth="yes"/>
      <point x="478" y="631"/>
      <point x="414" y="670"/>
    </contour>
  </outline>
</glyph>
<glyph name="copyright" format="1">
  <advance width="806"/>
  <unicode hex="00A9"/>
  <outline>
    <contour>
      <point x="403" y="-10" type="curve" smooth="yes"/>
      <point x="594" y="-10"/>
      <point x="736" y="134"/>
      <point x="736" y="330" type="curve" smooth="yes"/>
      <point x="736" y="526"/>
      <point x="594" y="670"/>
      <point x="403" y="670" type="curve" smooth="yes"/>
      <point x="212" y="670"/>
      <point x="70" y="526"/>
      <point x="70" y="330" type="curve" smooth="yes"/>
      <point x="70" y="134"/>
      <point x="212" y="-10"/>
    </contour>
    <contour>
      <point x="403" y="32" type="curve" smooth="yes"/>
      <point x="238" y="32"/>
      <point x="115" y="158"/>
      <point x="115" y="330" type="curve" smooth="yes"/>
      <point x="115" y="502"/>
      <point x="238" y="628"/>
      <point x="403" y="628" type="curve" smooth="yes"/>
      <point x="568" y="628"/>
      <point x="691" y="502"/>
      <point x="691" y="330" type="curve" smooth="yes"/>
      <point x="691" y="158"/>
      <point x="568" y="32"/>
    </contour>
    <contour>
      <point x="420" y="129" type="curve" smooth="yes"/>
      <point x="484" y="129"/>
      <point x="523" y="144"/>
      <point x="564" y="164" type="curve"/>
      <point x="572" y="266" type="line"/>
      <point x="543" y="266" type="line"/>
      <point x="477" y="176" type="line"/>
      <point x="527" y="210" type="line"/>
      <point x="504" y="195"/>
      <point x="479" y="175"/>
      <point x="433" y="175" type="curve" smooth="yes"/>
      <point x="368" y="175"/>
      <point x="319" y="237"/>
      <point x="319" y="341" type="curve" smooth="yes"/>
      <point x="319" y="430"/>
      <point x="368" y="495"/>
      <point x="436" y="495" type="curve" smooth="yes"/>
      <point x="466" y="495"/>
      <point x="484" y="483"/>
      <point x="520" y="458" type="curve"/>
      <point x="473" y="502" type="line"/>
      <point x="536" y="394" type="line"/>
      <point x="565" y="394" type="line"/>
      <point x="561" y="509" type="line"/>
      <point x="524" y="528"/>
      <point x="493" y="540"/>
      <point x="431" y="540" type="curve" smooth="yes"/>
      <point x="304" y="540"/>
      <point x="199" y="448"/>
      <point x="199" y="324" type="curve" smooth="yes"/>
      <point x="199" y="205"/>
      <point x="282" y="129"/>
    </contour>
  </outline>
</glyph>
<glyph name="ordfeminine" format="1">
  <advance width="423"/>
  <unicode hex="00AA"/>
  <outline>
    <contour>
      <point x="144" y="417" type="curve" smooth="yes"/>
      <point x="175" y="417"/>
      <point x="201" y="433"/>
      <point x="219" y="453" type="curve"/>
      <point x="228" y="453" type="line"/>
      <point x="228" y="470" type="line"/>
      <point x="216" y="464"/>
      <point x="212" y="463"/>
      <point x="202" y="463" type="curve" smooth="yes"/>
      <point x="186" y="463"/>
      <point x="171" y="476"/>
      <point x="171" y="494" type="curve" smooth="yes"/>
      <point x="171" y="522"/>
      <point x="187" y="537"/>
      <point x="235" y="546" type="curve"/>
      <point x="235" y="569" type="line"/>
      <point x="168" y="552" type="line" smooth="yes"/>
      <point x="101" y="535"/>
      <point x="82" y="515"/>
      <point x="82" y="477" type="curve" smooth="yes"/>
      <point x="82" y="439"/>
      <point x="110" y="417"/>
    </contour>
    <contour>
      <point x="287" y="417" type="curve" smooth="yes"/>
      <point x="327" y="417"/>
      <point x="344" y="432"/>
      <point x="354" y="446" type="curve"/>
      <point x="354" y="457" type="line"/>
      <point x="352" y="459" type="line"/>
      <point x="337" y="459" type="line" smooth="yes"/>
      <point x="324" y="459"/>
      <point x="315" y="463"/>
      <point x="310" y="468" type="curve"/>
      <point x="310" y="602" type="line" smooth="yes"/>
      <point x="310" y="651"/>
      <point x="263" y="670"/>
      <point x="206" y="670" type="curve" smooth="yes"/>
      <point x="176" y="670"/>
      <point x="151" y="663"/>
      <point x="124" y="646" type="curve" smooth="yes"/>
      <point x="103" y="633"/>
      <point x="91" y="618"/>
      <point x="91" y="602" type="curve" smooth="yes"/>
      <point x="91" y="590"/>
      <point x="94" y="586"/>
      <point x="105" y="586" type="curve" smooth="yes"/>
      <point x="162" y="586" type="line"/>
      <point x="164" y="588" type="line"/>
      <point x="164" y="619" type="line" smooth="yes"/>
      <point x="164" y="635"/>
      <point x="170" y="641"/>
      <point x="185" y="641" type="curve" smooth="yes"/>
      <point x="207" y="641"/>
      <point x="218" y="624"/>
      <point x="218" y="601" type="curve" smooth="yes"/>
      <point x="218" y="459" type="line"/>
      <point x="220" y="459" type="line"/>
      <point x="227" y="433"/>
      <point x="255" y="417"/>
    </contour>
    <contour>
      <point x="85" y="290" type="line"/>
      <point x="345" y="290" type="line"/>
      <point x="345" y="345" type="line"/>
      <point x="85" y="345" type="line"/>
    </contour>
  </outline>
</glyph>
<glyph name="logicalnot" format="1">
  <advance width="600"/>
  <unicode hex="00AC"/>
  <outline>
    <contour>
      <point x="448" y="62" type="line"/>
      <point x="510" y="62" type="line"/>
      <point x="510" y="301" type="line"/>
      <point x="90" y="301" type="line"/>
      <point x="90" y="243" type="line"/>
      <point x="448" y="243" type="line"/>
    </contour>
  </outline>
</glyph>
<glyph name="registered" format="1">
  <advance width="560.0"/>
  <unicode hex="00AE"/>
  <outline>
    <contour>
      <point x="280" y="220" type="curve" smooth="yes"/>
      <point x="408" y="220"/>
      <point x="501" y="317"/>
      <point x="501" y="445" type="curve" smooth="yes"/>
      <point x="501" y="573"/>
      <point x="408" y="670"/>
      <point x="280" y="670" type="curve" smooth="yes"/>
      <point x="152" y="670"/>
      <point x="59" y="573"/>
      <point x="59" y="445" type="curve" smooth="yes"/>
      <point x="59" y="317"/>
      <point x="152" y="220"/>
    </contour>
    <contour>
      <point x="280" y="255" type="curve" smooth="yes"/>
      <point x="172" y="255"/>
      <point x="99" y="337"/>
      <point x="99" y="445" type="curve" smooth="yes"/>
      <point x="99" y="553"/>
      <point x="172" y="635"/>
      <point x="280" y="635" type="curve" smooth="yes"/>
      <point x="388" y="635"/>
      <point x="461" y="553"/>
      <point x="461" y="445" type="curve" smooth="yes"/>
      <point x="461" y="337"/>
      <point x="388" y="255"/>
    </contour>
    <contour>
      <point x="161" y="319" type="line"/>
      <point x="284" y="319" type="line"/>
      <point x="284" y="326" type="line"/>
      <point x="254" y="342" type="line"/>
      <point x="254" y="574" type="line"/>
      <point x="161" y="574" type="line"/>
      <point x="161" y="568" type="line"/>
      <point x="192" y="552" type="line"/>
      <point x="192" y="342" type="line"/>
      <point x="161" y="326" type="line"/>
    </contour>
    <contour>
      <point x="375" y="511" type="curve" smooth="yes"/>
      <point x="375" y="550"/>
      <point x="342" y="574"/>
      <point x="288" y="574" type="curve" smooth="yes"/>
      <point x="209" y="574" type="line"/>
      <point x="209" y="551" type="line"/>
      <point x="256" y="551" type="line" smooth="yes"/>
      <point x="287" y="551"/>
      <point x="310" y="537"/>
      <point x="310" y="506" type="curve" smooth="yes"/>
      <point x="310" y="475"/>
      <point x="287" y="459"/>
      <point x="258" y="459" type="curve" smooth="yes"/>
      <point x="212" y="459" type="line"/>
      <point x="212" y="436" type="line"/>
      <point x="292" y="436" type="line"/>
      <point x="292" y="439" type="line"/>
      <point x="340" y="444"/>
      <point x="375" y="474"/>
    </contour>
    <contour>
      <point x="317" y="319" type="line"/>
      <point x="403" y="319" type="line"/>
      <point x="403" y="326" type="line"/>
      <point x="377" y="339" type="line"/>
      <point x="320" y="451" type="line"/>
      <point x="259" y="451" type="line"/>
    </contour>
  </outline>
</glyph>
<glyph name="degree" format="1">
  <advance width="500"/>
  <unicode hex="00B0"/>
  <outline>
    <contour>
      <point x="250" y="410" type="curve" smooth="yes"/>
      <point x="325" y="410"/>
      <point x="380" y="470"/>
      <point x="380" y="540" type="curve" smooth="yes"/>
      <point x="380" y="610"/>
      <point x="325" y="670"/>
      <point x="250" y="670" type="curve" smooth="yes"/>
      <point x="175" y="670"/>
      <point x="120" y="610"/>
      <point x="120" y="540" type="curve" smooth="yes"/>
      <point x="120" y="470"/>
      <point x="175" y="410"/>
    </contour>
    <contour>
      <point x="250" y="456" type="curve" smooth="yes"/>
      <point x="207.0" y="456.0"/>
      <point x="173.0" y="487.756097561"/>
      <point x="173" y="540" type="curve" smooth="yes"/>
      <point x="173.0" y="592.243902439"/>
      <point x="207.0" y="624.0"/>
      <point x="250" y="624" type="curve" smooth="yes"/>
      <point x="293.0" y="624.0"/>
      <point x="327.0" y="592.243902439"/>
      <point x="327" y="540" type="curve" smooth="yes"/>
      <point x="327.0" y="487.756097561"/>
      <point x="293.0" y="456.0"/>
    </contour>
  </outline>
</glyph>
<glyph name="plusminus" format="1">
  <advance width="600"/>
  <unicode hex="00B1"/>
  <outline>
    <contour>
      <point x="90" y="283" type="line"/>
      <point x="510" y="283" type="line"/>
      <point x="510" y="341" type="line"/>
      <point x="90" y="341" type="line"/>
    </contour>
    <contour>
      <point x="269" y="152" type="line"/>
      <point x="331" y="152" type="line"/>
      <point x="331" y="482" type="line"/>
      <point x="269" y="482" type="line"/>
    </contour>
    <contour>
      <point x="90" y="58" type="line"/>
      <point x="510" y="58" type="line"/>
      <point x="510" y="116" type="line"/>
      <point x="90" y="116" type="line"/>
    </contour>
  </outline>
</glyph>
<glyph name="paragraph" format="1">
  <advance width="528"/>
  <unicode hex="00B6"/>
  <outline>
    <contour>
      <point x="263" y="-110" type="line"/>
      <point x="326" y="-110" type="line"/>
      <point x="326" y="660" type="line"/>
      <point x="207" y="660" type="line" smooth="yes"/>
      <point x="104" y="660"/>
      <point x="35" y="615"/>
      <point x="35" y="514" type="curve" smooth="yes"/>
      <point x="35" y="425"/>
      <point x="115" y="359"/>
      <point x="223" y="359" type="curve" smooth="yes"/>
      <point x="263" y="359" type="line"/>
    </contour>
    <contour>
      <point x="376" y="-110" type="line"/>
      <point x="439" y="-110" type="line"/>
      <point x="439" y="602" type="line"/>
      <point x="528" y="644" type="line"/>
      <point x="528" y="660" type="line"/>
      <point x="376" y="660" type="line"/>
    </contour>
  </outline>
</glyph>
<glyph name="periodcentered" format="1">
  <advance width="250"/>
  <unicode hex="00B7"/>
  <outline>
    <contour>
      <point x="125" y="189" type="curve" smooth="yes"/>
      <point x="170" y="189"/>
      <point x="208" y="227"/>
      <point x="208" y="272" type="curve" smooth="yes"/>
      <point x="208" y="317"/>
      <point x="170" y="355"/>
      <point x="125" y="355" type="curve" smooth="yes"/>
      <point x="80" y="355"/>
      <point x="42" y="317"/>
      <point x="42" y="272" type="curve" smooth="yes"/>
      <point x="42" y="227"/>
      <point x="80" y="189"/>
    </contour>
  </outline>
</glyph>
<glyph name="ordmasculine" format="1">
  <advance width="423"/>
  <unicode hex="00BA"/>
  <outline>
    <contour>
      <point x="211" y="416" type="curve" smooth="yes"/>
      <point x="292" y="416"/>
      <point x="348.0" y="473.0"/>
      <point x="348" y="543" type="curve" smooth="yes"/>
      <point x="348.0" y="612.0"/>
      <point x="293" y="670"/>
      <point x="212" y="670" type="curve" smooth="yes"/>
      <point x="130" y="670"/>
      <point x="75.0" y="612.0"/>
      <point x="75" y="543" type="curve" smooth="yes"/>
      <point x="75.0" y="473.0"/>
      <point x="129" y="416"/>
    </contour>
    <contour>
      <point x="216" y="444" type="curve" smooth="yes"/>
      <point x="181" y="444"/>
      <point x="171" y="502"/>
      <point x="171" y="554" type="curve" smooth="yes"/>
      <point x="171" y="596"/>
      <point x="179" y="642"/>
      <point x="207" y="642" type="curve" smooth="yes"/>
      <point x="241" y="642"/>
      <point x="252" y="584"/>
      <point x="252" y="532" type="curve" smooth="yes"/>
      <point x="252" y="491"/>
      <point x="243" y="444"/>
    </contour>
    <contour>
      <point x="85" y="290" type="line"/>
      <point x="345" y="290" type="line"/>
      <point x="345" y="345" type="line"/>
      <point x="85" y="345" type="line"/>
    </contour>
  </outline>
</glyph>
<glyph name="questiondown" format="2">
  <advance width="479"/>
  <unicode hex="00BF"/>
  <outline>
    <contour>
      <point x="287" y="235" type="line"/>
      <point x="248" y="235" type="line"/>
      <point x="227" y="140" type="line"/>
      <point x="264" y="163" type="line"/>
      <point x="114" y="161"/>
      <point x="22" y="79"/>
      <point x="22" y="-28" type="curve" smooth="yes"/>
      <point x="22" y="-131"/>
      <point x="96" y="-205"/>
      <point x="232" y="-205" type="curve" smooth="yes"/>
      <point x="359" y="-205"/>
      <point x="457" y="-122"/>
      <point x="457" y="-44" type="curve" smooth="yes"/>
      <point x="457" y="-20"/>
      <point x="449" y="-11"/>
      <point x="427" y="-11" type="curve" smooth="yes"/>
      <point x="321" y="-11" type="line"/>
      <point x="321" y="-174" type="line"/>
      <point x="373" y="-97" type="line"/>
      <point x="347" y="-136"/>
      <point x="307" y="-155"/>
      <point x="257" y="-155" type="curve" smooth="yes"/>
      <point x="191" y="-155"/>
      <point x="162" y="-116"/>
      <point x="162" y="-61" type="curve" smooth="yes"/>
      <point x="162" y="12"/>
      <point x="211" y="61"/>
      <point x="323" y="66" type="curve"/>
    </contour>
    <contour>
      <point x="270" y="470" type="curve" smooth="yes"/>
      <point x="225" y="470"/>
      <point x="187" y="432"/>
      <point x="187" y="387" type="curve" smooth="yes"/>
      <point x="187" y="342"/>
      <point x="225" y="304"/>
      <point x="270" y="304" type="curve" smooth="yes"/>
      <point x="315" y="304"/>
      <point x="353" y="342"/>
      <point x="353" y="387" type="curve" smooth="yes"/>
      <point x="353" y="432"/>
      <point x="315" y="470"/>
    </contour>
  </outline>
</glyph>
<glyph name="AE" format="1">
  <advance width="1059.0"/>
  <unicode hex="00C6"/>
  <outline>
    <contour>
      <point x="464" y="660" type="line"/>
      <point x="59" y="28" type="line"/>
      <point x="129" y="83" type="line"/>
      <point x="10" y="16" type="line"/>
      <point x="10" y="0" type="line"/>
      <point x="227" y="0" type="line"/>
      <point x="227" y="16" type="line"/>
      <point x="125" y="62" type="line"/>
      <point x="134" y="28" type="line"/>
      <point x="500" y="599" type="line"/>
      <point x="478" y="599" type="line"/>
      <point x="478" y="58" type="line"/>
      <point x="389" y="16" type="line"/>
      <point x="389" y="0" type="line"/>
      <point x="668" y="0" type="line"/>
      <point x="668" y="660" type="line"/>
    </contour>
    <contour>
      <point x="223" y="227" type="line"/>
      <point x="543" y="227" type="line"/>
      <point x="543" y="282" type="line"/>
      <point x="223" y="282" type="line"/>
    </contour>
    <contour>
      <point x="971" y="660" type="line"/>
      <point x="566" y="660" type="line"/>
      <point x="566" y="605" type="line"/>
      <point x="873" y="605" type="line"/>
      <point x="955" y="486" type="line"/>
      <point x="971" y="486" type="line"/>
    </contour>
    <contour>
      <point x="574" y="313" type="line"/>
      <point x="812" y="313" type="line"/>
      <point x="872" y="227" type="line"/>
      <point x="888" y="227" type="line"/>
      <point x="888" y="456" type="line"/>
      <point x="872" y="456" type="line"/>
      <point x="812" y="368" type="line"/>
      <point x="574" y="368" type="line"/>
    </contour>
    <contour>
      <point x="999" y="0" type="line"/>
      <point x="999" y="219" type="line"/>
      <point x="983" y="219" type="line"/>
      <point x="894" y="55" type="line"/>
      <point x="594" y="55" type="line"/>
      <point x="594" y="0" type="line"/>
    </contour>
    <contour>
      <point x="580" y="710" type="move" name="top"/>
    </contour>
  </outline>
</glyph>
<glyph name="Ccedilla" format="1">
  <advance width="701"/>
  <unicode hex="00C7"/>
  <outline>
    <contour>
      <point x="398" y="-10" type="curve" smooth="yes"/>
      <point x="486" y="-10"/>
      <point x="578" y="10"/>
      <point x="629" y="44" type="curve"/>
      <point x="646" y="219" type="line"/>
      <point x="628" y="219" type="line"/>
      <point x="505" y="51" type="line"/>
      <point x="541" y="82" type="line"/>
      <point x="500" y="54"/>
      <point x="462" y="45"/>
      <point x="420" y="45" type="curve" smooth="yes"/>
      <point x="312" y="45"/>
      <point x="234" y="150"/>
      <point x="234" y="316" type="curve" smooth="yes"/>
      <point x="234" y="503"/>
      <point x="317" y="620"/>
      <point x="424" y="620" type="curve" smooth="yes"/>
      <point x="470" y="620"/>
      <point x="492" y="612"/>
      <point x="524" y="591" type="curve"/>
      <point x="495" y="615" type="line"/>
      <point x="621" y="428" type="line"/>
      <point x="639" y="428" type="line"/>
      <point x="624" y="622" type="line"/>
      <point x="566" y="650"/>
      <point x="523" y="670"/>
      <point x="415" y="670" type="curve" smooth="yes"/>
      <point x="222" y="670"/>
      <point x="35" y="524"/>
      <point x="35" y="319" type="curve" smooth="yes"/>
      <point x="35" y="133"/>
      <point x="185" y="-10"/>
    </contour>
    <contour>
      <point x="370" y="-208" type="curve" smooth="yes"/>
      <point x="354" y="-208"/>
      <point x="332" y="-205"/>
      <point x="317" y="-197" type="curve"/>
      <point x="313" y="-197" type="line"/>
      <point x="313" y="-220" type="line"/>
      <point x="334" y="-233"/>
      <point x="359" y="-240"/>
      <point x="393" y="-240" type="curve" smooth="yes"/>
      <point x="458" y="-240"/>
      <point x="503" y="-200"/>
      <point x="503" y="-143" type="curve" smooth="yes"/>
      <point x="503" y="-85"/>
      <point x="471" y="-51"/>
      <point x="371" y="-27" type="curve"/>
      <point x="388" y="-61" type="line"/>
      <point x="428" y="27" type="line"/>
      <point x="388" y="27" type="line"/>
      <point x="329" y="-103" type="line"/>
      <point x="408" y="-122"/>
      <point x="426" y="-142"/>
      <point x="426" y="-170" type="curve" smooth="yes"/>
      <point x="426" y="-196"/>
      <point x="404" y="-208"/>
    </contour>
  </outline>
</glyph>
<glyph name="multiply" format="1">
  <advance width="600"/>
  <unicode hex="00D7"/>
  <outline>
    <contour>
      <point x="155" y="84" type="line"/>
      <point x="488" y="418" type="line"/>
      <point x="445" y="462" type="line"/>
      <point x="112" y="128" type="line"/>
    </contour>
    <contour>
      <point x="445" y="84" type="line"/>
      <point x="488" y="128" type="line"/>
      <point x="155" y="462" type="line"/>
      <point x="112" y="418" type="line"/>
    </contour>
  </outline>
</glyph>
<glyph name="Oslash" format="1">
  <advance width="777"/>
  <unicode hex="00D8"/>
  <outline>
    <contour>
      <point x="388" y="-10" type="curve" smooth="yes"/>
      <point x="591" y="-10"/>
      <point x="742" y="134"/>
      <point x="742" y="330" type="curve" smooth="yes"/>
      <point x="742" y="526"/>
      <point x="591" y="670"/>
      <point x="388" y="670" type="curve" smooth="yes"/>
      <point x="186" y="670"/>
      <point x="35" y="526"/>
      <point x="35" y="330" type="curve" smooth="yes"/>
      <point x="35" y="134"/>
      <point x="186" y="-10"/>
    </contour>
    <contour>
      <point x="401" y="43" type="curve" smooth="yes"/>
      <point x="309" y="43"/>
      <point x="235" y="169"/>
      <point x="235" y="361" type="curve" smooth="yes"/>
      <point x="235" y="518"/>
      <point x="296" y="618"/>
      <point x="377" y="618" type="curve" smooth="yes"/>
      <point x="470" y="618"/>
      <point x="542" y="493"/>
      <point x="542" y="301" type="curve" smooth="yes"/>
      <point x="542" y="144"/>
      <point x="485" y="43"/>
    </contour>
    <contour>
      <point x="35" y="-10" type="line"/>
      <point x="115" y="-10" type="line"/>
      <point x="742" y="670" type="line"/>
      <point x="662" y="670" type="line"/>
    </contour>
    <contour>
      <point x="389.0" y="710.0" type="move" name="top"/>
    </contour>
  </outline>
</glyph>
<glyph name="Thorn" format="1">
  <advance width="713"/>
  <unicode hex="00DE"/>
  <outline>
    <contour>
      <point x="30" y="0" type="line"/>
      <point x="398" y="0" type="line"/>
      <point x="398" y="16" type="line"/>
      <point x="309" y="58" type="line"/>
      <point x="309" y="602" type="line"/>
      <point x="398" y="644" type="line"/>
      <point x="398" y="660" type="line"/>
      <point x="30" y="660" type="line"/>
      <point x="30" y="644" type="line"/>
      <point x="119" y="602" type="line"/>
      <point x="119" y="58" type="line"/>
      <point x="30" y="16" type="line"/>
    </contour>
    <contour>
      <point x="408" y="162" type="line" smooth="yes"/>
      <point x="571" y="162"/>
      <point x="693" y="234"/>
      <point x="693" y="349" type="curve" smooth="yes"/>
      <point x="693" y="473"/>
      <point x="589" y="526"/>
      <point x="432" y="526" type="curve" smooth="yes"/>
      <point x="284" y="526" type="line"/>
      <point x="284" y="471" type="line"/>
      <point x="327" y="471" type="line" smooth="yes"/>
      <point x="440" y="471"/>
      <point x="503" y="432"/>
      <point x="503" y="339" type="curve" smooth="yes"/>
      <point x="503" y="264"/>
      <point x="439" y="207"/>
      <point x="334" y="207" type="curve" smooth="yes"/>
      <point x="284" y="207" type="line"/>
      <point x="284" y="162" type="line"/>
    </contour>
  </outline>
</glyph>
<glyph name="germandbls" format="1">
  <advance width="718"/>
  <unicode hex="00DF"/>
  <outline>
    <contour>
      <point x="31" y="0" type="line"/>
      <point x="274" y="0" type="line"/>
      <point x="274" y="536" type="line" smooth="yes"/>
      <point x="274" y="637.0"/>
      <point x="296" y="699"/>
      <point x="372" y="699" type="curve" smooth="yes"/>
      <point x="426.0" y="699.0"/>
      <point x="450" y="653"/>
      <point x="450" y="590" type="curve" smooth="yes"/>
      <point x="450" y="444"/>
      <point x="349.0" y="439.611510791"/>
      <point x="349" y="322" type="curve" smooth="yes"/>
      <point x="349" y="255"/>
      <point x="382" y="222"/>
      <point x="426" y="197" type="curve" smooth="yes"/>
      <point x="492" y="161"/>
      <point x="541" y="149"/>
      <point x="541" y="98" type="curve" smooth="yes"/>
      <point x="541" y="65"/>
      <point x="516" y="40"/>
      <point x="475" y="40" type="curve" smooth="yes"/>
      <point x="439" y="40"/>
      <point x="404" y="64"/>
      <point x="382" y="95" type="curve" smooth="yes"/>
      <point x="345" y="146" type="line"/>
      <point x="329" y="146" type="line"/>
      <point x="329" y="28" type="line"/>
      <point x="376" y="5"/>
      <point x="419" y="-10"/>
      <point x="487" y="-10" type="curve" smooth="yes"/>
      <point x="592" y="-10"/>
      <point x="678" y="55"/>
      <point x="678" y="147" type="curve" smooth="yes"/>
      <point x="678" y="200"/>
      <point x="666" y="242"/>
      <point x="594" y="288" type="curve" smooth="yes"/>
      <point x="529" y="329"/>
      <point x="463" y="349"/>
      <point x="463" y="404" type="curve" smooth="yes"/>
      <point x="463" y="500"/>
      <point x="607" y="495"/>
      <point x="607" y="615" type="curve" smooth="yes"/>
      <point x="607" y="688"/>
      <point x="543" y="750"/>
      <point x="391" y="750" type="curve" smooth="yes"/>
      <point x="201" y="750"/>
      <point x="94" y="616.0"/>
      <point x="94" y="480" type="curve" smooth="yes"/>
      <point x="94" y="48" type="line"/>
      <point x="31" y="16" type="line"/>
    </contour>
    <contour>
      <point x="16" y="413" type="line"/>
      <point x="126" y="413" type="line"/>
      <point x="126" y="460" type="line"/>
      <point x="16" y="460" type="line"/>
    </contour>
  </outline>
</glyph>
<glyph name="ae" format="2">
  <advance width="755"/>
  <unicode hex="00E6"/>
  <anchor x="386" y="510" name="top"/>
  <outline>
    <contour>
      <point x="282" y="333" type="curve" smooth="yes"/>
      <point x="282" y="209" type="line" smooth="yes"/>
      <point x="282" y="77"/>
      <point x="370" y="-10"/>
      <point x="513" y="-10" type="curve" smooth="yes"/>
      <point x="614" y="-10"/>
      <point x="691" y="46"/>
      <point x="725" y="124" type="curve"/>
      <point x="725" y="145" type="line"/>
      <point x="722" y="145" type="line"/>
      <point x="680" y="124"/>
      <point x="637" y="119"/>
      <point x="598" y="119" type="curve" smooth="yes"/>
      <point x="500" y="119"/>
      <point x="454" y="171"/>
      <point x="454" y="247" type="curve" smooth="yes"/>
      <point x="454" y="359"/>
      <point x="479" y="425"/>
      <point x="523" y="425" type="curve" smooth="yes"/>
      <point x="562" y="425"/>
      <point x="585" y="396"/>
      <point x="591" y="294" type="curve"/>
      <point x="647" y="306" type="line"/>
      <point x="390" y="306" type="line"/>
      <point x="390" y="262" type="line"/>
      <point x="721" y="262" type="line"/>
      <point x="724" y="267" type="line"/>
      <point x="722" y="395"/>
      <point x="661" y="470"/>
      <point x="551" y="470" type="curve" smooth="yes"/>
      <point x="480" y="470"/>
      <point x="416" y="446"/>
      <point x="369" y="405" type="curve"/>
      <point x="437" y="405" type="line"/>
      <point x="403" y="449"/>
      <point x="337" y="470"/>
      <point x="258" y="470" type="curve" smooth="yes"/>
      <point x="149" y="470"/>
      <point x="38" y="400"/>
      <point x="38" y="335" type="curve" smooth="yes"/>
      <point x="38" y="309"/>
      <point x="44" y="297"/>
      <point x="69" y="297" type="curve" smooth="yes"/>
      <point x="158" y="297" type="line"/>
      <point x="158" y="428" type="line"/>
      <point x="122" y="381" type="line"/>
      <point x="150" y="406"/>
      <point x="175" y="414"/>
      <point x="206" y="414" type="curve" smooth="yes"/>
      <point x="255" y="414"/>
      <point x="282" y="388"/>
    </contour>
    <contour>
      <point x="148" y="-9" type="curve" smooth="yes"/>
      <point x="223" y="-9"/>
      <point x="274" y="28"/>
      <point x="311" y="77" type="curve"/>
      <point x="330" y="77" type="line"/>
      <point x="330" y="112" type="line"/>
      <point x="307" y="97"/>
      <point x="281" y="84"/>
      <point x="253" y="84" type="curve" smooth="yes"/>
      <point x="216" y="84"/>
      <point x="192" y="105"/>
      <point x="192" y="147" type="curve" smooth="yes"/>
      <point x="192" y="204"/>
      <point x="227" y="224"/>
      <point x="314" y="240" type="curve"/>
      <point x="314" y="287" type="line"/>
      <point x="188" y="254" type="line" smooth="yes"/>
      <point x="54" y="219"/>
      <point x="25" y="190"/>
      <point x="25" y="113" type="curve" smooth="yes"/>
      <point x="25" y="34"/>
      <point x="82" y="-9"/>
    </contour>
  </outline>
</glyph>
<glyph name="eth" format="1">
  <advance width="557"/>
  <unicode hex="00F0"/>
  <outline>
    <contour>
      <point x="275" y="-10" type="curve" smooth="yes"/>
      <point x="420" y="-10"/>
      <point x="532" y="95"/>
      <point x="532" y="264" type="curve" smooth="yes"/>
      <point x="532" y="495"/>
      <point x="334" y="695"/>
      <point x="62" y="749" type="curve"/>
      <point x="62" y="699" type="line"/>
      <point x="247" y="634"/>
      <point x="347" y="516"/>
      <point x="347" y="269" type="curve" smooth="yes"/>
      <point x="347" y="110"/>
      <point x="328" y="43"/>
      <point x="278" y="43" type="curve" smooth="yes"/>
      <point x="232" y="43"/>
      <point x="205" y="108"/>
      <point x="205" y="235" type="curve" smooth="yes"/>
      <point x="205" y="341"/>
      <point x="218" y="418"/>
      <point x="275" y="418" type="curve" smooth="yes"/>
      <point x="321" y="418"/>
      <point x="335" y="383"/>
      <point x="358" y="336" type="curve"/>
      <point x="391" y="439" type="line"/>
      <point x="357" y="454"/>
      <point x="326" y="470"/>
      <point x="267" y="470" type="curve" smooth="yes"/>
      <point x="130" y="470"/>
      <point x="25" y="366"/>
      <point x="25" y="230" type="curve" smooth="yes"/>
      <point x="25" y="93"/>
      <point x="131" y="-10"/>
    </contour>
    <contour>
      <point x="113" y="523" type="line"/>
      <point x="189" y="523" type="line"/>
      <point x="434" y="741" type="line"/>
      <point x="358" y="741" type="line"/>
    </contour>
  </outline>
</glyph>
<glyph name="divide" format="1">
  <advance width="600"/>
  <unicode hex="00F7"/>
  <outline>
    <contour>
      <point x="90" y="243" type="line"/>
      <point x="510" y="243" type="line"/>
      <point x="510" y="301" type="line"/>
      <point x="90" y="301" type="line"/>
    </contour>
    <contour>
      <point x="263" y="410" type="line"/>
      <point x="337" y="410" type="line"/>
      <point x="337" y="482" type="line"/>
      <point x="263" y="482" type="line"/>
    </contour>
    <contour>
      <point x="263" y="62" type="line"/>
      <point x="337" y="62" type="line"/>
      <point x="337" y="134" type="line"/>
      <point x="263" y="134" type="line"/>
    </contour>
  </outline>
</glyph>
<glyph name="oslash" format="1">
  <advance width="552"/>
  <unicode hex="00F8"/>
  <outline>
    <contour>
      <point x="276" y="-10" type="curve" smooth="yes"/>
      <point x="425" y="-10"/>
      <point x="527" y="102"/>
      <point x="527" y="230" type="curve" smooth="yes"/>
      <point x="527" y="359"/>
      <point x="425" y="470"/>
      <point x="276" y="470" type="curve" smooth="yes"/>
      <point x="127" y="470"/>
      <point x="25" y="359"/>
      <point x="25" y="230" type="curve" smooth="yes"/>
      <point x="25" y="102"/>
      <point x="127" y="-10"/>
    </contour>
    <contour>
      <point x="285" y="43" type="curve" smooth="yes"/>
      <point x="229" y="43"/>
      <point x="205" y="140"/>
      <point x="205" y="251" type="curve" smooth="yes"/>
      <point x="205" y="344"/>
      <point x="224" y="418"/>
      <point x="269" y="418" type="curve" smooth="yes"/>
      <point x="324" y="418"/>
      <point x="347" y="321"/>
      <point x="347" y="210" type="curve" smooth="yes"/>
      <point x="347" y="119"/>
      <point x="328" y="43"/>
    </contour>
    <contour>
      <point x="25" y="-10" type="line"/>
      <point x="96" y="-10" type="line"/>
      <point x="527" y="470" type="line"/>
      <point x="456" y="470" type="line"/>
    </contour>
    <contour>
      <point x="276" y="510" type="move" name="top"/>
    </contour>
  </outline>
</glyph>
<glyph name="thorn" format="1">
  <advance width="599"/>
  <unicode hex="00FE"/>
  <outline>
    <contour>
      <point x="20" y="-230" type="line"/>
      <point x="351" y="-230" type="line"/>
      <point x="351" y="-214" type="line"/>
      <point x="269" y="-182" type="line"/>
      <point x="269" y="750" type="line"/>
      <point x="253" y="750" type="line"/>
      <point x="23" y="695" type="line"/>
      <point x="23" y="679" type="line"/>
      <point x="89" y="636" type="line"/>
      <point x="89" y="-182" type="line"/>
      <point x="20" y="-214" type="line"/>
    </contour>
    <contour>
      <point x="343" y="-10" type="curve" smooth="yes"/>
      <point x="467" y="-10"/>
      <point x="579" y="90"/>
      <point x="579" y="247" type="curve" smooth="yes"/>
      <point x="579" y="385"/>
      <point x="497" y="470"/>
      <point x="415" y="470" type="curve" smooth="yes"/>
      <point x="365" y="470"/>
      <point x="324" y="453"/>
      <point x="277" y="414" type="curve"/>
      <point x="257" y="414" type="line"/>
      <point x="257" y="359" type="line"/>
      <point x="282" y="372"/>
      <point x="292" y="379"/>
      <point x="315" y="379" type="curve" smooth="yes"/>
      <point x="354" y="379"/>
      <point x="399" y="328"/>
      <point x="399" y="220" type="curve" smooth="yes"/>
      <point x="399" y="74"/>
      <point x="352" y="45"/>
      <point x="314" y="45" type="curve" smooth="yes"/>
      <point x="291" y="45"/>
      <point x="271" y="59"/>
      <point x="267" y="77" type="curve"/>
      <point x="197" y="37" type="line"/>
      <point x="241" y="-1"/>
      <point x="287" y="-10"/>
    </contour>
  </outline>
</glyph>
<glyph name="Aogonek" format="1">
  <advance width="790"/>
  <unicode hex="0104"/>
  <outline>
    <contour>
      <point x="303" y="539" type="line"/>
      <point x="517" y="28" type="line"/>
      <point x="529" y="63" type="line"/>
      <point x="420" y="16" type="line"/>
      <point x="420" y="0" type="line"/>
      <point x="780" y="0" type="line"/>
      <point x="780" y="16" type="line"/>
      <point x="671" y="77" type="line"/>
      <point x="721" y="28" type="line"/>
      <point x="449" y="665" type="line"/>
      <point x="334" y="665" type="line"/>
      <point x="59" y="28" type="line"/>
      <point x="129" y="87" type="line"/>
      <point x="10" y="16" type="line"/>
      <point x="10" y="0" type="line"/>
      <point x="227" y="0" type="line"/>
      <point x="227" y="16" type="line"/>
      <point x="125" y="62" type="line"/>
      <point x="134" y="28" type="line"/>
      <point x="348" y="539" type="line"/>
    </contour>
    <contour>
      <point x="178" y="207" type="line"/>
      <point x="568" y="207" type="line"/>
      <point x="568" y="262" type="line"/>
      <point x="178" y="262" type="line"/>
    </contour>
    <contour>
      <point x="618" y="-125" type="curve" smooth="yes"/>
      <point x="618" y="-75"/>
      <point x="638" y="-25"/>
      <point x="669" y="27" type="curve"/>
      <point x="640" y="27" type="line"/>
      <point x="570" y="-38"/>
      <point x="527" y="-94"/>
      <point x="527" y="-148" type="curve" smooth="yes"/>
      <point x="527" y="-204"/>
      <point x="566" y="-240"/>
      <point x="628" y="-240" type="curve" smooth="yes"/>
      <point x="671" y="-240"/>
      <point x="705" y="-221"/>
      <point x="721" y="-188" type="curve"/>
      <point x="721" y="-165" type="line"/>
      <point x="717" y="-165" type="line"/>
      <point x="706" y="-177"/>
      <point x="687" y="-183"/>
      <point x="671" y="-183" type="curve" smooth="yes"/>
      <point x="635" y="-183"/>
      <point x="618" y="-162"/>
    </contour>
  </outline>
</glyph>
<glyph name="aogonek" format="2">
  <advance width="531"/>
  <unicode hex="0105"/>
  <outline>
    <contour>
      <point x="437" y="-240" type="curve" smooth="yes"/>
      <point x="480" y="-240"/>
      <point x="514" y="-221"/>
      <point x="530" y="-188" type="curve"/>
      <point x="530" y="-165" type="line"/>
      <point x="526" y="-165" type="line"/>
      <point x="515" y="-177"/>
      <point x="496" y="-183"/>
      <point x="480" y="-183" type="curve" smooth="yes"/>
      <point x="444" y="-183"/>
      <point x="427" y="-162"/>
      <point x="427" y="-125" type="curve" smooth="yes"/>
      <point x="427" y="-75"/>
      <point x="447" y="-25"/>
      <point x="478" y="27" type="curve"/>
      <point x="449" y="27" type="line"/>
      <point x="379" y="-38"/>
      <point x="336" y="-94"/>
      <point x="336" y="-148" type="curve" smooth="yes"/>
      <point x="336" y="-204"/>
      <point x="375" y="-240"/>
    </contour>
    <contour>
      <point x="148" y="-9" type="curve" smooth="yes"/>
      <point x="199" y="-9"/>
      <point x="243" y="15"/>
      <point x="282" y="64" type="curve"/>
      <point x="302" y="64" type="line"/>
      <point x="302" y="97" type="line"/>
      <point x="286" y="90"/>
      <point x="271" y="84"/>
      <point x="253" y="84" type="curve" smooth="yes"/>
      <point x="216" y="84"/>
      <point x="192" y="105"/>
      <point x="192" y="147" type="curve" smooth="yes"/>
      <point x="192" y="200"/>
      <point x="220" y="223"/>
      <point x="314" y="240" type="curve"/>
      <point x="314" y="287" type="line"/>
      <point x="180" y="252" type="line" smooth="yes"/>
      <point x="51" y="218"/>
      <point x="25" y="187"/>
      <point x="25" y="110" type="curve" smooth="yes"/>
      <point x="25" y="42"/>
      <point x="72" y="-9"/>
    </contour>
    <contour>
      <point x="417" y="-10" type="curve" smooth="yes"/>
      <point x="479" y="-10"/>
      <point x="516" y="16"/>
      <point x="531" y="38" type="curve"/>
      <point x="531" y="59" type="line"/>
      <point x="527" y="63" type="line"/>
      <point x="505" y="63" type="line" smooth="yes"/>
      <point x="486" y="63"/>
      <point x="472" y="69"/>
      <point x="462" y="78" type="curve"/>
      <point x="462" y="330" type="line" smooth="yes"/>
      <point x="462" y="424"/>
      <point x="374" y="470"/>
      <point x="258" y="470" type="curve" smooth="yes"/>
      <point x="149" y="470"/>
      <point x="38" y="400"/>
      <point x="38" y="335" type="curve" smooth="yes"/>
      <point x="38" y="309"/>
      <point x="44" y="297"/>
      <point x="69" y="297" type="curve" smooth="yes"/>
      <point x="158" y="297" type="line"/>
      <point x="158" y="428" type="line"/>
      <point x="122" y="381" type="line"/>
      <point x="150" y="406"/>
      <point x="175" y="414"/>
      <point x="206" y="414" type="curve" smooth="yes"/>
      <point x="255" y="414"/>
      <point x="282" y="388"/>
      <point x="282" y="333" type="curve" smooth="yes"/>
      <point x="282" y="69" type="line"/>
      <point x="284" y="69" type="line"/>
      <point x="306" y="17"/>
      <point x="347" y="-10"/>
    </contour>
  </outline>
</glyph>
<glyph name="Eogonek" format="1">
  <advance width="700.0"/>
  <unicode hex="0118"/>
  <outline>
    <contour>
      <point x="30" y="0" type="line"/>
      <point x="309" y="0" type="line"/>
      <point x="309" y="660" type="line"/>
      <point x="30" y="660" type="line"/>
      <point x="30" y="644" type="line"/>
      <point x="119" y="602" type="line"/>
      <point x="119" y="58" type="line"/>
      <point x="30" y="16" type="line"/>
    </contour>
    <contour>
      <point x="612" y="660" type="line"/>
      <point x="207" y="660" type="line"/>
      <point x="207" y="605" type="line"/>
      <point x="514" y="605" type="line"/>
      <point x="596" y="486" type="line"/>
      <point x="612" y="486" type="line"/>
    </contour>
    <contour>
      <point x="215" y="313" type="line"/>
      <point x="453" y="313" type="line"/>
      <point x="513" y="227" type="line"/>
      <point x="529" y="227" type="line"/>
      <point x="529" y="456" type="line"/>
      <point x="513" y="456" type="line"/>
      <point x="453" y="368" type="line"/>
      <point x="215" y="368" type="line"/>
    </contour>
    <contour>
      <point x="640" y="0" type="line"/>
      <point x="640" y="219" type="line"/>
      <point x="624" y="219" type="line"/>
      <point x="535" y="55" type="line"/>
      <point x="235" y="55" type="line"/>
      <point x="235" y="0" type="line"/>
    </contour>
    <contour>
      <point x="537" y="-125" type="curve" smooth="yes"/>
      <point x="537" y="-75"/>
      <point x="557" y="-25"/>
      <point x="588" y="27" type="curve"/>
      <point x="559" y="27" type="line"/>
      <point x="489" y="-38"/>
      <point x="446" y="-94"/>
      <point x="446" y="-148" type="curve" smooth="yes"/>
      <point x="446" y="-204"/>
      <point x="485" y="-240"/>
      <point x="547" y="-240" type="curve" smooth="yes"/>
      <point x="590" y="-240"/>
      <point x="624" y="-221"/>
      <point x="640" y="-188" type="curve"/>
      <point x="640" y="-165" type="line"/>
      <point x="636" y="-165" type="line"/>
      <point x="625" y="-177"/>
      <point x="606" y="-183"/>
      <point x="590" y="-183" type="curve" smooth="yes"/>
      <point x="554" y="-183"/>
      <point x="537" y="-162"/>
    </contour>
  </outline>
</glyph>
<glyph name="eogonek" format="1">
  <advance width="503"/>
  <unicode hex="0119"/>
  <outline>
    <contour>
      <point x="261" y="-10" type="curve" smooth="yes"/>
      <point x="318.6" y="-10.0"/>
      <point x="367" y="7"/>
      <point x="411" y="41" type="curve"/>
      <point x="403" y="41" type="line"/>
      <point x="325" y="-31"/>
      <point x="276.0" y="-89.6011235955"/>
      <point x="276" y="-148" type="curve" smooth="yes"/>
      <point x="276" y="-204"/>
      <point x="315" y="-240"/>
      <point x="377" y="-240" type="curve" smooth="yes"/>
      <point x="420" y="-240"/>
      <point x="454" y="-221"/>
      <point x="470" y="-188" type="curve"/>
      <point x="470" y="-165" type="line"/>
      <point x="466" y="-165" type="line"/>
      <point x="455" y="-177"/>
      <point x="436" y="-183"/>
      <point x="420" y="-183" type="curve" smooth="yes"/>
      <point x="384" y="-183"/>
      <point x="367" y="-162"/>
      <point x="367" y="-125" type="curve" smooth="yes"/>
      <point x="367.0" y="-48.6134020619"/>
      <point x="411" y="23"/>
      <point x="445" y="78" type="curve"/>
      <point x="456" y="93"/>
      <point x="465.492054296" y="107.315676212"/>
      <point x="473" y="124" type="curve"/>
      <point x="473" y="145" type="line"/>
      <point x="470" y="145" type="line"/>
      <point x="428" y="124"/>
      <point x="385" y="119"/>
      <point x="346" y="119" type="curve" smooth="yes"/>
      <point x="248" y="119"/>
      <point x="202" y="171"/>
      <point x="202" y="247" type="curve" smooth="yes"/>
      <point x="202" y="359"/>
      <point x="227" y="425"/>
      <point x="271" y="425" type="curve" smooth="yes"/>
      <point x="310" y="425"/>
      <point x="333" y="396"/>
      <point x="339" y="294" type="curve"/>
      <point x="395" y="306" type="line"/>
      <point x="138" y="306" type="line"/>
      <point x="138" y="262" type="line"/>
      <point x="469" y="262" type="line"/>
      <point x="472" y="267" type="line"/>
      <point x="470" y="395"/>
      <point x="409" y="470"/>
      <point x="299" y="470" type="curve" smooth="yes"/>
      <point x="147" y="470"/>
      <point x="30" y="362"/>
      <point x="30" y="209" type="curve" smooth="yes"/>
      <point x="30" y="77"/>
      <point x="118" y="-10"/>
    </contour>
  </outline>
</glyph>
<glyph name="hbar" format="1">
  <advance width="641"/>
  <unicode hex="0127"/>
  <outline>
    <contour>
      <point x="269" y="48" type="line"/>
      <point x="269" y="750" type="line"/>
      <point x="253" y="750" type="line"/>
      <point x="23" y="685" type="line"/>
      <point x="23" y="669" type="line"/>
      <point x="89" y="626" type="line"/>
      <point x="89" y="48" type="line"/>
      <point x="20" y="16" type="line"/>
      <point x="20" y="0" type="line"/>
      <point x="306" y="0" type="line"/>
      <point x="306" y="16" type="line"/>
    </contour>
    <contour>
      <point x="23" y="519" type="line"/>
      <point x="385" y="519" type="line"/>
      <point x="385" y="570" type="line"/>
      <point x="23" y="570" type="line"/>
    </contour>
    <contour>
      <point x="345" y="0" type="line"/>
      <point x="631" y="0" type="line"/>
      <point x="631" y="16" type="line"/>
      <point x="562" y="48" type="line"/>
      <point x="562" y="343" type="line" smooth="yes"/>
      <point x="562" y="427"/>
      <point x="504" y="470"/>
      <point x="421" y="470" type="curve" smooth="yes"/>
      <point x="356" y="470"/>
      <point x="318" y="440"/>
      <point x="273" y="396" type="curve"/>
      <point x="261" y="396" type="line"/>
      <point x="261" y="339" type="line"/>
      <point x="277" y="354"/>
      <point x="304" y="366"/>
      <point x="326" y="366" type="curve" smooth="yes"/>
      <point x="359" y="366"/>
      <point x="382" y="345"/>
      <point x="382" y="306" type="curve" smooth="yes"/>
      <point x="382" y="48" type="line"/>
      <point x="345" y="16" type="line"/>
    </contour>
  </outline>
</glyph>
<glyph name="Iogonek" format="1">
  <advance width="428"/>
  <unicode hex="012E"/>
  <outline>
    <contour>
      <point x="30" y="0" type="line"/>
      <point x="398" y="0" type="line"/>
      <point x="398" y="16" type="line"/>
      <point x="309" y="58" type="line"/>
      <point x="309" y="602" type="line"/>
      <point x="398" y="644" type="line"/>
      <point x="398" y="660" type="line"/>
      <point x="30" y="660" type="line"/>
      <point x="30" y="644" type="line"/>
      <point x="119" y="602" type="line"/>
      <point x="119" y="58" type="line"/>
      <point x="30" y="16" type="line"/>
    </contour>
    <contour>
      <point x="219" y="-240" type="curve" smooth="yes"/>
      <point x="262" y="-240"/>
      <point x="296" y="-221"/>
      <point x="312" y="-188" type="curve"/>
      <point x="312" y="-165" type="line"/>
      <point x="308" y="-165" type="line"/>
      <point x="297" y="-177"/>
      <point x="278" y="-183"/>
      <point x="262" y="-183" type="curve" smooth="yes"/>
      <point x="226" y="-183"/>
      <point x="209" y="-162"/>
      <point x="209" y="-125" type="curve" smooth="yes"/>
      <point x="209" y="-75"/>
      <point x="229" y="-25"/>
      <point x="260" y="27" type="curve"/>
      <point x="231" y="27" type="line"/>
      <point x="161" y="-38"/>
      <point x="118" y="-94"/>
      <point x="118" y="-148" type="curve" smooth="yes"/>
      <point x="118" y="-204"/>
      <point x="157" y="-240"/>
    </contour>
  </outline>
</glyph>
<glyph name="iogonek" format="1">
  <advance width="346"/>
  <unicode hex="012F"/>
  <outline>
    <contour>
      <point x="20" y="0" type="line" smooth="yes"/>
      <point x="326" y="0" type="line" smooth="yes"/>
      <point x="326" y="16" type="line"/>
      <point x="269" y="48" type="line"/>
      <point x="269" y="470" type="line"/>
      <point x="253" y="470" type="line"/>
      <point x="23" y="415" type="line"/>
      <point x="23" y="399" type="line"/>
      <point x="89" y="356" type="line"/>
      <point x="89" y="48" type="line"/>
      <point x="20" y="16" type="line"/>
    </contour>
    <contour>
      <point x="177" y="554" type="curve" smooth="yes"/>
      <point x="224" y="554"/>
      <point x="258" y="588"/>
      <point x="258" y="635" type="curve" smooth="yes"/>
      <point x="258" y="682"/>
      <point x="224" y="716"/>
      <point x="177" y="716" type="curve" smooth="yes"/>
      <point x="130" y="716"/>
      <point x="96" y="682"/>
      <point x="96" y="635" type="curve" smooth="yes"/>
      <point x="96" y="588"/>
      <point x="130" y="554"/>
    </contour>
    <contour>
      <point x="188" y="-240" type="curve" smooth="yes"/>
      <point x="231" y="-240"/>
      <point x="265" y="-221"/>
      <point x="281" y="-188" type="curve"/>
      <point x="281" y="-165" type="line"/>
      <point x="277" y="-165" type="line"/>
      <point x="266" y="-177"/>
      <point x="247" y="-183"/>
      <point x="231" y="-183" type="curve" smooth="yes"/>
      <point x="195" y="-183"/>
      <point x="178" y="-162"/>
      <point x="178" y="-125" type="curve" smooth="yes"/>
      <point x="178" y="-75"/>
      <point x="198" y="-25"/>
      <point x="229" y="27" type="curve"/>
      <point x="200" y="27" type="line"/>
      <point x="130" y="-38"/>
      <point x="87" y="-94"/>
      <point x="87" y="-148" type="curve" smooth="yes"/>
      <point x="87" y="-204"/>
      <point x="126" y="-240"/>
    </contour>
  </outline>
</glyph>
<glyph name="idotless" format="1">
  <advance width="346"/>
  <unicode hex="0131"/>
  <outline>
    <contour>
      <point x="20" y="0" type="line" smooth="yes"/>
      <point x="326" y="0" type="line" smooth="yes"/>
      <point x="326" y="16" type="line"/>
      <point x="269" y="48" type="line"/>
      <point x="269" y="470" type="line"/>
      <point x="253" y="470" type="line"/>
      <point x="23" y="415" type="line"/>
      <point x="23" y="399" type="line"/>
      <point x="89" y="356" type="line"/>
      <point x="89" y="48" type="line"/>
      <point x="20" y="16" type="line"/>
    </contour>
    <contour>
      <point x="173" y="510.0" type="move" name="top"/>
    </contour>
    <contour>
      <point x="173" y="0.0" type="move" name="bottom"/>
    </contour>
    <contour>
      <point x="208" y="0" type="move" name="right"/>
    </contour>
  </outline>
</glyph>
<glyph name="kgreenlandic" format="1">
  <advance width="632"/>
  <unicode hex="0138"/>
  <outline>
    <contour>
      <point x="20" y="0" type="line"/>
      <point x="329" y="0" type="line"/>
      <point x="329" y="16" type="line"/>
      <point x="269" y="48" type="line"/>
      <point x="269" y="470" type="line"/>
      <point x="253" y="470" type="line"/>
      <point x="23" y="415" type="line"/>
      <point x="23" y="399" type="line"/>
      <point x="89" y="356" type="line"/>
      <point x="89" y="48" type="line"/>
      <point x="20" y="16" type="line"/>
    </contour>
    <contour>
      <point x="406" y="0" type="line"/>
      <point x="642" y="0" type="line"/>
      <point x="642" y="16" type="line"/>
      <point x="578" y="50" type="line"/>
      <point x="396" y="330" type="line"/>
      <point x="316" y="242" type="line"/>
      <point x="524" y="409" type="line"/>
      <point x="588" y="444" type="line"/>
      <point x="588" y="460" type="line"/>
      <point x="363" y="460" type="line"/>
      <point x="363" y="444" type="line"/>
      <point x="412" y="408" type="line"/>
      <point x="412" y="402" type="line"/>
      <point x="263" y="260" type="line"/>
      <point x="263" y="245" type="line"/>
      <point x="380" y="52" type="line"/>
    </contour>
  </outline>
</glyph>
<glyph name="Lslash" format="1">
  <advance width="660"/>
  <unicode hex="0141"/>
  <outline>
    <contour>
      <point x="30" y="0" type="line"/>
      <point x="620" y="0" type="line"/>
      <point x="620" y="259" type="line"/>
      <point x="604" y="259" type="line"/>
      <point x="514" y="55" type="line"/>
      <point x="309" y="55" type="line"/>
      <point x="309" y="602" type="line"/>
      <point x="408" y="644" type="line"/>
      <point x="408" y="660" type="line"/>
      <point x="30" y="660" type="line"/>
      <point x="30" y="644" type="line"/>
      <point x="119" y="602" type="line"/>
      <point x="119" y="58" type="line"/>
      <point x="30" y="16" type="line"/>
    </contour>
    <contour>
      <point x="30" y="134" type="line"/>
      <point x="177" y="239" type="line"/>
      <point x="261" y="273" type="line"/>
      <point x="447" y="401" type="line"/>
      <point x="447" y="470" type="line"/>
      <point x="257" y="340" type="line"/>
      <point x="175" y="307" type="line"/>
      <point x="30" y="203" type="line"/>
    </contour>
  </outline>
</glyph>
<glyph name="lslash" format="1">
  <advance width="346"/>
  <unicode hex="0142"/>
  <outline>
    <contour>
      <point x="20" y="0" type="line"/>
      <point x="326" y="0" type="line"/>
      <point x="326" y="16" type="line"/>
      <point x="269" y="48" type="line"/>
      <point x="269" y="750" type="line"/>
      <point x="253" y="750" type="line"/>
      <point x="23" y="695" type="line"/>
      <point x="23" y="679" type="line"/>
      <point x="89" y="636" type="line"/>
      <point x="89" y="48" type="line"/>
      <point x="20" y="16" type="line"/>
    </contour>
    <contour>
      <point x="20" y="246" type="line"/>
      <point x="152" y="321" type="line"/>
      <point x="232" y="351" type="line"/>
      <point x="338" y="412" type="line"/>
      <point x="338" y="470" type="line"/>
      <point x="231" y="409" type="line"/>
      <point x="152" y="379" type="line"/>
      <point x="20" y="304" type="line"/>
    </contour>
  </outline>
</glyph>
<glyph name="Eng" format="2">
  <advance width="827"/>
  <unicode hex="014A"/>
  <outline>
    <contour>
      <point x="603" y="-147" type="curve"/>
      <point x="646" y="-125" type="line"/>
      <point x="467" y="-125" type="line"/>
      <point x="467" y="-193" type="line" smooth="yes"/>
      <point x="467" y="-229"/>
      <point x="476" y="-241"/>
      <point x="538" y="-241" type="curve" smooth="yes"/>
      <point x="635" y="-241"/>
      <point x="710" y="-170"/>
      <point x="710" y="0" type="curve" smooth="yes"/>
      <point x="710" y="602" type="line"/>
      <point x="797" y="644" type="line"/>
      <point x="797" y="660" type="line"/>
      <point x="517" y="660" type="line"/>
      <point x="517" y="644" type="line"/>
      <point x="640" y="602" type="line"/>
      <point x="640" y="187" type="line"/>
      <point x="698" y="187" type="line"/>
      <point x="247" y="660" type="line"/>
      <point x="30" y="660" type="line"/>
      <point x="30" y="644" type="line"/>
      <point x="119" y="602" type="line"/>
      <point x="119" y="58" type="line"/>
      <point x="30" y="16" type="line"/>
      <point x="30" y="0" type="line"/>
      <point x="312" y="0" type="line"/>
      <point x="312" y="16" type="line"/>
      <point x="189" y="58" type="line"/>
      <point x="189" y="493" type="line"/>
      <point x="150" y="493" type="line"/>
      <point x="666" y="-41" type="line"/>
      <point x="640" y="22" type="line"/>
      <point x="640" y="-6" type="line" smooth="yes"/>
      <point x="640" y="-80"/>
      <point x="633" y="-121"/>
    </contour>
  </outline>
</glyph>
<glyph name="Eng" format="1">
  <advance width="827"/>
  <unicode hex="014A"/>
  <outline>
    <contour>
      <point x="30" y="0" type="line"/>
      <point x="312" y="0" type="line"/>
      <point x="312" y="16" type="line"/>
      <point x="189" y="58" type="line"/>
      <point x="189" y="493" type="line"/>
      <point x="150" y="493" type="line"/>
      <point x="666" y="-41" type="line"/>
      <point x="640" y="22" type="line"/>
      <point x="640" y="-6" type="line" smooth="yes"/>
      <point x="640" y="-100"/>
      <point x="609" y="-125"/>
      <point x="523" y="-125" type="curve" smooth="yes"/>
      <point x="453" y="-125" type="line"/>
      <point x="447" y="-131" type="line"/>
      <point x="447" y="-212" type="line" smooth="yes"/>
      <point x="447" y="-234.0"/>
      <point x="449" y="-241"/>
      <point x="501" y="-241" type="curve" smooth="yes"/>
      <point x="553.5" y="-241.0"/>
      <point x="605.491522033" y="-226.421310315"/>
      <point x="641" y="-197" type="curve" smooth="yes"/>
      <point x="683.831544914" y="-162.058476518"/>
      <point x="710" y="-104.204188482"/>
      <point x="710" y="14" type="curve" smooth="yes"/>
      <point x="710" y="602" type="line"/>
      <point x="797" y="644" type="line"/>
      <point x="797" y="660" type="line"/>
      <point x="517" y="660" type="line"/>
      <point x="517" y="644" type="line"/>
      <point x="640" y="602" type="line"/>
      <point x="640" y="187" type="line"/>
      <point x="698" y="187" type="line"/>
      <point x="247" y="660" type="line"/>
      <point x="30" y="660" type="line"/>
      <point x="30" y="644" type="line"/>
      <point x="119" y="602" type="line"/>
      <point x="119" y="58" type="line"/>
      <point x="30" y="16" type="line"/>
    </contour>
  </outline>
</glyph>
<glyph name="eng" format="1">
  <advance width="637"/>
  <unicode hex="014B"/>
  <outline>
    <contour>
      <point x="20" y="0" type="line"/>
      <point x="306" y="0" type="line"/>
      <point x="306" y="16" type="line"/>
      <point x="269" y="48" type="line"/>
      <point x="269" y="390" type="line"/>
      <point x="259" y="470" type="line"/>
      <point x="243" y="470" type="line"/>
      <point x="23" y="405" type="line"/>
      <point x="23" y="389" type="line"/>
      <point x="89" y="356" type="line"/>
      <point x="89" y="48" type="line"/>
      <point x="20" y="16" type="line"/>
    </contour>
    <contour>
      <point x="319" y="-230" type="line"/>
      <point x="505" y="-168"/>
      <point x="562" y="-79"/>
      <point x="562" y="39" type="curve" smooth="yes"/>
      <point x="562" y="343" type="line" smooth="yes"/>
      <point x="562" y="427"/>
      <point x="504" y="470"/>
      <point x="421" y="470" type="curve" smooth="yes"/>
      <point x="356" y="470"/>
      <point x="318" y="440"/>
      <point x="273" y="396" type="curve"/>
      <point x="261" y="396" type="line"/>
      <point x="261" y="339" type="line"/>
      <point x="277" y="354"/>
      <point x="304" y="366"/>
      <point x="326" y="366" type="curve" smooth="yes"/>
      <point x="359" y="366"/>
      <point x="382" y="345"/>
      <point x="382" y="306" type="curve"/>
      <point x="382" y="-36" type="line" smooth="yes"/>
      <point x="382" y="-132"/>
      <point x="380" y="-155"/>
      <point x="319" y="-210" type="curve"/>
    </contour>
  </outline>
</glyph>
<glyph name="OE" format="1">
  <advance width="1059"/>
  <unicode hex="0152"/>
  <outline>
    <contour>
      <point x="423" y="0" type="curve"/>
      <point x="688" y="0" type="line"/>
      <point x="688" y="660" type="line"/>
      <point x="430" y="660" type="line" smooth="yes"/>
      <point x="201" y="660"/>
      <point x="35" y="528"/>
      <point x="35" y="315" type="curve" smooth="yes"/>
      <point x="35" y="119"/>
      <point x="176" y="0"/>
    </contour>
    <contour>
      <point x="463" y="55" type="line" smooth="yes"/>
      <point x="307" y="55"/>
      <point x="231" y="166"/>
      <point x="231" y="341" type="curve" smooth="yes"/>
      <point x="231" y="502"/>
      <point x="309" y="605"/>
      <point x="454" y="605" type="curve" smooth="yes"/>
      <point x="541" y="605" type="line"/>
      <point x="498" y="633" type="line"/>
      <point x="498" y="28" type="line"/>
      <point x="569" y="55" type="line"/>
    </contour>
    <contour>
      <point x="991" y="486" type="line"/>
      <point x="991" y="660" type="line"/>
      <point x="586" y="660" type="line"/>
      <point x="586" y="605" type="line"/>
      <point x="893" y="605" type="line"/>
      <point x="975" y="486" type="line"/>
    </contour>
    <contour>
      <point x="908" y="227" type="line"/>
      <point x="908" y="456" type="line"/>
      <point x="892" y="456" type="line"/>
      <point x="832" y="368" type="line"/>
      <point x="594" y="368" type="line"/>
      <point x="594" y="313" type="line"/>
      <point x="832" y="313" type="line"/>
      <point x="892" y="227" type="line"/>
    </contour>
    <contour>
      <point x="1019" y="0" type="line"/>
      <point x="1019" y="219" type="line"/>
      <point x="1003" y="219" type="line"/>
      <point x="914" y="55" type="line"/>
      <point x="614" y="55" type="line"/>
      <point x="614" y="0" type="line"/>
    </contour>
  </outline>
</glyph>
<glyph name="oe" format="1">
  <advance width="828"/>
  <unicode hex="0153"/>
  <outline>
    <contour>
      <point x="276.0" y="-10.0" type="curve" smooth="yes"/>
      <point x="360.0" y="-10.0"/>
      <point x="429.0" y="26.0"/>
      <point x="473.0" y="80.0" type="curve"/>
      <point x="391" y="80" type="line"/>
      <point x="430" y="23"/>
      <point x="497.0" y="-10.0"/>
      <point x="586.0" y="-10.0" type="curve" smooth="yes"/>
      <point x="687.0" y="-10.0"/>
      <point x="764.0" y="46.0"/>
      <point x="798.0" y="124.0" type="curve"/>
      <point x="798.0" y="145.0" type="line"/>
      <point x="795.0" y="145.0" type="line"/>
      <point x="753.0" y="124.0"/>
      <point x="710.0" y="119.0"/>
      <point x="671.0" y="119.0" type="curve" smooth="yes"/>
      <point x="573.0" y="119.0"/>
      <point x="527.0" y="171.0"/>
      <point x="527.0" y="247.0" type="curve" smooth="yes"/>
      <point x="527.0" y="359.0"/>
      <point x="552.0" y="425.0"/>
      <point x="596.0" y="425.0" type="curve" smooth="yes"/>
      <point x="635.0" y="425.0"/>
      <point x="658.0" y="396.0"/>
      <point x="664.0" y="294.0" type="curve"/>
      <point x="720.0" y="306.0" type="line"/>
      <point x="463.0" y="306.0" type="line"/>
      <point x="463.0" y="262.0" type="line"/>
      <point x="794.0" y="262.0" type="line"/>
      <point x="797.0" y="267.0" type="line"/>
      <point x="795.0" y="395.0"/>
      <point x="734.0" y="470.0"/>
      <point x="624.0" y="470.0" type="curve" smooth="yes"/>
      <point x="535.0" y="470.0"/>
      <point x="458.0" y="433.0"/>
      <point x="409.0" y="372.0" type="curve"/>
      <point x="481.0" y="372.0" type="line"/>
      <point x="437.0" y="431.0"/>
      <point x="365.0" y="470.0"/>
      <point x="276.0" y="470.0" type="curve" smooth="yes"/>
      <point x="127.0" y="470.0"/>
      <point x="25.0" y="359.0"/>
      <point x="25.0" y="230.0" type="curve" smooth="yes"/>
      <point x="25.0" y="102.0"/>
      <point x="127.0" y="-10.0"/>
    </contour>
    <contour>
      <point x="285" y="43" type="curve" smooth="yes"/>
      <point x="229" y="43"/>
      <point x="205" y="140"/>
      <point x="205" y="251" type="curve" smooth="yes"/>
      <point x="205" y="344"/>
      <point x="224" y="418"/>
      <point x="269" y="418" type="curve" smooth="yes"/>
      <point x="324" y="418"/>
      <point x="347" y="321"/>
      <point x="347" y="210" type="curve" smooth="yes"/>
      <point x="347" y="119"/>
      <point x="328" y="43"/>
    </contour>
  </outline>
</glyph>
<glyph name="Scedilla" format="1">
  <advance width="599"/>
  <unicode hex="015E"/>
  <outline>
    <contour>
      <point x="276" y="-10" type="curve" smooth="yes"/>
      <point x="425" y="-10"/>
      <point x="555" y="71"/>
      <point x="555" y="203" type="curve" smooth="yes"/>
      <point x="555" y="296"/>
      <point x="500" y="354"/>
      <point x="378" y="407" type="curve" smooth="yes"/>
      <point x="275" y="452"/>
      <point x="244" y="480"/>
      <point x="244" y="527" type="curve" smooth="yes"/>
      <point x="244" y="582"/>
      <point x="282" y="615"/>
      <point x="334" y="615" type="curve" smooth="yes"/>
      <point x="381" y="615"/>
      <point x="414" y="596"/>
      <point x="451" y="564" type="curve"/>
      <point x="410" y="611" type="line"/>
      <point x="516" y="462" type="line"/>
      <point x="534" y="462" type="line"/>
      <point x="524" y="622" type="line"/>
      <point x="471" y="652"/>
      <point x="398" y="670"/>
      <point x="326" y="670" type="curve" smooth="yes"/>
      <point x="195" y="670"/>
      <point x="60" y="576"/>
      <point x="60" y="455" type="curve" smooth="yes"/>
      <point x="60" y="373"/>
      <point x="112" y="311"/>
      <point x="207" y="272" type="curve" smooth="yes"/>
      <point x="348" y="213"/>
      <point x="375" y="192"/>
      <point x="375" y="136" type="curve" smooth="yes"/>
      <point x="375" y="72"/>
      <point x="323" y="44"/>
      <point x="255" y="44" type="curve" smooth="yes"/>
      <point x="207" y="44"/>
      <point x="159" y="66"/>
      <point x="132" y="93" type="curve"/>
      <point x="158" y="62" type="line"/>
      <point x="58" y="217" type="line"/>
      <point x="39" y="217" type="line"/>
      <point x="49" y="44" type="line"/>
      <point x="113" y="11"/>
      <point x="184" y="-10"/>
    </contour>
    <contour>
      <point x="294" y="-240" type="curve" smooth="yes"/>
      <point x="359" y="-240"/>
      <point x="404" y="-200"/>
      <point x="404" y="-143" type="curve" smooth="yes"/>
      <point x="404" y="-85"/>
      <point x="372" y="-51"/>
      <point x="272" y="-27" type="curve"/>
      <point x="289" y="-61" type="line"/>
      <point x="329" y="27" type="line"/>
      <point x="289" y="27" type="line"/>
      <point x="230" y="-103" type="line"/>
      <point x="309" y="-122"/>
      <point x="327" y="-142"/>
      <point x="327" y="-170" type="curve" smooth="yes"/>
      <point x="327" y="-196"/>
      <point x="305" y="-208"/>
      <point x="271" y="-208" type="curve" smooth="yes"/>
      <point x="255" y="-208"/>
      <point x="233" y="-205"/>
      <point x="218" y="-197" type="curve"/>
      <point x="214" y="-197" type="line"/>
      <point x="214" y="-220" type="line"/>
      <point x="235" y="-233"/>
      <point x="260" y="-240"/>
    </contour>
  </outline>
</glyph>
<glyph name="scedilla" format="1">
  <advance width="441"/>
  <unicode hex="015F"/>
  <outline>
    <contour>
      <point x="207" y="-10" type="curve" smooth="yes"/>
      <point x="310" y="-10"/>
      <point x="396" y="53"/>
      <point x="396" y="151" type="curve" smooth="yes"/>
      <point x="396" y="245"/>
      <point x="332" y="271"/>
      <point x="276" y="291" type="curve" smooth="yes"/>
      <point x="183" y="325"/>
      <point x="171" y="340"/>
      <point x="171" y="369" type="curve" smooth="yes"/>
      <point x="171" y="402"/>
      <point x="195" y="421"/>
      <point x="232" y="421" type="curve" smooth="yes"/>
      <point x="274" y="421"/>
      <point x="295" y="401"/>
      <point x="324" y="360" type="curve" smooth="yes"/>
      <point x="354" y="317" type="line"/>
      <point x="370" y="317" type="line"/>
      <point x="370" y="442" type="line"/>
      <point x="329" y="464"/>
      <point x="282" y="470"/>
      <point x="240" y="470" type="curve" smooth="yes"/>
      <point x="123" y="470"/>
      <point x="49" y="395"/>
      <point x="49" y="300" type="curve" smooth="yes"/>
      <point x="49" y="243"/>
      <point x="81" y="199"/>
      <point x="161" y="168" type="curve" smooth="yes"/>
      <point x="257" y="131"/>
      <point x="275" y="119"/>
      <point x="275" y="87" type="curve" smooth="yes"/>
      <point x="275" y="57"/>
      <point x="250" y="40"/>
      <point x="202" y="40" type="curve" smooth="yes"/>
      <point x="160" y="40"/>
      <point x="123" y="60"/>
      <point x="98" y="95" type="curve" smooth="yes"/>
      <point x="61" y="146" type="line"/>
      <point x="45" y="146" type="line"/>
      <point x="45" y="28" type="line"/>
      <point x="92" y="5"/>
      <point x="139" y="-10"/>
    </contour>
    <contour>
      <point x="218" y="-240" type="curve" smooth="yes"/>
      <point x="283" y="-240"/>
      <point x="328" y="-200"/>
      <point x="328" y="-143" type="curve" smooth="yes"/>
      <point x="328" y="-85"/>
      <point x="296" y="-51"/>
      <point x="196" y="-27" type="curve"/>
      <point x="213" y="-61" type="line"/>
      <point x="253" y="27" type="line"/>
      <point x="213" y="27" type="line"/>
      <point x="154" y="-103" type="line"/>
      <point x="233" y="-122"/>
      <point x="251" y="-142"/>
      <point x="251" y="-170" type="curve" smooth="yes"/>
      <point x="251" y="-196"/>
      <point x="229" y="-208"/>
      <point x="195" y="-208" type="curve" smooth="yes"/>
      <point x="179" y="-208"/>
      <point x="157" y="-205"/>
      <point x="142" y="-197" type="curve"/>
      <point x="138" y="-197" type="line"/>
      <point x="138" y="-220" type="line"/>
      <point x="159" y="-233"/>
      <point x="184" y="-240"/>
    </contour>
  </outline>
</glyph>
<glyph name="Tcedilla" format="1">
  <advance width="718"/>
  <unicode hex="0162"/>
  <outline>
    <contour>
      <point x="154" y="0" type="line"/>
      <point x="564" y="0" type="line"/>
      <point x="564" y="16" type="line"/>
      <point x="454" y="58" type="line"/>
      <point x="454" y="605" type="line"/>
      <point x="584" y="605" type="line"/>
      <point x="672" y="429" type="line"/>
      <point x="688" y="429" type="line"/>
      <point x="688" y="660" type="line"/>
      <point x="30" y="660" type="line"/>
      <point x="30" y="429" type="line"/>
      <point x="46" y="429" type="line"/>
      <point x="134" y="605" type="line"/>
      <point x="264" y="605" type="line"/>
      <point x="264" y="58" type="line"/>
      <point x="154" y="16" type="line"/>
    </contour>
    <contour>
      <point x="356" y="-240" type="curve" smooth="yes"/>
      <point x="421" y="-240"/>
      <point x="466" y="-200"/>
      <point x="466" y="-143" type="curve" smooth="yes"/>
      <point x="466" y="-85"/>
      <point x="434" y="-51"/>
      <point x="334" y="-27" type="curve"/>
      <point x="351" y="-61" type="line"/>
      <point x="391" y="27" type="line"/>
      <point x="351" y="27" type="line"/>
      <point x="292" y="-103" type="line"/>
      <point x="371" y="-122"/>
      <point x="389" y="-142"/>
      <point x="389" y="-170" type="curve" smooth="yes"/>
      <point x="389" y="-196"/>
      <point x="367" y="-208"/>
      <point x="333" y="-208" type="curve" smooth="yes"/>
      <point x="317" y="-208"/>
      <point x="295" y="-205"/>
      <point x="280" y="-197" type="curve"/>
      <point x="276" y="-197" type="line"/>
      <point x="276" y="-220" type="line"/>
      <point x="297" y="-233"/>
      <point x="322" y="-240"/>
    </contour>
  </outline>
</glyph>
<glyph name="tcedilla" format="1">
  <advance width="407"/>
  <unicode hex="0163"/>
  <outline>
    <contour>
      <point x="230" y="-10" type="curve" smooth="yes"/>
      <point x="291" y="-10"/>
      <point x="358" y="19"/>
      <point x="385" y="53" type="curve"/>
      <point x="385" y="75" type="line"/>
      <point x="382" y="77" type="line"/>
      <point x="362" y="73"/>
      <point x="346" y="70"/>
      <point x="322" y="70" type="curve" smooth="yes"/>
      <point x="283" y="70"/>
      <point x="250" y="86"/>
      <point x="250" y="120" type="curve" smooth="yes"/>
      <point x="250" y="416" type="line"/>
      <point x="392" y="416" type="line"/>
      <point x="392" y="460" type="line"/>
      <point x="250" y="460" type="line"/>
      <point x="250" y="570" type="line"/>
      <point x="221" y="570" type="line"/>
      <point x="102" y="460" type="line"/>
      <point x="5" y="435" type="line"/>
      <point x="5" y="416" type="line"/>
      <point x="70" y="416" type="line"/>
      <point x="70" y="89" type="line" smooth="yes"/>
      <point x="70" y="26"/>
      <point x="134" y="-10"/>
    </contour>
    <contour>
      <point x="217" y="-240" type="curve" smooth="yes"/>
      <point x="282" y="-240"/>
      <point x="327" y="-200"/>
      <point x="327" y="-143" type="curve" smooth="yes"/>
      <point x="327" y="-85"/>
      <point x="295" y="-51"/>
      <point x="195" y="-27" type="curve"/>
      <point x="212" y="-61" type="line"/>
      <point x="252" y="27" type="line"/>
      <point x="212" y="27" type="line"/>
      <point x="153" y="-103" type="line"/>
      <point x="232" y="-122"/>
      <point x="250" y="-142"/>
      <point x="250" y="-170" type="curve" smooth="yes"/>
      <point x="250" y="-196"/>
      <point x="228" y="-208"/>
      <point x="194" y="-208" type="curve" smooth="yes"/>
      <point x="178" y="-208"/>
      <point x="156" y="-205"/>
      <point x="141" y="-197" type="curve"/>
      <point x="137" y="-197" type="line"/>
      <point x="137" y="-220" type="line"/>
      <point x="158" y="-233"/>
      <point x="183" y="-240"/>
    </contour>
  </outline>
</glyph>
<glyph name="tbar" format="1">
  <advance width="407"/>
  <unicode hex="0167"/>
  <outline>
    <contour>
      <point x="230" y="-10" type="curve" smooth="yes"/>
      <point x="291" y="-10"/>
      <point x="358" y="19"/>
      <point x="385" y="53" type="curve"/>
      <point x="385" y="75" type="line"/>
      <point x="382" y="77" type="line"/>
      <point x="362" y="73"/>
      <point x="346" y="70"/>
      <point x="322" y="70" type="curve" smooth="yes"/>
      <point x="283" y="70"/>
      <point x="250" y="86"/>
      <point x="250" y="120" type="curve" smooth="yes"/>
      <point x="250" y="416" type="line"/>
      <point x="392" y="416" type="line"/>
      <point x="392" y="460" type="line"/>
      <point x="250" y="460" type="line"/>
      <point x="250" y="570" type="line"/>
      <point x="221" y="570" type="line"/>
      <point x="102" y="460" type="line"/>
      <point x="5" y="435" type="line"/>
      <point x="5" y="416" type="line"/>
      <point x="70" y="416" type="line"/>
      <point x="70" y="89" type="line" smooth="yes"/>
      <point x="70" y="26"/>
      <point x="134" y="-10"/>
    </contour>
    <contour>
      <point x="5" y="240" type="line"/>
      <point x="382" y="240" type="line"/>
      <point x="382" y="291" type="line"/>
      <point x="5" y="291" type="line"/>
    </contour>
  </outline>
</glyph>
<glyph name="Uogonek" format="1">
  <advance width="856"/>
  <unicode hex="0172"/>
  <outline>
    <contour>
      <point x="435" y="-10" type="curve" smooth="yes"/>
      <point x="618" y="-10"/>
      <point x="736" y="66"/>
      <point x="736" y="302" type="curve" smooth="yes"/>
      <point x="736" y="603" type="line"/>
      <point x="826" y="644" type="line"/>
      <point x="826" y="660" type="line"/>
      <point x="576" y="660" type="line"/>
      <point x="576" y="644" type="line"/>
      <point x="666" y="604" type="line"/>
      <point x="666" y="255" type="line" smooth="yes"/>
      <point x="666" y="124"/>
      <point x="586" y="76"/>
      <point x="498" y="76" type="curve" smooth="yes"/>
      <point x="395" y="76"/>
      <point x="310" y="127"/>
      <point x="310" y="290" type="curve" smooth="yes"/>
      <point x="310" y="602" type="line"/>
      <point x="400" y="644" type="line"/>
      <point x="400" y="660" type="line"/>
      <point x="30" y="660" type="line"/>
      <point x="30" y="644" type="line"/>
      <point x="120" y="602" type="line"/>
      <point x="120" y="302" type="line" smooth="yes"/>
      <point x="120" y="66"/>
      <point x="245" y="-10"/>
    </contour>
    <contour>
      <point x="457" y="-240" type="curve" smooth="yes"/>
      <point x="500" y="-240"/>
      <point x="534" y="-221"/>
      <point x="550" y="-188" type="curve"/>
      <point x="550" y="-165" type="line"/>
      <point x="546" y="-165" type="line"/>
      <point x="535" y="-177"/>
      <point x="516" y="-183"/>
      <point x="500" y="-183" type="curve" smooth="yes"/>
      <point x="464" y="-183"/>
      <point x="447" y="-162"/>
      <point x="447" y="-125" type="curve" smooth="yes"/>
      <point x="447" y="-75"/>
      <point x="467" y="-25"/>
      <point x="498" y="27" type="curve"/>
      <point x="469" y="27" type="line"/>
      <point x="399" y="-38"/>
      <point x="356" y="-94"/>
      <point x="356" y="-148" type="curve" smooth="yes"/>
      <point x="356" y="-204"/>
      <point x="395" y="-240"/>
    </contour>
  </outline>
</glyph>
<glyph name="uogonek" format="1">
  <advance width="609"/>
  <unicode hex="0173"/>
  <outline>
    <contour>
      <point x="213" y="-10" type="curve" smooth="yes"/>
      <point x="277" y="-10"/>
      <point x="314" y="20"/>
      <point x="358" y="64" type="curve"/>
      <point x="370" y="64" type="line"/>
      <point x="370" y="121" type="line"/>
      <point x="354" y="106"/>
      <point x="329" y="94"/>
      <point x="308" y="94" type="curve" smooth="yes"/>
      <point x="277" y="94"/>
      <point x="255" y="115"/>
      <point x="255" y="154" type="curve" smooth="yes"/>
      <point x="255" y="460" type="line"/>
      <point x="6" y="460" type="line"/>
      <point x="6" y="444" type="line"/>
      <point x="75" y="412" type="line"/>
      <point x="75" y="117" type="line" smooth="yes"/>
      <point x="75" y="33"/>
      <point x="132" y="-10"/>
    </contour>
    <contour>
      <point x="362" y="0" type="line"/>
      <point x="599" y="0" type="line"/>
      <point x="599" y="16" type="line"/>
      <point x="542" y="48" type="line"/>
      <point x="542" y="460" type="line"/>
      <point x="308" y="460" type="line"/>
      <point x="308" y="444" type="line"/>
      <point x="362" y="412" type="line"/>
    </contour>
    <contour>
      <point x="443" y="-240" type="curve" smooth="yes"/>
      <point x="486" y="-240"/>
      <point x="520" y="-221"/>
      <point x="536" y="-188" type="curve"/>
      <point x="536" y="-165" type="line"/>
      <point x="532" y="-165" type="line"/>
      <point x="521" y="-177"/>
      <point x="502" y="-183"/>
      <point x="486" y="-183" type="curve" smooth="yes"/>
      <point x="450" y="-183"/>
      <point x="433" y="-162"/>
      <point x="433" y="-125" type="curve" smooth="yes"/>
      <point x="433" y="-75"/>
      <point x="453" y="-25"/>
      <point x="484" y="27" type="curve"/>
      <point x="455" y="27" type="line"/>
      <point x="385" y="-38"/>
      <point x="342" y="-94"/>
      <point x="342" y="-148" type="curve" smooth="yes"/>
      <point x="342" y="-204"/>
      <point x="381" y="-240"/>
    </contour>
  </outline>
</glyph>
